<?xml version="1.0" encoding="utf-8" standalone="no"?>
<!DOCTYPE svg PUBLIC "-//W3C//DTD SVG 1.1//EN"
  "http://www.w3.org/Graphics/SVG/1.1/DTD/svg11.dtd">
<!-- Created with matplotlib (https://matplotlib.org/) -->
<svg height="345.6pt" version="1.1" viewBox="0 0 460.8 345.6" width="460.8pt" xmlns="http://www.w3.org/2000/svg" xmlns:xlink="http://www.w3.org/1999/xlink">
 <defs>
  <style type="text/css">
*{stroke-linecap:butt;stroke-linejoin:round;}
  </style>
 </defs>
 <g id="figure_1">
  <g id="patch_1">
   <path d="M 0 345.6 
L 460.8 345.6 
L 460.8 0 
L 0 0 
z
" style="fill:#ffffff;"/>
  </g>
  <g id="axes_1">
   <g id="patch_2">
    <path d="M 57.6 307.584 
L 414.72 307.584 
L 414.72 41.472 
L 57.6 41.472 
z
" style="fill:#ffffff;"/>
   </g>
   <g id="matplotlib.axis_1">
    <g id="xtick_1">
     <g id="line2d_1">
      <defs>
       <path d="M 0 0 
L 0 3.5 
" id="m042d8121aa" style="stroke:#000000;stroke-width:0.8;"/>
      </defs>
      <g>
       <use style="stroke:#000000;stroke-width:0.8;" x="70.907912" xlink:href="#m042d8121aa" y="307.584"/>
      </g>
     </g>
     <g id="text_1">
      <!-- 0 -->
      <defs>
       <path d="M 3.125 29.296875 
Q 3.90625 50 6.4375 56.046875 
Q 8.984375 62.109375 13.671875 66.015625 
Q 18.359375 69.921875 25.1875 69.921875 
Q 32.03125 69.921875 37.109375 64.25 
Q 42.1875 58.59375 43.75 50 
Q 45.3125 41.40625 44.71875 30.265625 
Q 44.140625 19.140625 40.8125 12.109375 
Q 37.5 5.078125 30.859375 2.34375 
Q 24.21875 -0.390625 17.578125 2.921875 
Q 10.9375 6.25 8.203125 11.71875 
Q 5.46875 17.1875 4.296875 23.234375 
Q 3.125 29.296875 3.90625 50 
z
M 12.890625 52.734375 
Q 10.546875 31.25 12.5 22.84375 
Q 14.453125 14.453125 18.9375 10.9375 
Q 23.4375 7.421875 28.125 9.5625 
Q 32.8125 11.71875 34.953125 18.15625 
Q 37.109375 24.609375 37.109375 32.21875 
Q 37.109375 39.84375 36.515625 46.09375 
Q 35.9375 52.34375 33 57.421875 
Q 30.078125 62.5 25.1875 62.6875 
Q 20.3125 62.890625 16.59375 57.8125 
Q 12.890625 52.734375 10.546875 31.25 
z
" id="SimHei-48"/>
      </defs>
      <g transform="translate(68.407912 321.459)scale(0.1 -0.1)">
       <use xlink:href="#SimHei-48"/>
      </g>
     </g>
    </g>
    <g id="xtick_2">
     <g id="line2d_2">
      <g>
       <use style="stroke:#000000;stroke-width:0.8;" x="129.404226" xlink:href="#m042d8121aa" y="307.584"/>
      </g>
     </g>
     <g id="text_2">
      <!-- 20 -->
      <defs>
       <path d="M 4.6875 3.90625 
Q 5.078125 9.765625 10.15625 14.453125 
Q 15.234375 19.140625 23.046875 29.09375 
Q 30.859375 39.0625 33.203125 44.53125 
Q 35.546875 50 34.953125 53.90625 
Q 34.375 57.8125 31.25 60.34375 
Q 28.125 62.890625 24.015625 62.5 
Q 19.921875 62.109375 16.203125 59.375 
Q 12.5 56.640625 10.546875 51.171875 
L 3.125 52.34375 
Q 6.25 61.328125 11.125 65.421875 
Q 16.015625 69.53125 22.65625 69.921875 
Q 26.5625 70.3125 29.6875 69.71875 
Q 32.8125 69.140625 36.125 66.984375 
Q 39.453125 64.84375 41.59375 60.546875 
Q 43.75 56.25 43.15625 50.1875 
Q 42.578125 44.140625 37.109375 35.734375 
Q 31.640625 27.34375 16.015625 9.375 
L 44.140625 9.375 
L 44.140625 2.34375 
L 4.6875 2.34375 
z
" id="SimHei-50"/>
      </defs>
      <g transform="translate(124.404226 321.459)scale(0.1 -0.1)">
       <use xlink:href="#SimHei-50"/>
       <use x="50" xlink:href="#SimHei-48"/>
      </g>
     </g>
    </g>
    <g id="xtick_3">
     <g id="line2d_3">
      <g>
       <use style="stroke:#000000;stroke-width:0.8;" x="187.900541" xlink:href="#m042d8121aa" y="307.584"/>
      </g>
     </g>
     <g id="text_3">
      <!-- 40 -->
      <defs>
       <path d="M 31.25 17.1875 
L 1.171875 17.1875 
L 1.171875 23.828125 
L 32.8125 69.53125 
L 38.671875 69.53125 
L 38.671875 23.828125 
L 48.046875 23.828125 
L 48.046875 17.1875 
L 38.671875 17.1875 
L 38.671875 2.34375 
L 31.25 2.34375 
z
M 31.25 23.828125 
L 31.25 54.6875 
L 9.375 23.828125 
z
" id="SimHei-52"/>
      </defs>
      <g transform="translate(182.900541 321.459)scale(0.1 -0.1)">
       <use xlink:href="#SimHei-52"/>
       <use x="50" xlink:href="#SimHei-48"/>
      </g>
     </g>
    </g>
    <g id="xtick_4">
     <g id="line2d_4">
      <g>
       <use style="stroke:#000000;stroke-width:0.8;" x="246.396855" xlink:href="#m042d8121aa" y="307.584"/>
      </g>
     </g>
     <g id="text_4">
      <!-- 60 -->
      <defs>
       <path d="M 3.515625 19.53125 
Q 4.296875 30.859375 6.046875 34.765625 
Q 7.8125 38.671875 11.328125 44.53125 
L 27.34375 69.53125 
L 36.328125 69.53125 
L 19.921875 43.75 
Q 30.46875 46.484375 36.71875 42.96875 
Q 42.96875 39.453125 45.109375 34.953125 
Q 47.265625 30.46875 47.453125 25.1875 
Q 47.65625 19.921875 45.890625 14.84375 
Q 44.140625 9.765625 39.640625 5.65625 
Q 35.15625 1.5625 27.140625 1.171875 
Q 19.140625 0.78125 13.46875 4.09375 
Q 7.8125 7.421875 5.65625 13.46875 
Q 3.515625 19.53125 4.296875 30.859375 
z
M 12.5 16.015625 
Q 19.53125 8.59375 25.390625 8.203125 
Q 31.25 7.8125 35.15625 12.109375 
Q 39.0625 16.40625 39.0625 24.609375 
Q 39.0625 32.8125 34.171875 35.9375 
Q 29.296875 39.0625 23.234375 38.28125 
Q 17.1875 37.5 14.453125 32.421875 
Q 11.71875 27.34375 12.109375 21.671875 
Q 12.5 16.015625 19.53125 8.59375 
z
" id="SimHei-54"/>
      </defs>
      <g transform="translate(241.396855 321.459)scale(0.1 -0.1)">
       <use xlink:href="#SimHei-54"/>
       <use x="50" xlink:href="#SimHei-48"/>
      </g>
     </g>
    </g>
    <g id="xtick_5">
     <g id="line2d_5">
      <g>
       <use style="stroke:#000000;stroke-width:0.8;" x="304.89317" xlink:href="#m042d8121aa" y="307.584"/>
      </g>
     </g>
     <g id="text_5">
      <!-- 80 -->
      <defs>
       <path d="M 2.734375 16.796875 
Q 2.734375 26.171875 5.078125 30.65625 
Q 7.421875 35.15625 12.890625 37.890625 
Q 8.203125 40.625 6.640625 43.9375 
Q 5.078125 47.265625 4.875 51.5625 
Q 4.6875 55.859375 6.046875 58.984375 
Q 7.421875 62.109375 10.15625 64.84375 
Q 12.890625 67.578125 16.203125 68.546875 
Q 19.53125 69.53125 23.4375 69.53125 
Q 27.34375 69.53125 30.46875 68.75 
Q 33.59375 67.96875 37.109375 65.421875 
Q 40.625 62.890625 42.1875 58.203125 
Q 43.75 53.515625 41.984375 47.265625 
Q 40.234375 41.015625 32.8125 37.5 
Q 39.453125 35.546875 42.1875 31.4375 
Q 44.921875 27.34375 44.921875 21.484375 
Q 44.921875 15.625 43.15625 12.109375 
Q 41.40625 8.59375 39.25 6.25 
Q 37.109375 3.90625 33.390625 2.53125 
Q 29.6875 1.171875 24.015625 1.171875 
Q 18.359375 1.171875 14.25 2.53125 
Q 10.15625 3.90625 7.421875 6.640625 
Q 4.6875 9.375 3.703125 13.078125 
Q 2.734375 16.796875 2.734375 26.171875 
z
M 10.9375 26.5625 
Q 10.546875 17.1875 12.296875 13.671875 
Q 14.0625 10.15625 18.75 9.171875 
Q 23.4375 8.203125 28.515625 9.375 
Q 33.59375 10.546875 35.546875 14.84375 
Q 37.5 19.140625 36.90625 23.4375 
Q 36.328125 27.734375 32.03125 30.65625 
Q 27.734375 33.59375 22.65625 33.203125 
Q 17.578125 32.8125 14.25 29.6875 
Q 10.9375 26.5625 10.546875 17.1875 
z
M 12.109375 56.25 
Q 12.109375 48.4375 14.84375 44.921875 
Q 17.578125 41.40625 23.4375 41.40625 
Q 29.296875 41.40625 32.21875 44.921875 
Q 35.15625 48.4375 34.953125 53.3125 
Q 34.765625 58.203125 31.4375 60.546875 
Q 28.125 62.890625 22.453125 62.5 
Q 16.796875 62.109375 14.453125 59.171875 
Q 12.109375 56.25 12.109375 48.4375 
z
" id="SimHei-56"/>
      </defs>
      <g transform="translate(299.89317 321.459)scale(0.1 -0.1)">
       <use xlink:href="#SimHei-56"/>
       <use x="50" xlink:href="#SimHei-48"/>
      </g>
     </g>
    </g>
    <g id="xtick_6">
     <g id="line2d_6">
      <g>
       <use style="stroke:#000000;stroke-width:0.8;" x="363.389484" xlink:href="#m042d8121aa" y="307.584"/>
      </g>
     </g>
     <g id="text_6">
      <!-- 100 -->
      <defs>
       <path d="M 21.875 56.25 
Q 16.796875 51.171875 8.984375 46.484375 
L 8.984375 53.90625 
Q 18.75 60.546875 25 69.53125 
L 29.6875 69.53125 
L 29.6875 2.34375 
L 21.875 2.34375 
z
" id="SimHei-49"/>
      </defs>
      <g transform="translate(355.889484 321.459)scale(0.1 -0.1)">
       <use xlink:href="#SimHei-49"/>
       <use x="50" xlink:href="#SimHei-48"/>
       <use x="100" xlink:href="#SimHei-48"/>
      </g>
     </g>
    </g>
    <g id="text_7">
     <!-- 从新版本开始的天数 -->
     <defs>
      <path d="M 68.75 78.125 
Q 67.96875 73.828125 67.765625 68.75 
Q 67.578125 63.671875 68.15625 50.390625 
Q 68.75 37.109375 76.5625 22.0625 
Q 84.375 7.03125 95.3125 -0.78125 
Q 91.015625 -4.6875 88.671875 -8.203125 
Q 71.09375 7.8125 64.453125 33.59375 
Q 58.984375 8.59375 39.0625 -9.765625 
Q 36.328125 -6.640625 32.421875 -4.296875 
Q 44.53125 5.078125 50.78125 17.578125 
Q 57.03125 30.078125 58.59375 41.984375 
Q 60.15625 53.90625 59.375 79.296875 
Q 64.0625 78.515625 68.75 78.125 
z
M 33.984375 76.5625 
Q 33.203125 71.484375 32.421875 40.625 
Q 46.09375 26.5625 50.390625 21.09375 
Q 46.484375 18.75 43.75 14.84375 
Q 41.015625 20.3125 30.859375 32.03125 
Q 27.34375 14.0625 10.15625 -5.078125 
Q 9.375 -3.125 3.90625 0.390625 
Q 16.40625 12.890625 20.890625 25 
Q 25.390625 37.109375 25.390625 55.078125 
Q 25.390625 73.046875 25 77.734375 
Q 30.078125 76.5625 33.984375 76.5625 
z
" id="SimHei-20174"/>
      <path d="M 95.703125 72.65625 
Q 89.84375 72.65625 66.796875 70.3125 
L 66.796875 50.390625 
L 87.109375 50.390625 
Q 91.40625 50.390625 96.09375 50.78125 
L 96.09375 43.359375 
Q 90.625 43.75 86.71875 43.75 
L 86.71875 3.515625 
Q 86.71875 -3.125 87.109375 -10.546875 
L 78.90625 -10.546875 
Q 79.296875 -3.125 79.296875 3.125 
L 79.296875 43.75 
L 66.796875 43.75 
Q 66.796875 33.984375 66.015625 25 
Q 65.234375 16.015625 62.6875 7.21875 
Q 60.15625 -1.5625 55.078125 -10.9375 
Q 51.171875 -8.59375 47.265625 -7.03125 
Q 53.515625 1.953125 56.046875 11.90625 
Q 58.59375 21.875 58.984375 29.296875 
Q 59.375 36.71875 59.375 51.5625 
Q 59.375 66.796875 58.984375 75.78125 
Q 76.5625 76.5625 90.625 81.25 
Q 93.75 75 95.703125 72.65625 
z
M 46.484375 59.765625 
Q 43.75 58.203125 40.234375 47.65625 
Q 46.875 47.65625 53.90625 48.046875 
L 53.90625 40.234375 
Q 47.265625 40.625 33.984375 40.625 
L 33.984375 30.859375 
Q 46.09375 30.859375 53.125 31.25 
L 53.125 23.4375 
Q 46.09375 23.828125 33.984375 23.828125 
L 33.984375 0 
Q 33.984375 -5.859375 30.265625 -7.8125 
Q 26.5625 -9.765625 20.703125 -9.765625 
Q 19.140625 -5.078125 16.796875 -1.171875 
Q 22.265625 -1.5625 24.40625 -1.171875 
Q 26.5625 -0.78125 26.5625 2.34375 
L 26.5625 23.828125 
Q 14.0625 23.828125 7.03125 23.4375 
L 7.03125 31.25 
Q 14.453125 30.859375 26.5625 30.859375 
L 26.5625 40.625 
Q 12.109375 40.625 5.078125 40.234375 
L 5.078125 48.046875 
Q 12.109375 47.65625 18.359375 47.65625 
L 33.203125 47.65625 
Q 36.328125 57.03125 37.890625 62.109375 
Q 41.015625 61.328125 46.484375 59.765625 
z
M 33.203125 82.421875 
Q 35.15625 74.21875 35.546875 71.09375 
Q 44.53125 71.09375 52.34375 71.484375 
L 52.34375 63.671875 
Q 44.140625 64.0625 39.0625 64.0625 
L 20.3125 64.0625 
Q 13.671875 64.0625 7.421875 63.671875 
L 7.421875 71.484375 
Q 14.0625 71.09375 20.3125 71.09375 
L 27.34375 71.09375 
Q 26.5625 75.390625 25 80.078125 
Q 28.90625 81.25 33.203125 82.421875 
z
M 23.828125 16.40625 
Q 21.484375 13.671875 18.359375 9.5625 
Q 15.234375 5.46875 9.375 -1.953125 
Q 6.640625 0.78125 3.515625 2.734375 
Q 11.71875 11.71875 16.40625 21.484375 
Q 20.3125 18.359375 23.828125 16.40625 
z
M 42.578125 20.3125 
Q 47.265625 14.0625 51.171875 7.421875 
Q 47.265625 5.46875 44.921875 2.34375 
Q 41.796875 9.375 36.71875 16.015625 
Q 39.453125 18.359375 42.578125 20.3125 
z
M 19.921875 61.71875 
Q 22.65625 56.25 24.609375 50.78125 
Q 21.09375 50 17.96875 48.4375 
Q 16.015625 54.296875 13.671875 58.984375 
Q 16.40625 60.546875 19.921875 61.71875 
z
" id="SimHei-26032"/>
      <path d="M 88.28125 78.90625 
Q 90.234375 73.828125 92.578125 71.09375 
Q 84.765625 70.3125 76.359375 69.328125 
Q 67.96875 68.359375 55.859375 67.578125 
L 55.859375 53.125 
L 89.0625 53.125 
Q 87.5 40.234375 84.953125 28.515625 
Q 82.421875 16.796875 77.34375 7.8125 
Q 80.859375 4.296875 85.734375 1.359375 
Q 90.625 -1.5625 95.3125 -3.125 
Q 92.1875 -5.46875 89.0625 -10.15625 
Q 84.765625 -7.421875 80.46875 -4.09375 
Q 76.171875 -0.78125 73.046875 2.34375 
Q 66.796875 -4.296875 56.640625 -10.546875 
Q 53.90625 -7.421875 50.390625 -4.296875 
Q 60.546875 -0.390625 68.359375 8.59375 
Q 64.84375 15.234375 62.109375 23.828125 
Q 59.765625 32.03125 58.203125 47.265625 
L 55.859375 47.265625 
Q 55.46875 27.34375 53.125 16.015625 
Q 50.78125 4.6875 45.3125 -5.078125 
Q 41.40625 -1.953125 38.28125 -1.171875 
Q 42.1875 3.515625 44.921875 12.109375 
Q 47.65625 20.703125 48.4375 30.46875 
Q 49.21875 40.625 49.21875 53.125 
Q 49.21875 66.015625 48.4375 73.828125 
Q 59.375 73.4375 70.5 75 
Q 81.640625 76.5625 88.28125 78.90625 
z
M 19.921875 76.5625 
Q 19.140625 70.3125 19.140625 64.84375 
L 19.140625 51.171875 
L 28.90625 51.171875 
L 28.90625 69.53125 
Q 28.90625 73.828125 28.515625 78.90625 
L 35.9375 78.90625 
Q 35.546875 74.609375 35.546875 69.53125 
L 35.546875 51.171875 
Q 40.234375 51.171875 43.75 51.5625 
L 43.75 44.921875 
Q 39.453125 45.3125 34.765625 45.3125 
L 19.140625 45.3125 
L 19.140625 32.421875 
L 37.890625 32.421875 
Q 37.5 26.953125 37.5 17.1875 
L 37.5 -7.03125 
L 30.46875 -7.03125 
Q 30.859375 6.640625 30.859375 26.5625 
L 19.140625 26.5625 
Q 18.75 17.578125 17.1875 9.171875 
Q 15.625 0.78125 12.109375 -8.203125 
Q 9.375 -6.25 4.6875 -4.6875 
Q 12.5 8.984375 12.5 37.109375 
Q 12.5 65.625 12.109375 77.734375 
Q 16.015625 76.953125 19.921875 76.5625 
z
M 64.84375 47.265625 
Q 66.015625 36.71875 67.96875 28.125 
Q 70.3125 19.140625 73.046875 14.453125 
Q 78.515625 26.5625 80.859375 47.265625 
L 64.84375 47.265625 
z
" id="SimHei-29256"/>
      <path d="M 46.09375 61.328125 
L 46.09375 69.140625 
Q 46.09375 75.390625 45.703125 80.859375 
L 54.296875 80.859375 
Q 53.90625 76.5625 53.90625 69.53125 
L 53.90625 61.328125 
L 75.78125 61.328125 
Q 82.421875 61.328125 91.40625 61.71875 
L 91.40625 54.296875 
Q 82.8125 54.6875 76.171875 54.6875 
L 60.15625 54.6875 
Q 65.625 36.71875 75.96875 26.359375 
Q 86.328125 16.015625 94.921875 12.5 
Q 91.40625 9.765625 88.28125 5.078125 
Q 75 14.0625 66.59375 25.578125 
Q 58.203125 37.109375 53.90625 52.34375 
L 53.90625 15.625 
L 58.984375 15.625 
Q 65.234375 15.625 71.875 16.015625 
L 71.875 8.59375 
Q 65.234375 8.984375 58.59375 8.984375 
L 53.90625 8.984375 
Q 53.90625 0 54.296875 -9.375 
L 45.703125 -9.375 
Q 46.09375 0 46.09375 8.984375 
L 41.015625 8.984375 
Q 34.765625 8.984375 28.515625 8.59375 
L 28.515625 16.015625 
Q 34.765625 15.625 41.015625 15.625 
L 46.09375 15.625 
L 46.09375 51.5625 
Q 39.84375 35.546875 32.21875 24.609375 
Q 24.609375 13.671875 11.71875 2.734375 
Q 8.59375 7.03125 4.296875 8.984375 
Q 17.1875 16.796875 25.78125 28.515625 
Q 34.375 40.234375 39.453125 54.6875 
L 22.265625 54.6875 
Q 16.015625 54.6875 8.984375 54.296875 
L 8.984375 61.71875 
Q 16.015625 61.328125 21.875 61.328125 
z
" id="SimHei-26412"/>
      <path d="M 34.375 69.53125 
Q 22.65625 69.53125 12.5 69.140625 
L 12.5 76.953125 
Q 22.265625 76.5625 30.46875 76.5625 
L 72.65625 76.5625 
Q 80.46875 76.5625 89.453125 76.953125 
L 89.453125 69.140625 
Q 80.859375 69.53125 70.3125 69.53125 
L 70.3125 40.625 
L 77.734375 40.625 
Q 85.546875 40.625 94.53125 41.015625 
L 94.53125 33.203125 
Q 85.546875 33.984375 77.734375 33.984375 
L 70.3125 33.984375 
L 70.3125 12.890625 
Q 70.3125 3.125 70.703125 -8.984375 
L 61.71875 -8.984375 
Q 62.109375 3.125 62.109375 12.890625 
L 62.109375 33.984375 
L 42.578125 33.984375 
Q 41.40625 26.5625 39.453125 20.109375 
Q 37.5 13.671875 33.203125 7.03125 
Q 28.90625 0.390625 17.1875 -8.984375 
Q 14.0625 -5.46875 7.8125 -2.34375 
Q 15.625 0.78125 21.28125 6.4375 
Q 26.953125 12.109375 30.265625 19.71875 
Q 33.59375 27.34375 33.984375 33.984375 
L 25 33.984375 
Q 14.84375 33.984375 5.46875 32.8125 
L 5.46875 41.015625 
Q 15.234375 40.625 25 40.625 
L 34.375 40.625 
L 34.375 69.53125 
z
M 62.109375 40.625 
L 62.109375 69.53125 
L 42.578125 69.53125 
L 42.578125 40.625 
z
" id="SimHei-24320"/>
      <path d="M 27.34375 79.296875 
Q 25.78125 76.5625 24.796875 71.671875 
Q 23.828125 66.796875 23.046875 60.546875 
L 39.84375 60.546875 
Q 37.5 33.59375 30.46875 17.1875 
Q 35.546875 13.28125 42.578125 6.640625 
Q 39.84375 4.296875 37.109375 0.78125 
Q 31.25 7.8125 27.34375 10.546875 
Q 23.828125 4.296875 19.53125 -0.96875 
Q 15.234375 -6.25 10.9375 -10.546875 
Q 9.375 -8.203125 3.90625 -5.46875 
Q 8.984375 -1.953125 13.46875 3.125 
Q 17.96875 8.203125 21.484375 15.234375 
Q 12.5 21.875 7.8125 24.21875 
Q 13.671875 45.703125 14.84375 53.515625 
Q 10.15625 53.515625 5.078125 53.125 
L 5.078125 60.9375 
Q 10.546875 60.546875 16.015625 60.546875 
Q 18.359375 75.390625 18.359375 81.640625 
Q 24.21875 80.078125 27.34375 79.296875 
z
M 89.453125 32.03125 
Q 89.0625 25.78125 89.0625 10.15625 
Q 89.0625 -5.078125 89.453125 -10.15625 
L 81.25 -10.15625 
L 81.25 -1.5625 
L 53.90625 -1.5625 
L 53.90625 -10.546875 
L 46.09375 -10.546875 
Q 46.484375 -4.6875 46.484375 10.546875 
Q 46.484375 25.78125 46.09375 32.03125 
L 89.453125 32.03125 
z
M 68.75 77.34375 
Q 58.59375 60.546875 50.78125 49.21875 
Q 60.546875 49.21875 66.40625 49.609375 
Q 72.265625 50 81.25 50.390625 
Q 76.171875 57.421875 72.265625 60.9375 
Q 75.390625 62.5 78.515625 66.015625 
Q 89.84375 51.5625 95.703125 44.53125 
Q 93.75 43.359375 89.453125 39.84375 
Q 87.109375 43.359375 85.15625 44.921875 
Q 71.484375 44.140625 61.515625 43.15625 
Q 51.5625 42.1875 44.140625 40.234375 
Q 43.359375 43.75 40.625 48.4375 
Q 44.921875 50.390625 50.578125 60.15625 
Q 56.25 69.921875 59.765625 81.25 
Q 62.890625 78.90625 68.75 77.34375 
z
M 81.25 5.078125 
L 81.25 25 
L 53.90625 25 
L 53.90625 5.078125 
z
M 16.015625 27.734375 
Q 20.3125 24.21875 24.609375 21.875 
Q 26.953125 26.953125 29.296875 36.515625 
Q 31.640625 46.09375 32.03125 53.515625 
L 21.875 53.515625 
Q 20.3125 46.09375 16.015625 27.734375 
z
" id="SimHei-22987"/>
      <path d="M 32.8125 77.734375 
Q 30.859375 74.21875 27.34375 61.71875 
L 44.921875 61.71875 
Q 44.53125 55.078125 44.53125 44.921875 
L 44.53125 10.546875 
Q 44.53125 4.6875 44.921875 -6.25 
L 37.109375 -6.25 
L 37.109375 1.5625 
L 17.1875 1.5625 
L 17.1875 -7.03125 
L 9.375 -7.03125 
Q 9.765625 5.46875 9.765625 8.59375 
L 9.765625 44.53125 
Q 9.765625 55.078125 9.375 61.71875 
L 20.703125 61.71875 
Q 22.65625 70.703125 23.828125 80.46875 
Q 29.296875 78.515625 32.8125 77.734375 
z
M 91.015625 48.046875 
Q 90.625 24.21875 89.0625 2.734375 
Q 88.28125 -4.296875 81.640625 -6.640625 
Q 75 -8.984375 66.796875 -9.765625 
Q 66.40625 -5.46875 63.28125 -0.78125 
Q 71.09375 -1.171875 75.578125 -0.390625 
Q 80.078125 0.390625 81.25 3.125 
Q 82.421875 5.859375 83 19.140625 
Q 83.59375 32.421875 83.984375 56.25 
L 61.328125 56.25 
Q 58.203125 48.828125 52.34375 38.671875 
Q 49.609375 41.40625 45.703125 42.96875 
Q 49.21875 47.65625 52.34375 54.296875 
Q 55.46875 60.9375 57.8125 68.75 
Q 60.15625 76.5625 60.546875 80.859375 
Q 66.015625 78.515625 69.921875 77.34375 
Q 67.96875 74.21875 66.59375 70.5 
Q 65.234375 66.796875 63.671875 63.28125 
L 91.40625 63.28125 
Q 91.015625 55.078125 91.015625 48.046875 
z
M 37.109375 8.203125 
L 37.109375 28.90625 
L 17.1875 28.90625 
L 17.1875 8.203125 
z
M 37.109375 35.546875 
L 37.109375 55.078125 
L 17.1875 55.078125 
L 17.1875 35.546875 
z
M 67.96875 32.03125 
Q 70.3125 27.34375 73.4375 19.921875 
Q 70.703125 18.75 66.015625 16.015625 
Q 63.28125 23.4375 60.9375 28.703125 
Q 58.59375 33.984375 56.25 37.5 
Q 58.984375 39.0625 63.28125 41.40625 
z
" id="SimHei-30340"/>
      <path d="M 69.921875 76.5625 
Q 76.953125 76.5625 83.984375 76.953125 
L 83.984375 68.75 
Q 76.953125 69.140625 69.921875 69.140625 
L 53.90625 69.140625 
L 53.90625 48.046875 
L 78.90625 48.046875 
Q 86.328125 48.046875 92.1875 48.4375 
L 92.1875 40.234375 
Q 86.71875 40.625 79.296875 40.625 
L 55.078125 40.625 
Q 60.546875 25.78125 70.703125 15.234375 
Q 80.859375 4.6875 96.875 0.78125 
Q 91.40625 -3.515625 90.234375 -7.03125 
Q 78.125 -2.734375 67.96875 6.4375 
Q 57.8125 15.625 50.390625 32.8125 
Q 45.703125 16.796875 35.546875 7.21875 
Q 25.390625 -2.34375 10.15625 -8.984375 
Q 8.59375 -5.078125 3.515625 -1.5625 
Q 14.84375 1.5625 27.34375 11.515625 
Q 39.84375 21.484375 44.921875 40.625 
L 23.4375 40.625 
Q 14.84375 40.625 8.984375 40.234375 
L 8.984375 48.4375 
Q 15.234375 48.046875 23.4375 48.046875 
L 46.09375 48.046875 
L 46.09375 69.140625 
L 29.6875 69.140625 
Q 21.484375 69.140625 15.625 68.75 
L 15.625 76.953125 
Q 21.875 76.5625 29.6875 76.5625 
z
" id="SimHei-22825"/>
      <path d="M 70.703125 76.953125 
Q 69.921875 75 68.75 71.671875 
Q 67.578125 68.359375 65.234375 59.765625 
L 83.203125 59.765625 
Q 87.109375 59.765625 92.578125 60.15625 
L 92.578125 53.125 
Q 88.28125 53.515625 85.9375 53.515625 
Q 85.9375 47.265625 83.78125 33.78125 
Q 81.640625 20.3125 76.171875 10.546875 
Q 80.078125 5.859375 84.953125 2.140625 
Q 89.84375 -1.5625 94.140625 -3.125 
Q 89.453125 -6.640625 87.890625 -9.765625 
Q 83.203125 -7.03125 79.296875 -3.515625 
Q 75.390625 0 71.484375 5.078125 
Q 67.1875 0.390625 62.296875 -2.921875 
Q 57.421875 -6.25 50 -10.15625 
Q 48.046875 -6.640625 44.53125 -4.6875 
Q 50.390625 -2.34375 57.03125 1.953125 
Q 63.671875 6.25 67.1875 10.546875 
Q 64.453125 16.015625 61.90625 22.265625 
Q 59.375 28.515625 57.421875 38.671875 
Q 56.25 35.546875 53.515625 30.46875 
Q 50.78125 32.03125 46.875 33.59375 
Q 53.125 44.53125 57.03125 57.421875 
Q 60.9375 70.3125 62.109375 79.6875 
Q 66.796875 77.734375 70.703125 76.953125 
z
M 32.8125 35.15625 
Q 31.25 33.59375 29.296875 30.078125 
L 50.78125 30.078125 
Q 48.4375 20.3125 42.578125 10.546875 
Q 48.828125 8.203125 52.34375 6.25 
Q 50.390625 3.515625 48.828125 0.390625 
Q 45.3125 2.734375 38.28125 5.078125 
Q 30.46875 -3.515625 11.328125 -10.15625 
Q 9.375 -5.859375 6.25 -4.296875 
Q 24.609375 0 31.25 7.421875 
Q 20.3125 10.15625 13.28125 12.109375 
Q 15.625 15.625 19.53125 23.828125 
Q 15.625 23.828125 6.640625 23.4375 
L 6.640625 30.46875 
Q 14.0625 30.078125 21.875 30.078125 
Q 23.4375 33.59375 24.21875 37.890625 
Q 28.515625 36.328125 32.8125 35.15625 
z
M 27.734375 61.71875 
Q 27.734375 71.09375 27.34375 79.6875 
L 35.15625 79.6875 
Q 34.765625 71.484375 34.765625 61.71875 
Q 48.046875 61.71875 53.515625 62.109375 
L 53.515625 55.078125 
Q 48.046875 55.46875 34.765625 55.46875 
Q 34.765625 44.140625 35.15625 37.890625 
L 27.34375 37.890625 
Q 27.734375 43.359375 27.734375 51.5625 
Q 25.78125 48.4375 20.3125 43.546875 
Q 14.84375 38.671875 10.15625 35.9375 
Q 8.203125 39.453125 4.296875 41.015625 
Q 7.8125 42.1875 13.671875 46.484375 
Q 19.53125 50.78125 22.65625 55.46875 
Q 14.84375 55.46875 7.8125 55.078125 
L 7.8125 62.109375 
Q 14.453125 61.71875 27.734375 61.71875 
z
M 62.109375 49.609375 
Q 65.625 26.5625 71.875 17.578125 
Q 75.78125 26.5625 77.140625 35.734375 
Q 78.515625 44.921875 78.90625 53.515625 
L 63.671875 53.515625 
L 62.109375 49.609375 
z
M 22.65625 15.625 
Q 27.34375 14.453125 35.546875 12.5 
Q 38.671875 16.40625 41.40625 23.828125 
L 26.953125 23.828125 
Q 25 19.921875 22.65625 15.625 
z
M 51.953125 75.390625 
Q 50 72.265625 48.828125 69.53125 
Q 47.65625 66.796875 45.703125 62.890625 
Q 42.578125 64.453125 39.453125 65.234375 
Q 42.578125 70.3125 45.3125 78.125 
Q 49.21875 76.171875 51.953125 75.390625 
z
M 40.234375 52.734375 
Q 45.3125 47.65625 50 42.578125 
Q 47.65625 40.625 44.921875 37.890625 
Q 39.453125 44.53125 35.9375 48.4375 
Q 38.28125 50.390625 40.234375 52.734375 
z
M 14.453125 78.125 
Q 19.921875 72.65625 23.4375 67.1875 
L 17.578125 63.671875 
Q 14.84375 69.140625 9.375 73.828125 
Q 12.890625 76.171875 14.453125 78.125 
z
" id="SimHei-25968"/>
     </defs>
     <g transform="translate(191.16 334.794937)scale(0.1 -0.1)">
      <use xlink:href="#SimHei-20174"/>
      <use x="100" xlink:href="#SimHei-26032"/>
      <use x="200" xlink:href="#SimHei-29256"/>
      <use x="300" xlink:href="#SimHei-26412"/>
      <use x="400" xlink:href="#SimHei-24320"/>
      <use x="500" xlink:href="#SimHei-22987"/>
      <use x="600" xlink:href="#SimHei-30340"/>
      <use x="700" xlink:href="#SimHei-22825"/>
      <use x="800" xlink:href="#SimHei-25968"/>
     </g>
    </g>
   </g>
   <g id="matplotlib.axis_2">
    <g id="ytick_1">
     <g id="line2d_7">
      <defs>
       <path d="M 0 0 
L -3.5 0 
" id="m89f6221a9a" style="stroke:#000000;stroke-width:0.8;"/>
      </defs>
      <g>
       <use style="stroke:#000000;stroke-width:0.8;" x="57.6" xlink:href="#m89f6221a9a" y="297.6281"/>
      </g>
     </g>
     <g id="text_8">
      <!-- 0 -->
      <g transform="translate(45.6 301.0656)scale(0.1 -0.1)">
       <use xlink:href="#SimHei-48"/>
      </g>
     </g>
    </g>
    <g id="ytick_2">
     <g id="line2d_8">
      <g>
       <use style="stroke:#000000;stroke-width:0.8;" x="57.6" xlink:href="#m89f6221a9a" y="262.444716"/>
      </g>
     </g>
     <g id="text_9">
      <!-- 2500 -->
      <defs>
       <path d="M 8.59375 20.703125 
Q 11.328125 10.15625 17.96875 8.984375 
Q 24.609375 7.8125 28.703125 10.34375 
Q 32.8125 12.890625 34.5625 16.984375 
Q 36.328125 21.09375 36.125 26.171875 
Q 35.9375 31.25 33.390625 34.765625 
Q 30.859375 38.28125 26.953125 39.453125 
Q 23.046875 40.625 18.15625 39.453125 
Q 13.28125 38.28125 10.15625 33.984375 
L 3.515625 34.765625 
Q 4.296875 37.109375 10.9375 68.359375 
L 41.796875 68.359375 
L 41.796875 61.328125 
L 16.796875 61.328125 
Q 14.84375 50.78125 12.890625 44.53125 
Q 18.75 47.265625 23.828125 47.0625 
Q 28.90625 46.875 33.59375 44.71875 
Q 38.28125 42.578125 40.421875 38.859375 
Q 42.578125 35.15625 43.546875 31.4375 
Q 44.53125 27.734375 44.328125 23.4375 
Q 44.140625 19.140625 42.578125 14.640625 
Q 41.015625 10.15625 37.890625 7.21875 
Q 34.765625 4.296875 30.265625 2.53125 
Q 25.78125 0.78125 19.921875 1.171875 
Q 14.0625 1.5625 8.78125 5.46875 
Q 3.515625 9.375 1.5625 18.75 
z
" id="SimHei-53"/>
      </defs>
      <g transform="translate(30.6 265.882216)scale(0.1 -0.1)">
       <use xlink:href="#SimHei-50"/>
       <use x="50" xlink:href="#SimHei-53"/>
       <use x="100" xlink:href="#SimHei-48"/>
       <use x="150" xlink:href="#SimHei-48"/>
      </g>
     </g>
    </g>
    <g id="ytick_3">
     <g id="line2d_9">
      <g>
       <use style="stroke:#000000;stroke-width:0.8;" x="57.6" xlink:href="#m89f6221a9a" y="227.261331"/>
      </g>
     </g>
     <g id="text_10">
      <!-- 5000 -->
      <g transform="translate(30.6 230.698831)scale(0.1 -0.1)">
       <use xlink:href="#SimHei-53"/>
       <use x="50" xlink:href="#SimHei-48"/>
       <use x="100" xlink:href="#SimHei-48"/>
       <use x="150" xlink:href="#SimHei-48"/>
      </g>
     </g>
    </g>
    <g id="ytick_4">
     <g id="line2d_10">
      <g>
       <use style="stroke:#000000;stroke-width:0.8;" x="57.6" xlink:href="#m89f6221a9a" y="192.077947"/>
      </g>
     </g>
     <g id="text_11">
      <!-- 7500 -->
      <defs>
       <path d="M 13.28125 2.34375 
Q 20.3125 32.03125 37.890625 61.328125 
L 4.296875 61.328125 
L 4.296875 68.359375 
L 46.09375 68.359375 
L 46.09375 61.71875 
Q 27.734375 32.03125 21.875 2.34375 
L 13.28125 2.34375 
z
" id="SimHei-55"/>
      </defs>
      <g transform="translate(30.6 195.515447)scale(0.1 -0.1)">
       <use xlink:href="#SimHei-55"/>
       <use x="50" xlink:href="#SimHei-53"/>
       <use x="100" xlink:href="#SimHei-48"/>
       <use x="150" xlink:href="#SimHei-48"/>
      </g>
     </g>
    </g>
    <g id="ytick_5">
     <g id="line2d_11">
      <g>
       <use style="stroke:#000000;stroke-width:0.8;" x="57.6" xlink:href="#m89f6221a9a" y="156.894563"/>
      </g>
     </g>
     <g id="text_12">
      <!-- 10000 -->
      <g transform="translate(25.6 160.332063)scale(0.1 -0.1)">
       <use xlink:href="#SimHei-49"/>
       <use x="50" xlink:href="#SimHei-48"/>
       <use x="100" xlink:href="#SimHei-48"/>
       <use x="150" xlink:href="#SimHei-48"/>
       <use x="200" xlink:href="#SimHei-48"/>
      </g>
     </g>
    </g>
    <g id="ytick_6">
     <g id="line2d_12">
      <g>
       <use style="stroke:#000000;stroke-width:0.8;" x="57.6" xlink:href="#m89f6221a9a" y="121.711179"/>
      </g>
     </g>
     <g id="text_13">
      <!-- 12500 -->
      <g transform="translate(25.6 125.148679)scale(0.1 -0.1)">
       <use xlink:href="#SimHei-49"/>
       <use x="50" xlink:href="#SimHei-50"/>
       <use x="100" xlink:href="#SimHei-53"/>
       <use x="150" xlink:href="#SimHei-48"/>
       <use x="200" xlink:href="#SimHei-48"/>
      </g>
     </g>
    </g>
    <g id="ytick_7">
     <g id="line2d_13">
      <g>
       <use style="stroke:#000000;stroke-width:0.8;" x="57.6" xlink:href="#m89f6221a9a" y="86.527794"/>
      </g>
     </g>
     <g id="text_14">
      <!-- 15000 -->
      <g transform="translate(25.6 89.965294)scale(0.1 -0.1)">
       <use xlink:href="#SimHei-49"/>
       <use x="50" xlink:href="#SimHei-53"/>
       <use x="100" xlink:href="#SimHei-48"/>
       <use x="150" xlink:href="#SimHei-48"/>
       <use x="200" xlink:href="#SimHei-48"/>
      </g>
     </g>
    </g>
    <g id="ytick_8">
     <g id="line2d_14">
      <g>
       <use style="stroke:#000000;stroke-width:0.8;" x="57.6" xlink:href="#m89f6221a9a" y="51.34441"/>
      </g>
     </g>
     <g id="text_15">
      <!-- 17500 -->
      <g transform="translate(25.6 54.78191)scale(0.1 -0.1)">
       <use xlink:href="#SimHei-49"/>
       <use x="50" xlink:href="#SimHei-55"/>
       <use x="100" xlink:href="#SimHei-53"/>
       <use x="150" xlink:href="#SimHei-48"/>
       <use x="200" xlink:href="#SimHei-48"/>
      </g>
     </g>
    </g>
    <g id="text_16">
     <!-- 金币值 -->
     <defs>
      <path d="M 28.125 19.53125 
Q 34.375 10.9375 39.0625 3.515625 
Q 36.328125 1.953125 33.59375 -0.78125 
L 45.703125 -0.78125 
L 45.703125 21.875 
L 32.421875 21.875 
Q 26.953125 21.875 17.1875 21.484375 
L 17.1875 28.90625 
Q 26.953125 28.515625 32.03125 28.515625 
L 45.703125 28.515625 
L 45.703125 40.625 
Q 32.8125 40.625 25.390625 40.234375 
L 25.390625 46.484375 
Q 19.140625 41.796875 10.15625 36.71875 
Q 7.8125 40.234375 4.296875 43.359375 
Q 11.71875 46.09375 19.53125 51.5625 
Q 27.34375 57.03125 34.765625 65.03125 
Q 42.1875 73.046875 46.875 82.03125 
Q 47.65625 81.25 55.078125 77.734375 
L 52.734375 75.390625 
Q 57.03125 70.703125 63.28125 64.84375 
Q 69.53125 58.984375 78.125 54.484375 
Q 86.71875 50 96.09375 47.265625 
Q 92.96875 44.140625 91.015625 39.84375 
Q 83.203125 42.578125 75 46.875 
L 75 40.234375 
Q 67.1875 40.625 62.5 40.625 
L 53.125 40.625 
L 53.125 28.515625 
L 66.796875 28.515625 
Q 73.4375 28.515625 83.203125 28.90625 
L 83.203125 21.484375 
Q 73.828125 21.875 66.796875 21.875 
L 53.125 21.875 
L 53.125 -0.78125 
L 60.546875 -0.78125 
Q 69.53125 14.84375 70.3125 20.3125 
Q 73.828125 17.96875 78.90625 15.625 
Q 76.171875 12.109375 68.359375 -0.78125 
Q 80.46875 -0.78125 91.796875 -0.390625 
L 91.796875 -7.8125 
Q 80.46875 -7.421875 73.4375 -7.421875 
L 26.953125 -7.421875 
Q 18.75 -7.421875 10.9375 -7.8125 
L 10.9375 -0.390625 
Q 19.140625 -0.78125 26.953125 -0.78125 
L 31.640625 -0.78125 
Q 28.90625 5.46875 21.875 14.84375 
Q 25.390625 17.1875 28.125 19.53125 
z
M 26.5625 47.65625 
Q 32.421875 47.265625 37.5 47.265625 
L 60.9375 47.265625 
Q 66.796875 47.65625 73.4375 47.65625 
Q 66.796875 52.34375 59.953125 58.78125 
Q 53.125 65.234375 48.828125 70.703125 
Q 44.53125 64.84375 38.46875 58.78125 
Q 32.421875 52.734375 26.5625 47.65625 
z
" id="SimHei-37329"/>
      <path d="M 90.234375 70.3125 
Q 84.765625 69.53125 53.515625 67.578125 
L 53.515625 49.609375 
L 87.109375 49.609375 
Q 86.71875 41.796875 86.71875 33.984375 
L 86.71875 12.890625 
Q 86.71875 4.6875 82.21875 2.921875 
Q 77.734375 1.171875 69.53125 -0.390625 
Q 68.359375 4.296875 65.625 8.59375 
Q 73.4375 8.59375 75.96875 9.375 
Q 78.515625 10.15625 78.515625 15.625 
L 78.515625 42.96875 
L 53.515625 42.96875 
L 53.515625 7.8125 
Q 53.515625 -0.78125 53.90625 -9.375 
L 45.3125 -9.375 
Q 45.703125 -0.78125 45.703125 7.8125 
L 45.703125 42.96875 
L 21.09375 42.96875 
L 21.09375 2.34375 
L 12.5 2.34375 
Q 12.890625 10.9375 12.890625 18.359375 
L 12.890625 33.203125 
Q 12.890625 41.015625 12.5 49.609375 
L 45.703125 49.609375 
L 45.703125 66.796875 
Q 21.484375 66.015625 10.15625 65.234375 
Q 9.375 69.140625 7.421875 72.65625 
Q 21.484375 72.265625 46.484375 73.625 
Q 71.484375 75 85.546875 78.515625 
Q 87.890625 73.828125 90.234375 70.3125 
z
" id="SimHei-24065"/>
      <path d="M 57.421875 69.53125 
L 57.421875 79.6875 
Q 62.109375 79.296875 67.96875 78.90625 
Q 66.015625 76.171875 65.625 69.53125 
L 80.078125 69.53125 
Q 86.71875 69.53125 91.796875 69.921875 
L 91.796875 62.890625 
Q 86.328125 63.28125 80.078125 63.28125 
L 65.234375 63.28125 
L 64.453125 54.6875 
L 84.375 54.6875 
Q 83.984375 50 83.984375 42.1875 
L 83.984375 2.34375 
Q 91.796875 2.34375 95.3125 2.734375 
L 95.3125 -4.296875 
Q 90.234375 -3.90625 81.25 -3.90625 
L 44.53125 -3.90625 
Q 35.546875 -3.90625 29.6875 -4.296875 
L 29.6875 2.734375 
Q 33.203125 2.34375 40.625 2.34375 
L 40.625 42.1875 
Q 40.625 49.609375 40.234375 54.6875 
L 56.25 54.6875 
L 57.03125 63.28125 
L 50 63.28125 
Q 40.234375 63.28125 34.765625 62.890625 
L 34.765625 69.921875 
Q 39.84375 69.53125 50 69.53125 
z
M 34.765625 76.5625 
Q 31.640625 73.046875 25.78125 58.59375 
L 25.78125 7.03125 
Q 25.78125 -1.171875 26.171875 -8.59375 
L 17.96875 -8.59375 
Q 18.359375 -1.953125 18.359375 5.859375 
L 18.359375 46.09375 
Q 13.671875 38.28125 9.765625 33.59375 
Q 6.640625 37.890625 3.90625 40.234375 
Q 7.8125 44.140625 14.640625 55.265625 
Q 21.484375 66.40625 25.390625 80.46875 
Q 30.859375 77.734375 34.765625 76.5625 
z
M 76.953125 41.40625 
L 76.953125 49.21875 
L 48.046875 49.21875 
L 48.046875 41.40625 
z
M 76.953125 2.34375 
L 76.953125 9.765625 
L 48.046875 9.765625 
L 48.046875 2.34375 
z
M 76.953125 15.625 
L 76.953125 22.65625 
L 48.046875 22.65625 
L 48.046875 15.625 
z
M 76.953125 28.515625 
L 76.953125 35.546875 
L 48.046875 35.546875 
L 48.046875 28.515625 
z
" id="SimHei-20540"/>
     </defs>
     <g transform="translate(20.35 189.528)rotate(-90)scale(0.1 -0.1)">
      <use xlink:href="#SimHei-37329"/>
      <use x="100" xlink:href="#SimHei-24065"/>
      <use x="200" xlink:href="#SimHei-20540"/>
     </g>
    </g>
   </g>
   <g id="line2d_15">
    <path clip-path="url(#pd9546d3e44)" d="M 73.832727 295.488 
L 76.757543 293.812416 
L 79.682359 293.032792 
L 82.607174 291.935279 
L 85.53199 291.062292 
L 88.456806 289.600604 
L 91.381622 287.946269 
L 94.306437 286.220948 
L 97.231253 285.627876 
L 100.156069 285.618313 
L 103.080885 284.523047 
L 106.0057 283.22202 
L 108.930516 282.809839 
L 111.855332 282.817618 
L 114.780147 281.887795 
L 117.704963 280.639636 
L 120.629779 280.007804 
L 123.554595 280.121709 
L 126.47941 279.477052 
L 129.404226 278.605747 
L 132.329042 278.726702 
L 135.253857 278.222083 
L 138.178673 276.810697 
L 141.103489 276.379856 
L 144.028305 276.538953 
L 146.95312 275.78194 
L 149.877936 274.347492 
L 152.802752 272.996746 
L 155.727568 272.262504 
L 158.652383 272.295262 
L 161.577199 272.270926 
L 164.502015 271.493769 
L 167.42683 270.256738 
L 170.351646 269.031242 
L 173.276462 268.192002 
L 176.201278 268.01819 
L 179.126093 268.147851 
L 182.050909 267.876142 
L 184.975725 267.001132 
L 187.900541 265.972674 
L 190.825356 265.15375 
L 193.750172 264.37199 
L 196.674988 263.329838 
L 199.599803 262.0955 
L 202.524619 261.147191 
L 205.449435 260.890985 
L 208.374251 261.046508 
L 211.299066 261.028512 
L 214.223882 260.406789 
L 217.148698 259.32177 
L 220.073514 258.043943 
L 222.998329 256.825708 
L 225.923145 255.871432 
L 228.847961 255.377378 
L 231.772776 255.390648 
L 234.697592 255.548834 
L 237.622408 255.419873 
L 240.547224 254.704555 
L 243.472039 253.681217 
L 246.396855 252.785103 
L 249.321671 252.410359 
L 252.246486 252.485722 
L 255.171302 252.645432 
L 258.096118 252.520323 
L 261.020934 251.92275 
L 263.945749 251.035368 
L 266.870565 250.085959 
L 269.795381 249.284579 
L 272.720197 248.619803 
L 275.645012 247.929641 
L 278.569828 247.049227 
L 281.494644 245.870288 
L 284.419459 244.573932 
L 287.344275 243.433509 
L 290.269091 242.722398 
L 293.193907 242.594435 
L 296.118722 242.787431 
L 299.043538 242.948756 
L 301.968354 242.725784 
L 304.89317 241.89397 
L 307.817985 240.695435 
L 310.742801 239.478546 
L 313.667617 238.591671 
L 316.592432 238.307377 
L 319.517248 238.451978 
L 322.442064 238.689043 
L 325.36688 238.6819 
L 328.291695 238.115403 
L 331.216511 237.037739 
L 334.141327 235.799547 
L 337.066143 234.760682 
L 339.990958 234.280543 
L 342.915774 234.384539 
L 345.84059 234.177252 
L 348.765405 233.131393 
L 351.690221 231.850486 
L 354.615037 230.768501 
L 357.539853 229.748316 
L 360.464668 228.682739 
L 363.389484 227.610127 
L 366.3143 226.557772 
L 369.239115 225.515216 
L 372.163931 224.475019 
L 375.088747 223.439661 
L 378.013563 222.411151 
L 380.938378 221.389154 
L 383.863194 220.372776 
L 386.78801 219.360472 
L 389.712826 218.352681 
L 392.637641 217.355001 
L 395.562457 216.370713 
L 398.487273 215.392528 
" style="fill:none;stroke:#1f77b4;stroke-linecap:square;stroke-width:1.5;"/>
   </g>
   <g id="line2d_16">
    <path clip-path="url(#pd9546d3e44)" d="M 73.832727 294.871568 
L 76.757543 293.26873 
L 79.682359 291.904683 
L 82.607174 291.538798 
L 85.53199 289.698229 
L 88.456806 287.742509 
L 91.381622 285.900391 
L 94.306437 285.699314 
L 97.231253 284.99036 
L 100.156069 283.393593 
L 103.080885 282.812684 
L 106.0057 282.699717 
L 108.930516 281.381198 
L 111.855332 280.144287 
L 114.780147 280.106613 
L 117.704963 279.537501 
L 120.629779 278.580059 
L 123.554595 278.73162 
L 126.47941 277.51156 
L 129.404226 276.368683 
L 132.329042 276.549254 
L 135.253857 275.720937 
L 138.178673 274.003242 
L 141.103489 272.588095 
L 144.028305 272.232996 
L 146.95312 272.331244 
L 149.877936 271.527291 
L 152.802752 270.057958 
L 155.727568 268.687946 
L 158.652383 268.020501 
L 161.577199 268.120337 
L 164.502015 267.942313 
L 167.42683 266.925033 
L 170.351646 265.741207 
L 173.276462 264.82255 
L 176.201278 263.764035 
L 179.126093 262.324018 
L 182.050909 261.151406 
L 184.975725 260.905239 
L 187.900541 261.090753 
L 190.825356 260.763027 
L 193.750172 259.645501 
L 196.674988 258.155154 
L 199.599803 256.717724 
L 202.524619 255.677247 
L 205.449435 255.338038 
L 208.374251 255.503978 
L 211.299066 255.479501 
L 214.223882 254.687704 
L 217.148698 253.476015 
L 220.073514 252.565841 
L 222.998329 252.421336 
L 225.923145 252.618405 
L 228.847961 252.542667 
L 231.772776 251.825395 
L 234.697592 250.740806 
L 237.622408 249.666841 
L 240.547224 248.831187 
L 243.472039 248.035253 
L 246.396855 247.005366 
L 249.321671 245.577434 
L 252.246486 244.071571 
L 255.171302 242.941587 
L 258.096118 242.582726 
L 261.020934 242.778551 
L 263.945749 242.948542 
L 266.870565 242.512878 
L 269.795381 241.301095 
L 272.720197 239.826492 
L 275.645012 238.667347 
L 278.569828 238.30739 
L 281.494644 238.51591 
L 284.419459 238.735727 
L 287.344275 238.408768 
L 290.269091 237.274308 
L 293.193907 235.815319 
L 296.118722 234.629143 
L 299.043538 234.287088 
L 301.968354 234.377637 
L 304.89317 233.47644 
L 307.817985 231.961174 
L 310.742801 230.675948 
L 313.667617 229.458805 
L 316.592432 228.188108 
L 319.517248 226.93143 
L 322.442064 225.695175 
L 325.36688 224.463319 
L 328.291695 223.238249 
L 331.216511 222.022729 
L 334.141327 220.81595 
L 337.066143 219.615863 
L 339.990958 218.421509 
L 342.915774 217.240706 
L 345.84059 216.077509 
L 348.765405 214.918988 
L 351.690221 213.756802 
L 354.615037 212.594051 
L 357.539853 211.432242 
L 360.464668 210.270424 
L 363.389484 209.108389 
L 366.3143 207.946389 
L 369.239115 206.784435 
L 372.163931 205.622465 
L 375.088747 204.460487 
L 378.013563 203.298514 
L 380.938378 202.136542 
L 383.863194 200.974569 
L 386.78801 199.812595 
L 389.712826 198.650622 
L 392.637641 197.488649 
L 395.562457 196.326676 
L 398.487273 195.164703 
" style="fill:none;stroke:#ff7f0e;stroke-linecap:square;stroke-width:1.5;"/>
   </g>
   <g id="line2d_17">
    <path clip-path="url(#pd9546d3e44)" d="M 73.832727 294.765727 
L 76.757543 293.411804 
L 79.682359 291.980165 
L 82.607174 290.263137 
L 85.53199 288.256203 
L 88.456806 285.978251 
L 91.381622 285.708444 
L 94.306437 284.601263 
L 97.231253 282.959751 
L 100.156069 282.889253 
L 103.080885 281.826135 
L 106.0057 280.251049 
L 108.930516 280.109845 
L 111.855332 279.30706 
L 114.780147 278.614021 
L 117.704963 278.354845 
L 120.629779 276.552877 
L 123.554595 276.525743 
L 126.47941 275.790031 
L 129.404226 273.818418 
L 132.329042 272.372983 
L 135.253857 272.311554 
L 138.178673 271.997494 
L 141.103489 270.473359 
L 144.028305 268.819526 
L 146.95312 268.014742 
L 149.877936 268.14444 
L 152.802752 267.654144 
L 155.727568 266.294419 
L 158.652383 265.122148 
L 161.577199 263.989809 
L 164.502015 262.361913 
L 167.42683 261.062336 
L 170.351646 260.956404 
L 173.276462 261.058677 
L 176.201278 260.167692 
L 179.126093 258.536617 
L 182.050909 256.840441 
L 184.975725 255.633286 
L 187.900541 255.354045 
L 190.825356 255.555478 
L 193.750172 255.157433 
L 196.674988 253.861087 
L 199.599803 252.662114 
L 202.524619 252.420627 
L 205.449435 252.639406 
L 208.374251 252.385279 
L 211.299066 251.348436 
L 214.223882 250.053793 
L 217.148698 249.008668 
L 220.073514 248.097924 
L 222.998329 246.901518 
L 225.923145 245.209269 
L 228.847961 243.55711 
L 231.772776 242.642502 
L 234.697592 242.696984 
L 237.622408 242.948131 
L 240.547224 242.499408 
L 243.472039 241.052306 
L 246.396855 239.385961 
L 249.321671 238.388463 
L 252.246486 238.409501 
L 255.171302 238.716603 
L 258.096118 238.447954 
L 261.020934 237.128746 
L 263.945749 235.458497 
L 266.870565 234.358627 
L 269.795381 234.387982 
L 272.720197 233.837833 
L 275.645012 232.134674 
L 278.569828 230.63314 
L 281.494644 229.218108 
L 284.419459 227.748916 
L 287.344275 226.309718 
L 290.269091 224.884845 
L 293.193907 223.466795 
L 296.118722 222.061145 
L 299.043538 220.667177 
L 301.968354 219.281715 
L 304.89317 217.906076 
L 307.817985 216.55296 
L 310.742801 215.214255 
L 313.667617 213.872096 
L 316.592432 212.528619 
L 319.517248 211.186271 
L 322.442064 209.843771 
L 325.36688 208.501116 
L 328.291695 207.158546 
L 331.216511 205.815974 
L 334.141327 204.473388 
L 337.066143 203.130807 
L 339.990958 201.788226 
L 342.915774 200.445645 
L 345.84059 199.103064 
L 348.765405 197.760483 
L 351.690221 196.417901 
L 354.615037 195.07532 
L 357.539853 193.732739 
L 360.464668 192.390158 
L 363.389484 191.047577 
L 366.3143 189.704995 
L 369.239115 188.362414 
L 372.163931 187.019833 
L 375.088747 185.677252 
L 378.013563 184.334671 
L 380.938378 182.992089 
L 383.863194 181.649508 
L 386.78801 180.306927 
L 389.712826 178.964346 
L 392.637641 177.621765 
L 395.562457 176.279183 
L 398.487273 174.936602 
" style="fill:none;stroke:#2ca02c;stroke-linecap:square;stroke-width:1.5;"/>
   </g>
   <g id="line2d_18">
    <path clip-path="url(#pd9546d3e44)" d="M 73.832727 294.656207 
L 76.757543 291.989703 
L 79.682359 290.677215 
L 82.607174 288.054392 
L 85.53199 285.656398 
L 88.456806 285.273381 
L 91.381622 283.080091 
L 94.306437 282.857346 
L 97.231253 281.082578 
L 100.156069 280.034423 
L 103.080885 279.368803 
L 106.0057 278.692592 
L 108.930516 277.401587 
L 111.855332 276.44965 
L 114.780147 275.729239 
L 117.704963 273.259813 
L 120.629779 272.224515 
L 123.554595 272.146223 
L 126.47941 270.273869 
L 129.404226 268.365878 
L 132.329042 268.083172 
L 135.253857 267.7406 
L 138.178673 266.03794 
L 141.103489 264.646862 
L 144.028305 262.829056 
L 146.95312 261.06576 
L 149.877936 261.024721 
L 152.802752 260.717739 
L 155.727568 258.884721 
L 158.652383 256.732107 
L 161.577199 255.423502 
L 164.502015 255.488512 
L 167.42683 255.267864 
L 170.351646 253.651226 
L 173.276462 252.44488 
L 176.201278 252.578431 
L 179.126093 252.416729 
L 182.050909 251.060489 
L 184.975725 249.496262 
L 187.900541 248.324938 
L 190.825356 246.855529 
L 193.750172 244.67768 
L 196.674988 242.902531 
L 199.599803 242.651076 
L 202.524619 242.949091 
L 205.449435 242.037504 
L 208.374251 239.946348 
L 211.299066 238.427898 
L 214.223882 238.469816 
L 217.148698 238.718019 
L 220.073514 237.5711 
L 222.998329 235.473308 
L 225.923145 234.279182 
L 228.847961 234.313273 
L 231.772776 232.489812 
L 234.697592 230.541051 
L 237.622408 228.725229 
L 240.547224 226.875278 
L 243.472039 225.064573 
L 246.396855 223.265347 
L 249.321671 221.485813 
L 252.246486 219.723202 
L 255.171302 217.974559 
L 258.096118 216.259447 
L 261.020934 214.559852 
L 263.945749 212.854894 
L 266.870565 211.151263 
L 269.795381 209.447513 
L 272.720197 207.743668 
L 275.645012 206.039892 
L 278.569828 204.336088 
L 281.494644 202.632292 
L 284.419459 200.928495 
L 287.344275 199.224698 
L 290.269091 197.5209 
L 293.193907 195.817103 
L 296.118722 194.113306 
L 299.043538 192.409509 
L 301.968354 190.705711 
L 304.89317 189.001914 
L 307.817985 187.298117 
L 310.742801 185.59432 
L 313.667617 183.890522 
L 316.592432 182.186725 
L 319.517248 180.482928 
L 322.442064 178.77913 
L 325.36688 177.075333 
L 328.291695 175.371536 
L 331.216511 173.667739 
L 334.141327 171.963941 
L 337.066143 170.260144 
L 339.990958 168.556347 
L 342.915774 166.85255 
L 345.84059 165.148752 
L 348.765405 163.444955 
L 351.690221 161.741158 
L 354.615037 160.037361 
L 357.539853 158.333563 
L 360.464668 156.629766 
L 363.389484 154.925969 
L 366.3143 153.222171 
L 369.239115 151.518374 
L 372.163931 149.814577 
L 375.088747 148.11078 
L 378.013563 146.406982 
L 380.938378 144.703185 
L 383.863194 142.999388 
L 386.78801 141.295591 
L 389.712826 139.591793 
L 392.637641 137.887996 
L 395.562457 136.184199 
L 398.487273 134.480402 
" style="fill:none;stroke:#d62728;stroke-linecap:square;stroke-width:1.5;"/>
   </g>
   <g id="line2d_19">
    <path clip-path="url(#pd9546d3e44)" d="M 73.832727 293.319937 
L 76.757543 291.166652 
L 79.682359 287.146252 
L 82.607174 285.667829 
L 85.53199 282.929232 
L 88.456806 282.091384 
L 91.381622 280.025443 
L 94.306437 278.711701 
L 97.231253 277.878606 
L 100.156069 276.54059 
L 103.080885 274.05802 
L 106.0057 272.241324 
L 108.930516 271.337124 
L 111.855332 268.449517 
L 114.780147 268.149901 
L 117.704963 266.415861 
L 120.629779 264.346647 
L 123.554595 261.552982 
L 126.47941 261.042072 
L 129.404226 259.963988 
L 132.329042 256.917983 
L 135.253857 255.337728 
L 138.178673 255.470406 
L 141.103489 253.34507 
L 144.028305 252.453217 
L 146.95312 252.395475 
L 149.877936 250.314686 
L 152.802752 248.472987 
L 155.727568 246.25279 
L 158.652383 243.275693 
L 161.577199 242.703481 
L 164.502015 242.660773 
L 167.42683 239.962327 
L 170.351646 238.307286 
L 173.276462 238.737056 
L 176.201278 237.034307 
L 179.126093 234.440989 
L 182.050909 234.211553 
L 184.975725 231.376255 
L 187.900541 228.799047 
L 190.825356 226.177517 
L 193.750172 223.608357 
L 196.674988 221.074642 
L 199.599803 218.572522 
L 202.524619 216.122521 
L 205.449435 213.699614 
L 208.374251 211.272869 
L 211.299066 208.846677 
L 214.223882 206.420458 
L 217.148698 203.994223 
L 220.073514 201.567995 
L 222.998329 199.141765 
L 225.923145 196.715536 
L 228.847961 194.289307 
L 231.772776 191.863077 
L 234.697592 189.436848 
L 237.622408 187.010618 
L 240.547224 184.584389 
L 243.472039 182.158159 
L 246.396855 179.73193 
L 249.321671 177.305701 
L 252.246486 174.879471 
L 255.171302 172.453242 
L 258.096118 170.027012 
L 261.020934 167.600783 
L 263.945749 165.174553 
L 266.870565 162.748324 
L 269.795381 160.322095 
L 272.720197 157.895865 
L 275.645012 155.469636 
L 278.569828 153.043406 
L 281.494644 150.617177 
L 284.419459 148.190948 
L 287.344275 145.764718 
L 290.269091 143.338489 
L 293.193907 140.912259 
L 296.118722 138.48603 
L 299.043538 136.0598 
L 301.968354 133.633571 
L 304.89317 131.207342 
L 307.817985 128.781112 
L 310.742801 126.354883 
L 313.667617 123.928653 
L 316.592432 121.502424 
L 319.517248 119.076194 
L 322.442064 116.649965 
L 325.36688 114.223736 
L 328.291695 111.797506 
L 331.216511 109.371277 
L 334.141327 106.945047 
L 337.066143 104.518818 
L 339.990958 102.092588 
L 342.915774 99.666359 
L 345.84059 97.24013 
L 348.765405 94.8139 
L 351.690221 92.387671 
L 354.615037 89.961441 
L 357.539853 87.535212 
L 360.464668 85.108983 
L 363.389484 82.682753 
L 366.3143 80.256524 
L 369.239115 77.830294 
L 372.163931 75.404065 
L 375.088747 72.977835 
L 378.013563 70.551606 
L 380.938378 68.125377 
L 383.863194 65.699147 
L 386.78801 63.272918 
L 389.712826 60.846688 
L 392.637641 58.420459 
L 395.562457 55.994229 
L 398.487273 53.568 
" style="fill:none;stroke:#9467bd;stroke-linecap:square;stroke-width:1.5;"/>
   </g>
   <g id="patch_3">
    <path d="M 57.6 307.584 
L 57.6 41.472 
" style="fill:none;stroke:#000000;stroke-linecap:square;stroke-linejoin:miter;stroke-width:0.8;"/>
   </g>
   <g id="patch_4">
    <path d="M 414.72 307.584 
L 414.72 41.472 
" style="fill:none;stroke:#000000;stroke-linecap:square;stroke-linejoin:miter;stroke-width:0.8;"/>
   </g>
   <g id="patch_5">
    <path d="M 57.6 307.584 
L 414.72 307.584 
" style="fill:none;stroke:#000000;stroke-linecap:square;stroke-linejoin:miter;stroke-width:0.8;"/>
   </g>
   <g id="patch_6">
    <path d="M 57.6 41.472 
L 414.72 41.472 
" style="fill:none;stroke:#000000;stroke-linecap:square;stroke-linejoin:miter;stroke-width:0.8;"/>
   </g>
   <g id="text_17">
    <g id="patch_7">
     <path d="M 393.487273 221.642528 
L 423.487273 221.642528 
L 423.487273 203.517528 
L 393.487273 203.517528 
z
" style="fill:#ffffff;opacity:0.8;stroke:#000000;stroke-linejoin:miter;"/>
    </g>
    <!-- 5843 -->
    <defs>
     <path d="M 3.90625 19.140625 
L 10.9375 20.3125 
Q 12.5 15.234375 16.015625 11.90625 
Q 19.53125 8.59375 24.796875 8.78125 
Q 30.078125 8.984375 33.203125 13.078125 
Q 36.328125 17.1875 35.9375 22.453125 
Q 35.546875 27.734375 31.828125 30.65625 
Q 28.125 33.59375 19.921875 34.765625 
L 19.921875 39.84375 
Q 28.125 40.625 31.828125 44.140625 
Q 35.546875 47.65625 35.15625 53.3125 
Q 34.765625 58.984375 30.078125 61.515625 
Q 25.390625 64.0625 20.109375 62.109375 
Q 14.84375 60.15625 11.71875 51.171875 
L 4.6875 52.34375 
Q 7.03125 59.375 11.125 64.0625 
Q 15.234375 68.75 22.265625 69.53125 
Q 29.296875 70.3125 34.5625 67.765625 
Q 39.84375 65.234375 41.984375 59.953125 
Q 44.140625 54.6875 42.578125 48.4375 
Q 41.015625 42.1875 33.59375 37.5 
Q 39.0625 35.15625 41.984375 30.46875 
Q 44.921875 25.78125 43.9375 18.15625 
Q 42.96875 10.546875 37.109375 5.859375 
Q 31.25 1.171875 23.828125 1.359375 
Q 16.40625 1.5625 10.9375 6.046875 
Q 5.46875 10.546875 3.90625 19.140625 
z
" id="SimHei-51"/>
    </defs>
    <g transform="translate(398.487273 215.392528)scale(0.1 -0.1)">
     <use xlink:href="#SimHei-53"/>
     <use x="50" xlink:href="#SimHei-56"/>
     <use x="100" xlink:href="#SimHei-52"/>
     <use x="150" xlink:href="#SimHei-51"/>
    </g>
   </g>
   <g id="text_18">
    <g id="patch_8">
     <path d="M 393.487273 201.414703 
L 423.487273 201.414703 
L 423.487273 183.289703 
L 393.487273 183.289703 
z
" style="fill:#ffffff;opacity:0.8;stroke:#000000;stroke-linejoin:miter;"/>
    </g>
    <!-- 7280 -->
    <g transform="translate(398.487273 195.164703)scale(0.1 -0.1)">
     <use xlink:href="#SimHei-55"/>
     <use x="50" xlink:href="#SimHei-50"/>
     <use x="100" xlink:href="#SimHei-56"/>
     <use x="150" xlink:href="#SimHei-48"/>
    </g>
   </g>
   <g id="text_19">
    <g id="patch_9">
     <path d="M 393.487273 181.186602 
L 423.487273 181.186602 
L 423.487273 163.061602 
L 393.487273 163.061602 
z
" style="fill:#ffffff;opacity:0.8;stroke:#000000;stroke-linejoin:miter;"/>
    </g>
    <!-- 8718 -->
    <g transform="translate(398.487273 174.936602)scale(0.1 -0.1)">
     <use xlink:href="#SimHei-56"/>
     <use x="50" xlink:href="#SimHei-55"/>
     <use x="100" xlink:href="#SimHei-49"/>
     <use x="150" xlink:href="#SimHei-56"/>
    </g>
   </g>
   <g id="text_20">
    <g id="patch_10">
     <path d="M 393.487273 140.730402 
L 428.487273 140.730402 
L 428.487273 122.605402 
L 393.487273 122.605402 
z
" style="fill:#ffffff;opacity:0.8;stroke:#000000;stroke-linejoin:miter;"/>
    </g>
    <!-- 11592 -->
    <defs>
     <path d="M 12.5 1.171875 
Q 21.09375 15.625 26.5625 27.34375 
Q 16.796875 25.78125 10.34375 29.875 
Q 3.90625 33.984375 2.53125 41.015625 
Q 1.171875 48.046875 2.734375 53.703125 
Q 4.296875 59.375 7.609375 63.078125 
Q 10.9375 66.796875 15.625 68.359375 
Q 20.3125 69.921875 24.015625 69.921875 
Q 27.734375 69.921875 31.640625 68.359375 
Q 35.546875 66.796875 38.671875 63.671875 
Q 41.796875 60.546875 42.96875 57.21875 
Q 44.140625 53.90625 44.140625 48.625 
Q 44.140625 43.359375 40.234375 35.15625 
Q 36.328125 26.953125 21.09375 1.171875 
z
M 9.765625 50 
Q 10.9375 39.84375 14.640625 36.515625 
Q 18.359375 33.203125 22.65625 33.59375 
Q 26.953125 33.984375 29.484375 35.9375 
Q 32.03125 37.890625 34.375 42.578125 
Q 35.9375 48.4375 35.15625 52.53125 
Q 34.375 56.640625 31.046875 59.375 
Q 27.734375 62.109375 23.828125 62.109375 
Q 21.484375 62.5 17.765625 60.9375 
Q 14.0625 59.375 11.90625 54.6875 
Q 9.765625 50 10.9375 39.84375 
z
" id="SimHei-57"/>
    </defs>
    <g transform="translate(398.487273 134.480402)scale(0.1 -0.1)">
     <use xlink:href="#SimHei-49"/>
     <use x="50" xlink:href="#SimHei-49"/>
     <use x="100" xlink:href="#SimHei-53"/>
     <use x="150" xlink:href="#SimHei-57"/>
     <use x="200" xlink:href="#SimHei-50"/>
    </g>
   </g>
   <g id="text_21">
    <g id="patch_11">
     <path d="M 393.487273 59.818 
L 428.487273 59.818 
L 428.487273 41.693 
L 393.487273 41.693 
z
" style="fill:#ffffff;opacity:0.8;stroke:#000000;stroke-linejoin:miter;"/>
    </g>
    <!-- 17342 -->
    <g transform="translate(398.487273 53.568)scale(0.1 -0.1)">
     <use xlink:href="#SimHei-49"/>
     <use x="50" xlink:href="#SimHei-55"/>
     <use x="100" xlink:href="#SimHei-51"/>
     <use x="150" xlink:href="#SimHei-52"/>
     <use x="200" xlink:href="#SimHei-50"/>
    </g>
   </g>
   <g id="text_22">
    <!-- 折算成金币的时间收益曲线（有通行证） -->
    <defs>
     <path d="M 89.84375 70.3125 
Q 83.59375 69.53125 54.6875 66.40625 
L 54.6875 48.046875 
L 76.953125 48.046875 
Q 84.765625 48.046875 92.578125 48.4375 
L 92.578125 41.015625 
Q 85.9375 41.40625 77.734375 41.40625 
Q 77.734375 1.953125 78.125 -9.375 
L 69.53125 -9.375 
Q 69.921875 1.953125 69.921875 41.40625 
L 54.6875 41.40625 
Q 53.90625 19.921875 50.78125 10.15625 
Q 47.65625 0.390625 40.625 -9.375 
Q 35.546875 -6.25 32.8125 -6.25 
Q 38.28125 0.390625 41.203125 6.828125 
Q 44.140625 13.28125 45.5 20.703125 
Q 46.875 28.125 47.0625 41.59375 
Q 47.265625 55.078125 46.484375 72.265625 
Q 53.125 72.265625 64.640625 73.828125 
Q 76.171875 75.390625 84.375 78.125 
Q 88.28125 72.265625 89.84375 70.3125 
z
M 4.6875 30.46875 
Q 9.765625 31.25 21.09375 35.15625 
L 21.09375 51.5625 
Q 12.5 51.5625 6.640625 51.171875 
L 6.640625 58.59375 
Q 12.5 58.203125 21.09375 58.203125 
Q 21.09375 71.09375 20.703125 79.6875 
L 28.90625 79.6875 
Q 28.515625 71.875 28.515625 58.203125 
Q 33.59375 58.203125 41.015625 58.59375 
L 41.015625 51.171875 
Q 33.59375 51.5625 28.515625 51.5625 
L 28.515625 37.890625 
Q 36.71875 40.625 39.453125 42.1875 
Q 39.84375 38.28125 40.234375 35.15625 
Q 37.890625 33.984375 28.515625 30.46875 
L 28.515625 2.734375 
Q 27.734375 -3.90625 24.21875 -5.65625 
Q 20.703125 -7.421875 12.5 -8.203125 
Q 11.71875 -3.515625 9.765625 0.390625 
Q 17.578125 0 19.328125 0.96875 
Q 21.09375 1.953125 21.09375 5.46875 
L 21.09375 27.734375 
Q 11.71875 23.828125 8.203125 22.265625 
Q 6.640625 26.171875 4.6875 30.46875 
z
" id="SimHei-25240"/>
     <path d="M 80.859375 57.03125 
Q 80.46875 50 80.46875 39.0625 
Q 80.46875 28.125 80.859375 20.703125 
L 71.484375 20.703125 
L 71.484375 13.671875 
L 82.03125 13.671875 
Q 88.28125 13.671875 96.09375 14.0625 
L 96.09375 7.421875 
Q 88.28125 7.8125 82.03125 7.8125 
L 71.484375 7.8125 
Q 71.484375 -1.171875 71.875 -9.765625 
L 63.28125 -9.765625 
Q 63.671875 -1.171875 63.671875 7.8125 
L 41.40625 7.8125 
Q 38.671875 1.5625 33.203125 -2.734375 
Q 27.734375 -7.03125 16.796875 -10.546875 
Q 14.453125 -6.640625 10.9375 -3.90625 
Q 19.53125 -2.34375 25 0.578125 
Q 30.46875 3.515625 33.203125 7.8125 
L 19.140625 7.8125 
Q 12.5 7.8125 4.6875 7.421875 
L 4.6875 14.0625 
Q 12.890625 13.671875 19.140625 13.671875 
L 34.375 13.671875 
Q 35.15625 16.796875 35.15625 20.703125 
L 19.53125 20.703125 
Q 19.921875 27.734375 19.921875 38.671875 
Q 19.921875 50 19.53125 57.03125 
L 80.859375 57.03125 
z
M 28.515625 79.6875 
Q 25.390625 76.5625 23.046875 73.828125 
L 37.890625 73.828125 
Q 42.96875 73.828125 49.609375 74.21875 
L 49.609375 67.578125 
Q 42.96875 67.96875 34.375 67.96875 
Q 35.15625 65.234375 36.71875 60.546875 
Q 32.421875 60.15625 28.515625 58.59375 
Q 27.34375 63.671875 26.171875 67.96875 
L 18.75 67.96875 
Q 16.796875 64.453125 12.109375 58.984375 
Q 8.203125 61.328125 3.90625 62.5 
Q 7.8125 66.015625 11.90625 70.890625 
Q 16.015625 75.78125 19.921875 82.8125 
Q 23.4375 80.859375 28.515625 79.6875 
z
M 70.703125 79.6875 
Q 67.578125 77.34375 65.234375 73.828125 
L 81.640625 73.828125 
Q 85.9375 73.828125 92.96875 74.21875 
L 92.96875 67.578125 
Q 86.71875 67.96875 77.734375 67.96875 
L 80.859375 61.71875 
Q 76.953125 61.328125 72.65625 59.765625 
Q 71.484375 64.0625 70.3125 67.96875 
L 60.9375 67.96875 
Q 57.8125 62.890625 55.078125 58.984375 
Q 50.78125 61.71875 47.265625 62.5 
Q 51.953125 67.1875 55.46875 72.0625 
Q 58.984375 76.953125 60.9375 82.421875 
Q 65.234375 80.859375 70.703125 79.6875 
z
M 72.65625 26.171875 
L 72.65625 31.25 
L 27.734375 31.25 
L 27.734375 26.171875 
z
M 72.65625 36.71875 
L 72.65625 41.40625 
L 27.734375 41.40625 
L 27.734375 36.71875 
z
M 72.65625 46.875 
L 72.65625 51.5625 
L 27.734375 51.5625 
L 27.734375 46.875 
z
M 63.671875 13.671875 
L 63.671875 20.703125 
L 42.578125 20.703125 
Q 42.578125 16.796875 42.1875 13.671875 
z
" id="SimHei-31639"/>
     <path d="M 54.6875 62.5 
Q 54.296875 73.828125 53.90625 81.640625 
Q 58.59375 81.25 62.890625 80.859375 
Q 62.109375 75.78125 62.5 62.5 
L 73.828125 62.5 
Q 82.03125 62.5 91.796875 62.890625 
L 91.796875 55.46875 
Q 81.640625 55.859375 73.828125 55.859375 
L 62.890625 55.859375 
Q 63.28125 41.015625 67.96875 23.4375 
Q 75.390625 34.765625 79.6875 49.609375 
Q 83.59375 46.484375 88.671875 44.140625 
Q 85.546875 40.625 81.640625 32.421875 
Q 77.734375 24.21875 71.484375 15.234375 
Q 75 8.203125 79.09375 4.09375 
Q 83.203125 0 84.765625 0.578125 
Q 86.328125 1.171875 87.890625 14.0625 
Q 91.796875 10.9375 96.09375 9.375 
Q 93.359375 -6.640625 90.03125 -8.390625 
Q 86.71875 -10.15625 82.03125 -8.390625 
Q 77.34375 -6.640625 73.234375 -1.75 
Q 69.140625 3.125 66.40625 8.984375 
Q 57.03125 -1.171875 42.578125 -10.15625 
Q 40.625 -6.640625 36.71875 -3.90625 
Q 44.53125 -0.390625 51.75 5.46875 
Q 58.984375 11.328125 62.5 16.40625 
Q 59.765625 23.828125 57.8125 34.5625 
Q 55.859375 45.3125 55.46875 55.859375 
L 21.875 55.859375 
L 21.875 42.1875 
L 47.265625 42.1875 
Q 46.484375 35.15625 46.09375 27.734375 
L 44.921875 12.109375 
Q 44.53125 4.6875 40.8125 3.125 
Q 37.109375 1.5625 28.125 0.78125 
Q 27.734375 4.296875 25 9.375 
Q 34.765625 8.984375 36.328125 10.546875 
Q 37.890625 12.109375 38.28125 19.53125 
L 39.0625 35.15625 
L 21.875 35.15625 
Q 21.875 19.921875 19.53125 9.765625 
Q 17.1875 -0.390625 10.9375 -8.984375 
Q 6.640625 -5.859375 3.125 -4.6875 
Q 8.203125 1.5625 10.15625 7.21875 
Q 12.109375 12.890625 13.078125 19.53125 
Q 14.0625 26.171875 14.25 38.28125 
Q 14.453125 50.390625 14.0625 62.5 
L 54.6875 62.5 
z
M 74.21875 81.640625 
Q 82.03125 75.390625 87.890625 69.140625 
Q 84.375 66.40625 81.640625 63.671875 
Q 76.953125 69.921875 69.140625 76.5625 
Q 71.875 78.90625 74.21875 81.640625 
z
" id="SimHei-25104"/>
     <path d="M 39.453125 71.484375 
Q 39.0625 57.421875 39.0625 37.5 
Q 39.0625 17.578125 39.453125 6.25 
L 31.25 6.25 
L 31.25 13.671875 
L 15.625 13.671875 
L 15.625 0.78125 
L 7.421875 0.78125 
Q 7.8125 18.75 7.8125 36.71875 
Q 7.8125 55.078125 7.421875 71.484375 
L 39.453125 71.484375 
z
M 76.171875 59.765625 
Q 76.171875 71.484375 75.78125 81.640625 
L 84.375 81.640625 
Q 83.984375 71.484375 83.984375 59.765625 
Q 89.84375 59.765625 96.484375 60.15625 
L 96.484375 52.734375 
Q 89.84375 53.125 83.984375 53.125 
L 83.984375 0.78125 
Q 83.984375 -5.078125 79.296875 -6.640625 
Q 74.609375 -8.203125 67.1875 -8.984375 
Q 67.1875 -4.296875 62.890625 0 
Q 70.3125 -0.78125 73.234375 -0.390625 
Q 76.171875 0 76.171875 4.6875 
L 76.171875 53.125 
Q 56.640625 53.125 43.359375 52.734375 
L 43.359375 60.15625 
Q 55.859375 59.765625 76.171875 59.765625 
z
M 31.25 20.3125 
L 31.25 39.84375 
L 15.625 39.84375 
L 15.625 20.3125 
z
M 31.25 46.484375 
L 31.25 64.84375 
L 15.625 64.84375 
L 15.625 46.484375 
z
M 55.46875 42.578125 
Q 60.546875 34.375 65.234375 25 
Q 61.328125 23.828125 57.03125 21.484375 
Q 53.90625 30.859375 48.046875 39.0625 
Q 51.5625 40.625 55.46875 42.578125 
z
" id="SimHei-26102"/>
     <path d="M 69.53125 55.46875 
Q 69.140625 48.046875 69.140625 42.578125 
L 69.140625 21.875 
Q 69.140625 16.796875 69.53125 9.765625 
L 30.078125 9.765625 
Q 30.46875 16.796875 30.46875 22.265625 
L 30.46875 42.578125 
Q 30.46875 48.046875 30.078125 55.46875 
L 69.53125 55.46875 
z
M 90.625 76.171875 
Q 90.234375 68.75 90.234375 61.328125 
L 90.234375 3.90625 
Q 90.625 -5.078125 85.34375 -7.03125 
Q 80.078125 -8.984375 73.828125 -9.765625 
Q 73.4375 -5.078125 70.703125 -0.390625 
Q 78.125 -0.78125 80.265625 0.390625 
Q 82.421875 1.5625 82.421875 5.46875 
L 82.421875 69.53125 
L 58.984375 69.53125 
Q 49.609375 69.53125 41.40625 69.140625 
L 41.40625 76.5625 
Q 49.609375 76.171875 58.984375 76.171875 
z
M 8.59375 -8.203125 
Q 9.375 -0.390625 9.375 8.203125 
L 9.375 49.21875 
Q 9.375 57.421875 8.59375 62.890625 
L 17.578125 62.890625 
Q 17.1875 57.03125 17.1875 51.5625 
L 17.1875 7.8125 
Q 17.1875 0 17.578125 -8.203125 
z
M 61.71875 16.015625 
L 61.71875 30.46875 
L 37.890625 30.46875 
L 37.890625 16.015625 
z
M 61.71875 36.71875 
L 61.71875 49.21875 
L 37.890625 49.21875 
L 37.890625 36.71875 
z
M 23.828125 82.8125 
Q 27.34375 78.125 34.765625 67.96875 
Q 30.46875 66.015625 26.5625 63.671875 
Q 22.65625 71.484375 16.796875 78.515625 
Q 21.09375 81.640625 23.828125 82.8125 
z
" id="SimHei-38388"/>
     <path d="M 66.40625 78.90625 
Q 64.453125 75.78125 58.59375 63.28125 
L 80.46875 63.28125 
Q 88.671875 63.28125 95.703125 63.671875 
L 95.703125 56.25 
Q 88.671875 56.640625 82.8125 56.640625 
Q 81.640625 41.015625 78.515625 30.859375 
Q 75.390625 20.703125 71.484375 14.0625 
Q 76.5625 7.8125 82.609375 4.296875 
Q 88.671875 0.78125 96.875 -1.171875 
Q 92.1875 -4.296875 90.625 -8.59375 
Q 82.8125 -5.46875 77.34375 -1.5625 
Q 71.875 2.34375 66.796875 8.203125 
Q 59.375 0 43.359375 -9.765625 
Q 41.40625 -6.640625 35.9375 -3.515625 
Q 51.171875 2.34375 61.71875 14.453125 
Q 58.984375 20.703125 56.4375 27.921875 
Q 53.90625 35.15625 50.78125 46.875 
Q 46.484375 38.28125 44.140625 35.546875 
Q 41.40625 37.5 37.890625 39.453125 
Q 43.359375 47.265625 49.015625 59.953125 
Q 54.6875 72.65625 56.640625 82.03125 
Q 61.328125 80.078125 66.40625 78.90625 
z
M 15.234375 66.796875 
Q 14.453125 61.71875 14.453125 53.90625 
L 14.453125 24.609375 
L 27.734375 26.953125 
L 27.734375 69.140625 
Q 27.734375 74.609375 27.34375 80.46875 
L 35.15625 80.46875 
Q 34.765625 75.78125 34.765625 69.53125 
L 34.765625 4.6875 
Q 34.765625 -0.78125 35.15625 -8.59375 
L 27.34375 -8.59375 
Q 27.734375 -0.390625 27.734375 5.46875 
L 27.734375 21.09375 
Q 9.765625 16.40625 7.8125 14.453125 
Q 5.859375 17.578125 3.515625 21.09375 
Q 7.03125 23.046875 7.03125 28.125 
L 7.03125 55.859375 
Q 7.03125 61.328125 6.640625 66.796875 
L 15.234375 66.796875 
z
M 58.203125 49.21875 
Q 59.375 42.1875 61.90625 34.5625 
Q 64.453125 26.953125 67.1875 21.484375 
Q 73.828125 33.59375 75.390625 56.640625 
L 55.859375 56.640625 
Q 53.125 51.171875 51.5625 48.4375 
z
" id="SimHei-25910"/>
     <path d="M 44.140625 45.703125 
Q 37.890625 43.359375 31.4375 38.859375 
Q 25 34.375 19.140625 30.859375 
L 82.421875 30.859375 
Q 82.03125 24.609375 82.03125 15.625 
L 82.03125 -0.78125 
Q 90.625 -0.78125 96.484375 -0.390625 
L 96.484375 -8.203125 
Q 89.453125 -7.8125 82.03125 -7.8125 
L 20.703125 -7.8125 
Q 10.9375 -7.8125 3.90625 -8.203125 
L 3.90625 -0.390625 
Q 9.375 -0.78125 18.359375 -0.78125 
L 18.359375 16.40625 
Q 18.359375 24.609375 17.96875 30.078125 
Q 15.625 28.125 12.5 26.5625 
Q 10.15625 30.46875 6.640625 33.203125 
Q 12.5 35.546875 20.5 40.625 
Q 28.515625 45.703125 36.328125 53.125 
Q 39.84375 49.21875 44.140625 45.703125 
z
M 73.828125 78.90625 
Q 71.484375 76.5625 69.71875 72.453125 
Q 67.96875 68.359375 65.234375 63.671875 
L 72.265625 63.671875 
Q 83.59375 63.671875 92.1875 64.0625 
L 92.1875 56.640625 
Q 83.59375 57.03125 72.265625 57.03125 
L 30.859375 57.03125 
Q 21.09375 57.03125 8.59375 56.640625 
L 8.59375 64.0625 
Q 18.359375 63.671875 30.859375 63.671875 
L 57.421875 63.671875 
Q 58.984375 67.1875 60.734375 72.265625 
Q 62.5 77.34375 64.453125 82.03125 
L 73.828125 78.90625 
z
M 56.25 -0.78125 
L 56.25 24.609375 
L 43.75 24.609375 
L 43.75 -0.78125 
z
M 75 -0.78125 
L 75 24.609375 
L 62.890625 24.609375 
L 62.890625 -0.78125 
z
M 37.109375 -0.78125 
L 37.109375 24.609375 
L 25.390625 24.609375 
L 25.390625 -0.78125 
z
M 60.9375 52.34375 
Q 68.359375 49.21875 76.5625 45.703125 
Q 84.765625 42.1875 92.1875 39.0625 
Q 89.0625 35.9375 86.71875 31.25 
Q 78.515625 35.9375 70.5 39.640625 
Q 62.5 43.359375 56.640625 45.3125 
Q 58.59375 48.046875 60.9375 52.34375 
z
M 33.59375 82.03125 
Q 37.109375 76.953125 41.40625 67.96875 
Q 37.890625 66.796875 33.59375 64.453125 
Q 30.46875 72.65625 26.171875 78.515625 
Q 29.296875 79.6875 33.59375 82.03125 
z
" id="SimHei-30410"/>
     <path d="M 91.015625 7.8125 
Q 91.015625 -3.125 91.40625 -8.59375 
L 82.421875 -8.59375 
L 82.421875 -0.78125 
L 17.96875 -0.78125 
L 17.96875 -8.59375 
L 8.984375 -8.59375 
Q 9.375 1.953125 9.375 8.59375 
L 9.375 43.359375 
Q 9.375 53.515625 8.984375 60.9375 
L 33.59375 60.9375 
L 33.59375 69.53125 
Q 33.203125 75.78125 33.203125 80.46875 
L 42.1875 80.46875 
Q 41.40625 75.390625 41.40625 69.921875 
L 41.40625 60.9375 
L 57.8125 60.9375 
L 57.8125 70.703125 
Q 57.8125 75.78125 57.421875 80.859375 
L 66.40625 80.859375 
Q 66.015625 76.171875 66.015625 71.09375 
L 66.015625 60.9375 
L 91.40625 60.9375 
Q 91.015625 55.078125 91.015625 42.96875 
z
M 57.8125 5.078125 
L 57.8125 29.296875 
L 41.40625 29.296875 
L 41.40625 5.078125 
z
M 82.421875 5.078125 
L 82.421875 29.296875 
L 66.015625 29.296875 
L 66.015625 5.078125 
z
M 33.59375 5.078125 
L 33.59375 29.296875 
L 17.96875 29.296875 
L 17.96875 5.078125 
z
M 57.8125 35.15625 
L 57.8125 55.078125 
L 41.40625 55.078125 
L 41.40625 35.15625 
z
M 82.421875 35.15625 
L 82.421875 55.078125 
L 66.015625 55.078125 
L 66.015625 35.15625 
z
M 33.59375 35.15625 
L 33.59375 55.078125 
L 17.96875 55.078125 
L 17.96875 35.15625 
z
" id="SimHei-26354"/>
     <path d="M 53.90625 67.1875 
Q 53.90625 73.046875 52.734375 80.078125 
Q 57.8125 79.6875 63.28125 78.90625 
Q 62.109375 76.5625 61.71875 71.28125 
Q 61.328125 66.015625 61.71875 56.25 
L 75 58.59375 
Q 81.640625 60.15625 88.28125 62.109375 
L 89.84375 54.6875 
Q 83.203125 53.90625 76.171875 52.734375 
L 62.109375 50 
Q 62.109375 43.75 62.890625 39.0625 
L 78.125 41.796875 
Q 85.9375 43.359375 92.96875 45.703125 
L 94.140625 38.28125 
Q 87.109375 37.109375 79.296875 35.546875 
L 64.0625 32.8125 
Q 64.84375 25 67.96875 18.359375 
Q 71.484375 21.09375 74.796875 24.609375 
Q 78.125 28.125 80.859375 32.421875 
Q 86.71875 27.734375 89.84375 26.171875 
Q 84.765625 23.828125 81.828125 20.890625 
Q 78.90625 17.96875 72.265625 11.71875 
Q 76.953125 3.90625 80.65625 1.75 
Q 84.375 -0.390625 85.9375 1.5625 
Q 87.5 3.515625 88.671875 9.765625 
Q 92.1875 7.03125 96.875 5.46875 
Q 90.234375 -11.71875 82.421875 -8.390625 
Q 74.609375 -5.078125 66.015625 7.03125 
Q 60.546875 2.734375 55.265625 -0.96875 
Q 50 -4.6875 42.1875 -8.59375 
Q 40.234375 -4.6875 36.328125 -1.5625 
Q 44.140625 1.171875 49.609375 4.296875 
Q 55.078125 7.421875 62.109375 13.28125 
Q 58.59375 21.09375 57.03125 31.640625 
Q 45.3125 29.6875 40.625 28.125 
L 39.453125 35.546875 
Q 44.140625 35.546875 55.46875 37.890625 
Q 54.6875 44.140625 54.6875 48.4375 
Q 44.140625 46.09375 40.234375 44.921875 
L 38.671875 52.34375 
Q 42.578125 52.34375 53.90625 54.6875 
z
M 30.46875 76.171875 
Q 26.5625 72.65625 22.84375 66.203125 
Q 19.140625 59.765625 12.890625 50.390625 
Q 22.265625 50.78125 25.78125 50.78125 
Q 29.296875 56.640625 32.03125 63.671875 
Q 35.9375 60.9375 40.625 59.375 
Q 36.71875 55.46875 32.609375 48.828125 
Q 28.515625 42.1875 18.359375 26.171875 
Q 28.90625 26.953125 37.109375 27.734375 
Q 35.9375 23.828125 35.9375 21.09375 
Q 33.203125 21.09375 23.828125 20.109375 
Q 14.453125 19.140625 8.59375 17.578125 
Q 8.203125 21.484375 6.25 25.78125 
Q 10.9375 26.953125 14.84375 32.03125 
Q 18.75 37.109375 23.046875 44.921875 
Q 10.15625 44.140625 6.640625 41.796875 
Q 5.46875 46.09375 3.125 50.390625 
Q 8.203125 53.90625 12.890625 61.90625 
Q 17.578125 69.921875 21.484375 80.46875 
Q 25.390625 77.734375 30.46875 76.171875 
z
M 40.234375 13.671875 
Q 39.84375 9.375 40.234375 7.03125 
Q 30.46875 5.078125 22.65625 3.125 
Q 14.84375 1.171875 8.203125 -1.171875 
Q 7.03125 3.125 3.90625 7.421875 
Q 14.84375 8.59375 20.703125 9.5625 
Q 26.5625 10.546875 40.234375 13.671875 
z
M 75.78125 62.890625 
Q 73.046875 67.1875 68.359375 73.046875 
L 74.609375 76.171875 
Q 76.171875 74.21875 82.421875 66.796875 
Q 78.515625 65.234375 75.78125 62.890625 
z
" id="SimHei-32447"/>
     <path d="M 84.765625 79.6875 
L 89.0625 74.609375 
Q 66.796875 58.203125 67.578125 36.71875 
Q 67.96875 16.015625 88.671875 0.78125 
L 84.375 -4.296875 
Q 60.546875 12.890625 61.328125 39.0625 
Q 61.328125 60.546875 84.765625 79.6875 
z
" id="SimHei-65288"/>
     <path d="M 4.296875 25.390625 
Q 13.28125 30.859375 21.875 39.640625 
Q 30.46875 48.4375 37.5 61.328125 
L 23.4375 61.328125 
Q 17.96875 61.328125 9.765625 60.9375 
L 9.765625 68.359375 
Q 19.921875 67.96875 25 67.96875 
L 39.84375 67.96875 
Q 42.96875 77.34375 43.359375 81.640625 
Q 49.21875 80.078125 52.734375 79.296875 
Q 51.5625 78.125 48.828125 67.96875 
L 80.46875 67.96875 
Q 87.109375 67.96875 94.140625 68.359375 
L 94.140625 60.9375 
Q 87.109375 61.328125 81.640625 61.328125 
L 46.484375 61.328125 
Q 43.75 56.25 40.625 51.171875 
L 85.546875 51.171875 
Q 85.15625 41.40625 85.15625 33.59375 
L 85.15625 1.953125 
Q 85.15625 -3.515625 82.03125 -6.046875 
Q 78.90625 -8.59375 68.75 -9.375 
Q 68.359375 -5.078125 66.015625 0 
Q 71.875 -0.78125 74.609375 -0.390625 
Q 77.34375 0 77.34375 3.90625 
L 77.34375 11.71875 
L 36.71875 11.71875 
L 36.71875 -8.984375 
L 28.125 -8.984375 
Q 28.515625 0.78125 28.515625 7.8125 
L 28.515625 35.546875 
Q 20.3125 26.171875 11.328125 19.140625 
Q 9.765625 21.875 4.296875 25.390625 
z
M 77.34375 33.984375 
L 77.34375 44.921875 
L 36.71875 44.921875 
L 36.71875 33.984375 
z
M 77.34375 17.96875 
L 77.34375 27.734375 
L 36.71875 27.734375 
L 36.71875 17.96875 
z
" id="SimHei-26377"/>
     <path d="M 88.671875 78.90625 
Q 83.203125 72.65625 77.140625 67.1875 
Q 71.09375 61.71875 66.40625 57.03125 
L 89.0625 57.03125 
Q 88.671875 48.4375 88.671875 40.234375 
L 88.671875 13.28125 
Q 89.0625 8.203125 85.9375 6.640625 
Q 82.8125 5.078125 76.5625 3.90625 
Q 75.78125 7.421875 72.65625 12.109375 
Q 78.515625 12.5 80.46875 13.28125 
Q 82.421875 14.0625 82.03125 20.703125 
L 64.453125 20.703125 
L 64.453125 4.6875 
L 57.421875 4.6875 
L 57.421875 20.703125 
L 40.234375 20.703125 
L 40.234375 4.6875 
L 33.203125 4.6875 
Q 33.59375 17.578125 33.59375 30.46875 
Q 33.59375 43.359375 33.203125 57.03125 
L 56.25 57.03125 
Q 54.296875 60.15625 47.65625 65.625 
Q 50.390625 67.96875 52.734375 70.703125 
Q 59.765625 65.234375 62.5 62.5 
Q 68.75 69.140625 72.265625 72.65625 
L 47.265625 72.65625 
Q 39.453125 72.65625 33.59375 72.265625 
L 33.59375 79.296875 
Q 39.453125 78.90625 46.484375 78.90625 
z
M 22.265625 46.875 
Q 21.875 39.0625 21.875 32.8125 
L 21.875 9.375 
Q 31.640625 -0.390625 57.8125 -0.390625 
Q 83.984375 -0.390625 96.09375 1.953125 
Q 93.75 -2.734375 93.359375 -7.8125 
Q 62.109375 -8.203125 49.015625 -7.03125 
Q 35.9375 -5.859375 27.734375 -1.75 
Q 19.53125 2.34375 16.796875 -0.578125 
Q 14.0625 -3.515625 10.15625 -10.15625 
Q 6.640625 -6.25 3.125 -3.515625 
Q 9.375 1.953125 15.234375 6.640625 
L 15.234375 40.234375 
Q 12.109375 40.234375 5.46875 39.84375 
L 5.46875 47.265625 
Q 11.71875 46.875 22.265625 46.875 
z
M 82.03125 26.953125 
L 82.03125 36.328125 
L 64.453125 36.328125 
L 64.453125 26.953125 
z
M 57.421875 26.953125 
L 57.421875 36.328125 
L 40.234375 36.328125 
L 40.234375 26.953125 
z
M 82.03125 42.578125 
L 82.03125 51.171875 
L 64.453125 51.171875 
L 64.453125 42.578125 
z
M 57.421875 42.578125 
L 57.421875 51.171875 
L 40.234375 51.171875 
L 40.234375 42.578125 
z
M 16.015625 78.515625 
Q 22.65625 69.140625 26.5625 63.671875 
Q 22.265625 61.328125 19.53125 58.203125 
Q 16.796875 64.0625 9.375 73.828125 
Q 12.5 76.171875 16.015625 78.515625 
z
" id="SimHei-36890"/>
     <path d="M 82.8125 48.4375 
Q 90.234375 48.4375 96.484375 48.828125 
L 96.484375 41.015625 
Q 90.234375 41.40625 83.203125 41.40625 
L 77.734375 41.40625 
L 77.734375 -1.171875 
Q 78.125 -5.859375 74.796875 -7.609375 
Q 71.484375 -9.375 61.71875 -10.546875 
Q 60.9375 -5.859375 57.421875 -1.171875 
Q 64.0625 -1.953125 66.796875 -1.75 
Q 69.53125 -1.5625 69.921875 2.34375 
L 69.921875 41.40625 
L 54.296875 41.40625 
Q 46.875 41.40625 40.234375 41.015625 
L 40.234375 48.828125 
Q 47.265625 48.4375 54.296875 48.4375 
z
M 35.9375 53.125 
Q 32.421875 51.171875 30.65625 48.046875 
Q 28.90625 44.921875 25.78125 40.234375 
L 25.78125 5.078125 
Q 25.78125 0 26.171875 -10.546875 
L 17.96875 -10.546875 
Q 18.359375 1.171875 18.359375 7.03125 
L 18.359375 32.03125 
Q 14.84375 26.171875 8.984375 20.3125 
Q 6.25 24.21875 3.90625 26.953125 
Q 12.890625 35.546875 17.96875 43.359375 
Q 23.046875 51.171875 26.953125 58.203125 
Q 30.859375 55.859375 35.9375 53.125 
z
M 76.171875 75 
Q 82.8125 75 89.84375 75.390625 
L 89.84375 67.96875 
Q 82.8125 68.359375 75.390625 68.359375 
L 60.9375 68.359375 
Q 52.34375 68.359375 46.09375 67.96875 
L 46.09375 75.390625 
Q 52.34375 75 60.9375 75 
z
M 32.421875 76.953125 
Q 29.296875 76.5625 24.21875 68.546875 
Q 19.140625 60.546875 10.15625 50.78125 
Q 7.8125 53.90625 5.078125 56.640625 
Q 11.328125 62.890625 16.40625 70.109375 
Q 21.484375 77.34375 23.828125 82.8125 
Q 27.734375 80.46875 32.421875 76.953125 
z
" id="SimHei-34892"/>
     <path d="M 80.078125 73.046875 
Q 87.890625 73.046875 94.53125 73.4375 
L 94.53125 66.015625 
Q 87.890625 66.40625 80.078125 66.40625 
L 70.3125 66.40625 
L 70.3125 41.015625 
L 79.296875 41.015625 
Q 85.9375 41.015625 92.1875 41.40625 
L 92.1875 33.984375 
Q 86.328125 34.375 79.296875 34.375 
L 70.3125 34.375 
L 70.3125 1.953125 
L 81.25 1.953125 
Q 87.890625 1.953125 96.484375 2.34375 
L 96.484375 -5.078125 
Q 87.890625 -4.6875 81.25 -4.6875 
L 46.875 -4.6875 
Q 37.5 -4.6875 31.25 -5.078125 
L 31.25 2.34375 
Q 37.5 1.953125 43.359375 1.953125 
L 43.359375 32.421875 
Q 43.359375 40.625 42.96875 46.09375 
L 51.171875 46.09375 
Q 50.78125 41.015625 50.78125 32.421875 
L 50.78125 1.953125 
L 62.5 1.953125 
L 62.5 66.40625 
L 55.46875 66.40625 
Q 46.484375 66.40625 38.28125 66.015625 
L 38.28125 73.4375 
Q 46.484375 73.046875 55.46875 73.046875 
z
M 13.28125 -1.953125 
Q 17.96875 2.734375 17.96875 7.8125 
L 17.96875 42.96875 
L 14.453125 42.96875 
Q 8.984375 42.96875 3.515625 42.578125 
L 3.515625 50 
Q 8.59375 49.609375 14.453125 49.609375 
L 25.78125 49.609375 
Q 25.390625 42.1875 25.390625 33.984375 
L 25.390625 12.5 
Q 28.90625 16.796875 31.640625 20.703125 
Q 33.59375 16.40625 36.328125 12.890625 
Q 32.03125 7.8125 28.3125 3.3125 
Q 24.609375 -1.171875 19.140625 -8.203125 
Q 16.40625 -4.6875 13.28125 -1.953125 
z
M 23.828125 60.9375 
Q 17.1875 70.3125 12.5 75.390625 
Q 15.625 77.734375 18.359375 80.859375 
L 30.078125 66.796875 
Q 26.171875 64.0625 23.828125 60.9375 
z
" id="SimHei-35777"/>
     <path d="M 15.625 79.6875 
Q 39.0625 60.546875 39.0625 39.0625 
Q 39.84375 12.890625 16.015625 -4.296875 
L 11.71875 0.78125 
Q 32.421875 16.015625 32.8125 36.71875 
Q 33.59375 58.203125 11.328125 74.609375 
L 15.625 79.6875 
z
" id="SimHei-65289"/>
    </defs>
    <g transform="translate(128.16 35.472)scale(0.12 -0.12)">
     <use xlink:href="#SimHei-25240"/>
     <use x="100" xlink:href="#SimHei-31639"/>
     <use x="200" xlink:href="#SimHei-25104"/>
     <use x="300" xlink:href="#SimHei-37329"/>
     <use x="400" xlink:href="#SimHei-24065"/>
     <use x="500" xlink:href="#SimHei-30340"/>
     <use x="600" xlink:href="#SimHei-26102"/>
     <use x="700" xlink:href="#SimHei-38388"/>
     <use x="800" xlink:href="#SimHei-25910"/>
     <use x="900" xlink:href="#SimHei-30410"/>
     <use x="1000" xlink:href="#SimHei-26354"/>
     <use x="1100" xlink:href="#SimHei-32447"/>
     <use x="1200" xlink:href="#SimHei-65288"/>
     <use x="1300" xlink:href="#SimHei-26377"/>
     <use x="1400" xlink:href="#SimHei-36890"/>
     <use x="1500" xlink:href="#SimHei-34892"/>
     <use x="1600" xlink:href="#SimHei-35777"/>
     <use x="1700" xlink:href="#SimHei-65289"/>
    </g>
   </g>
   <g id="legend_1">
    <g id="patch_12">
     <path d="M 64.6 120.56575 
L 126.6 120.56575 
Q 128.6 120.56575 128.6 118.56575 
L 128.6 48.472 
Q 128.6 46.472 126.6 46.472 
L 64.6 46.472 
Q 62.6 46.472 62.6 48.472 
L 62.6 118.56575 
Q 62.6 120.56575 64.6 120.56575 
z
" style="fill:#ffffff;opacity:0.8;stroke:#cccccc;stroke-linejoin:miter;"/>
    </g>
    <g id="line2d_20">
     <path d="M 66.6 54.94075 
L 86.6 54.94075 
" style="fill:none;stroke:#1f77b4;stroke-linecap:square;stroke-width:1.5;"/>
    </g>
    <g id="line2d_21"/>
    <g id="text_23">
     <!-- 每天0h -->
     <defs>
      <path d="M 81.640625 57.03125 
Q 80.859375 49.21875 80.46875 41.796875 
L 80.078125 34.375 
Q 86.328125 34.375 93.75 34.765625 
L 93.75 27.734375 
Q 87.890625 28.125 79.6875 28.125 
L 78.90625 10.15625 
Q 83.203125 10.15625 89.0625 10.546875 
L 89.0625 3.515625 
Q 84.375 3.90625 78.515625 3.90625 
Q 78.125 -4.296875 74.609375 -6.640625 
Q 71.09375 -8.984375 62.5 -10.15625 
Q 61.71875 -6.25 58.984375 -1.953125 
Q 68.359375 -1.953125 69.921875 -0.78125 
Q 71.484375 0.390625 71.484375 3.90625 
L 21.875 3.90625 
L 23.4375 17.1875 
L 24.21875 28.125 
L 19.921875 28.125 
Q 12.890625 28.125 8.59375 27.734375 
L 8.59375 34.765625 
Q 15.234375 34.375 19.921875 34.375 
L 24.609375 34.375 
L 25.390625 44.140625 
L 26.171875 57.03125 
z
M 36.71875 78.125 
Q 33.984375 75.390625 32.03125 71.875 
L 76.171875 71.875 
Q 82.421875 71.875 90.234375 72.265625 
L 90.234375 65.234375 
Q 82.421875 65.625 76.171875 65.625 
L 28.515625 65.625 
L 21.484375 56.640625 
Q 17.578125 51.953125 12.109375 46.484375 
Q 9.375 49.609375 5.46875 51.5625 
Q 11.328125 55.859375 17.96875 64.25 
Q 24.609375 72.65625 28.515625 82.03125 
Q 33.203125 79.296875 36.71875 78.125 
z
M 30.859375 28.125 
L 29.296875 10.15625 
L 72.265625 10.15625 
L 73.046875 28.125 
L 46.09375 28.125 
Q 55.859375 19.921875 59.765625 17.578125 
Q 56.640625 14.453125 54.296875 11.328125 
Q 48.4375 17.1875 41.40625 23.046875 
Q 43.359375 26.171875 44.921875 28.125 
z
M 46.484375 50.78125 
Q 48.828125 49.21875 51.359375 47.0625 
Q 53.90625 44.921875 59.375 39.84375 
Q 57.03125 36.71875 55.078125 34.375 
L 73.4375 34.375 
L 74.21875 50.78125 
L 46.484375 50.78125 
z
M 32.421875 50.78125 
L 31.25 34.375 
L 53.515625 34.375 
Q 49.21875 39.0625 47.0625 41.015625 
Q 44.921875 42.96875 42.1875 45.3125 
Q 43.75 47.65625 45.703125 50.78125 
z
" id="SimHei-27599"/>
      <path d="M 43.75 1.953125 
L 35.9375 1.953125 
L 35.9375 30.078125 
Q 35.9375 34.765625 33.59375 37.5 
Q 31.25 40.234375 27.34375 40.234375 
Q 22.265625 40.234375 17.765625 34.953125 
Q 13.28125 29.6875 13.28125 21.875 
L 13.28125 1.953125 
L 5.46875 1.953125 
L 5.46875 68.75 
L 13.28125 68.75 
L 13.28125 37.5 
Q 16.40625 41.796875 20.109375 44.140625 
Q 23.828125 46.484375 29.6875 46.484375 
Q 36.71875 46.484375 40.234375 42.578125 
Q 43.75 38.671875 43.75 32.8125 
z
" id="SimHei-104"/>
     </defs>
     <g transform="translate(94.6 58.44075)scale(0.1 -0.1)">
      <use xlink:href="#SimHei-27599"/>
      <use x="100" xlink:href="#SimHei-22825"/>
      <use x="200" xlink:href="#SimHei-48"/>
      <use x="250" xlink:href="#SimHei-104"/>
     </g>
    </g>
    <g id="line2d_22">
     <path d="M 66.6 69.1595 
L 86.6 69.1595 
" style="fill:none;stroke:#ff7f0e;stroke-linecap:square;stroke-width:1.5;"/>
    </g>
    <g id="line2d_23"/>
    <g id="text_24">
     <!-- 每天1h -->
     <g transform="translate(94.6 72.6595)scale(0.1 -0.1)">
      <use xlink:href="#SimHei-27599"/>
      <use x="100" xlink:href="#SimHei-22825"/>
      <use x="200" xlink:href="#SimHei-49"/>
      <use x="250" xlink:href="#SimHei-104"/>
     </g>
    </g>
    <g id="line2d_24">
     <path d="M 66.6 83.37825 
L 86.6 83.37825 
" style="fill:none;stroke:#2ca02c;stroke-linecap:square;stroke-width:1.5;"/>
    </g>
    <g id="line2d_25"/>
    <g id="text_25">
     <!-- 每天2h -->
     <g transform="translate(94.6 86.87825)scale(0.1 -0.1)">
      <use xlink:href="#SimHei-27599"/>
      <use x="100" xlink:href="#SimHei-22825"/>
      <use x="200" xlink:href="#SimHei-50"/>
      <use x="250" xlink:href="#SimHei-104"/>
     </g>
    </g>
    <g id="line2d_26">
     <path d="M 66.6 97.597 
L 86.6 97.597 
" style="fill:none;stroke:#d62728;stroke-linecap:square;stroke-width:1.5;"/>
    </g>
    <g id="line2d_27"/>
    <g id="text_26">
     <!-- 每天4h -->
     <g transform="translate(94.6 101.097)scale(0.1 -0.1)">
      <use xlink:href="#SimHei-27599"/>
      <use x="100" xlink:href="#SimHei-22825"/>
      <use x="200" xlink:href="#SimHei-52"/>
      <use x="250" xlink:href="#SimHei-104"/>
     </g>
    </g>
    <g id="line2d_28">
     <path d="M 66.6 111.81575 
L 86.6 111.81575 
" style="fill:none;stroke:#9467bd;stroke-linecap:square;stroke-width:1.5;"/>
    </g>
    <g id="line2d_29"/>
    <g id="text_27">
     <!-- 每天8h -->
     <g transform="translate(94.6 115.31575)scale(0.1 -0.1)">
      <use xlink:href="#SimHei-27599"/>
      <use x="100" xlink:href="#SimHei-22825"/>
      <use x="200" xlink:href="#SimHei-56"/>
      <use x="250" xlink:href="#SimHei-104"/>
     </g>
    </g>
   </g>
  </g>
 </g>
 <defs>
  <clipPath id="pd9546d3e44">
   <rect height="266.112" width="357.12" x="57.6" y="41.472"/>
  </clipPath>
 </defs>
</svg>
