<?xml version="1.0" encoding="utf-8" standalone="no"?>
<!DOCTYPE svg PUBLIC "-//W3C//DTD SVG 1.1//EN"
  "http://www.w3.org/Graphics/SVG/1.1/DTD/svg11.dtd">
<!-- Created with matplotlib (https://matplotlib.org/) -->
<svg height="345.6pt" version="1.1" viewBox="0 0 460.8 345.6" width="460.8pt" xmlns="http://www.w3.org/2000/svg" xmlns:xlink="http://www.w3.org/1999/xlink">
 <defs>
  <style type="text/css">
*{stroke-linecap:butt;stroke-linejoin:round;}
  </style>
 </defs>
 <g id="figure_1">
  <g id="patch_1">
   <path d="M 0 345.6 
L 460.8 345.6 
L 460.8 0 
L 0 0 
z
" style="fill:#ffffff;"/>
  </g>
  <g id="axes_1">
   <g id="patch_2">
    <path d="M 57.6 307.584 
L 414.72 307.584 
L 414.72 41.472 
L 57.6 41.472 
z
" style="fill:#ffffff;"/>
   </g>
   <g id="matplotlib.axis_1">
    <g id="xtick_1">
     <g id="line2d_1">
      <defs>
       <path d="M 0 0 
L 0 3.5 
" id="m2a22438ca7" style="stroke:#000000;stroke-width:0.8;"/>
      </defs>
      <g>
       <use style="stroke:#000000;stroke-width:0.8;" x="70.907912" xlink:href="#m2a22438ca7" y="307.584"/>
      </g>
     </g>
     <g id="text_1">
      <!-- 0 -->
      <defs>
       <path d="M 3.125 29.296875 
Q 3.90625 50 6.4375 56.046875 
Q 8.984375 62.109375 13.671875 66.015625 
Q 18.359375 69.921875 25.1875 69.921875 
Q 32.03125 69.921875 37.109375 64.25 
Q 42.1875 58.59375 43.75 50 
Q 45.3125 41.40625 44.71875 30.265625 
Q 44.140625 19.140625 40.8125 12.109375 
Q 37.5 5.078125 30.859375 2.34375 
Q 24.21875 -0.390625 17.578125 2.921875 
Q 10.9375 6.25 8.203125 11.71875 
Q 5.46875 17.1875 4.296875 23.234375 
Q 3.125 29.296875 3.90625 50 
z
M 12.890625 52.734375 
Q 10.546875 31.25 12.5 22.84375 
Q 14.453125 14.453125 18.9375 10.9375 
Q 23.4375 7.421875 28.125 9.5625 
Q 32.8125 11.71875 34.953125 18.15625 
Q 37.109375 24.609375 37.109375 32.21875 
Q 37.109375 39.84375 36.515625 46.09375 
Q 35.9375 52.34375 33 57.421875 
Q 30.078125 62.5 25.1875 62.6875 
Q 20.3125 62.890625 16.59375 57.8125 
Q 12.890625 52.734375 10.546875 31.25 
z
" id="SimHei-48"/>
      </defs>
      <g transform="translate(68.407912 321.459)scale(0.1 -0.1)">
       <use xlink:href="#SimHei-48"/>
      </g>
     </g>
    </g>
    <g id="xtick_2">
     <g id="line2d_2">
      <g>
       <use style="stroke:#000000;stroke-width:0.8;" x="129.404226" xlink:href="#m2a22438ca7" y="307.584"/>
      </g>
     </g>
     <g id="text_2">
      <!-- 20 -->
      <defs>
       <path d="M 4.6875 3.90625 
Q 5.078125 9.765625 10.15625 14.453125 
Q 15.234375 19.140625 23.046875 29.09375 
Q 30.859375 39.0625 33.203125 44.53125 
Q 35.546875 50 34.953125 53.90625 
Q 34.375 57.8125 31.25 60.34375 
Q 28.125 62.890625 24.015625 62.5 
Q 19.921875 62.109375 16.203125 59.375 
Q 12.5 56.640625 10.546875 51.171875 
L 3.125 52.34375 
Q 6.25 61.328125 11.125 65.421875 
Q 16.015625 69.53125 22.65625 69.921875 
Q 26.5625 70.3125 29.6875 69.71875 
Q 32.8125 69.140625 36.125 66.984375 
Q 39.453125 64.84375 41.59375 60.546875 
Q 43.75 56.25 43.15625 50.1875 
Q 42.578125 44.140625 37.109375 35.734375 
Q 31.640625 27.34375 16.015625 9.375 
L 44.140625 9.375 
L 44.140625 2.34375 
L 4.6875 2.34375 
z
" id="SimHei-50"/>
      </defs>
      <g transform="translate(124.404226 321.459)scale(0.1 -0.1)">
       <use xlink:href="#SimHei-50"/>
       <use x="50" xlink:href="#SimHei-48"/>
      </g>
     </g>
    </g>
    <g id="xtick_3">
     <g id="line2d_3">
      <g>
       <use style="stroke:#000000;stroke-width:0.8;" x="187.900541" xlink:href="#m2a22438ca7" y="307.584"/>
      </g>
     </g>
     <g id="text_3">
      <!-- 40 -->
      <defs>
       <path d="M 31.25 17.1875 
L 1.171875 17.1875 
L 1.171875 23.828125 
L 32.8125 69.53125 
L 38.671875 69.53125 
L 38.671875 23.828125 
L 48.046875 23.828125 
L 48.046875 17.1875 
L 38.671875 17.1875 
L 38.671875 2.34375 
L 31.25 2.34375 
z
M 31.25 23.828125 
L 31.25 54.6875 
L 9.375 23.828125 
z
" id="SimHei-52"/>
      </defs>
      <g transform="translate(182.900541 321.459)scale(0.1 -0.1)">
       <use xlink:href="#SimHei-52"/>
       <use x="50" xlink:href="#SimHei-48"/>
      </g>
     </g>
    </g>
    <g id="xtick_4">
     <g id="line2d_4">
      <g>
       <use style="stroke:#000000;stroke-width:0.8;" x="246.396855" xlink:href="#m2a22438ca7" y="307.584"/>
      </g>
     </g>
     <g id="text_4">
      <!-- 60 -->
      <defs>
       <path d="M 3.515625 19.53125 
Q 4.296875 30.859375 6.046875 34.765625 
Q 7.8125 38.671875 11.328125 44.53125 
L 27.34375 69.53125 
L 36.328125 69.53125 
L 19.921875 43.75 
Q 30.46875 46.484375 36.71875 42.96875 
Q 42.96875 39.453125 45.109375 34.953125 
Q 47.265625 30.46875 47.453125 25.1875 
Q 47.65625 19.921875 45.890625 14.84375 
Q 44.140625 9.765625 39.640625 5.65625 
Q 35.15625 1.5625 27.140625 1.171875 
Q 19.140625 0.78125 13.46875 4.09375 
Q 7.8125 7.421875 5.65625 13.46875 
Q 3.515625 19.53125 4.296875 30.859375 
z
M 12.5 16.015625 
Q 19.53125 8.59375 25.390625 8.203125 
Q 31.25 7.8125 35.15625 12.109375 
Q 39.0625 16.40625 39.0625 24.609375 
Q 39.0625 32.8125 34.171875 35.9375 
Q 29.296875 39.0625 23.234375 38.28125 
Q 17.1875 37.5 14.453125 32.421875 
Q 11.71875 27.34375 12.109375 21.671875 
Q 12.5 16.015625 19.53125 8.59375 
z
" id="SimHei-54"/>
      </defs>
      <g transform="translate(241.396855 321.459)scale(0.1 -0.1)">
       <use xlink:href="#SimHei-54"/>
       <use x="50" xlink:href="#SimHei-48"/>
      </g>
     </g>
    </g>
    <g id="xtick_5">
     <g id="line2d_5">
      <g>
       <use style="stroke:#000000;stroke-width:0.8;" x="304.89317" xlink:href="#m2a22438ca7" y="307.584"/>
      </g>
     </g>
     <g id="text_5">
      <!-- 80 -->
      <defs>
       <path d="M 2.734375 16.796875 
Q 2.734375 26.171875 5.078125 30.65625 
Q 7.421875 35.15625 12.890625 37.890625 
Q 8.203125 40.625 6.640625 43.9375 
Q 5.078125 47.265625 4.875 51.5625 
Q 4.6875 55.859375 6.046875 58.984375 
Q 7.421875 62.109375 10.15625 64.84375 
Q 12.890625 67.578125 16.203125 68.546875 
Q 19.53125 69.53125 23.4375 69.53125 
Q 27.34375 69.53125 30.46875 68.75 
Q 33.59375 67.96875 37.109375 65.421875 
Q 40.625 62.890625 42.1875 58.203125 
Q 43.75 53.515625 41.984375 47.265625 
Q 40.234375 41.015625 32.8125 37.5 
Q 39.453125 35.546875 42.1875 31.4375 
Q 44.921875 27.34375 44.921875 21.484375 
Q 44.921875 15.625 43.15625 12.109375 
Q 41.40625 8.59375 39.25 6.25 
Q 37.109375 3.90625 33.390625 2.53125 
Q 29.6875 1.171875 24.015625 1.171875 
Q 18.359375 1.171875 14.25 2.53125 
Q 10.15625 3.90625 7.421875 6.640625 
Q 4.6875 9.375 3.703125 13.078125 
Q 2.734375 16.796875 2.734375 26.171875 
z
M 10.9375 26.5625 
Q 10.546875 17.1875 12.296875 13.671875 
Q 14.0625 10.15625 18.75 9.171875 
Q 23.4375 8.203125 28.515625 9.375 
Q 33.59375 10.546875 35.546875 14.84375 
Q 37.5 19.140625 36.90625 23.4375 
Q 36.328125 27.734375 32.03125 30.65625 
Q 27.734375 33.59375 22.65625 33.203125 
Q 17.578125 32.8125 14.25 29.6875 
Q 10.9375 26.5625 10.546875 17.1875 
z
M 12.109375 56.25 
Q 12.109375 48.4375 14.84375 44.921875 
Q 17.578125 41.40625 23.4375 41.40625 
Q 29.296875 41.40625 32.21875 44.921875 
Q 35.15625 48.4375 34.953125 53.3125 
Q 34.765625 58.203125 31.4375 60.546875 
Q 28.125 62.890625 22.453125 62.5 
Q 16.796875 62.109375 14.453125 59.171875 
Q 12.109375 56.25 12.109375 48.4375 
z
" id="SimHei-56"/>
      </defs>
      <g transform="translate(299.89317 321.459)scale(0.1 -0.1)">
       <use xlink:href="#SimHei-56"/>
       <use x="50" xlink:href="#SimHei-48"/>
      </g>
     </g>
    </g>
    <g id="xtick_6">
     <g id="line2d_6">
      <g>
       <use style="stroke:#000000;stroke-width:0.8;" x="363.389484" xlink:href="#m2a22438ca7" y="307.584"/>
      </g>
     </g>
     <g id="text_6">
      <!-- 100 -->
      <defs>
       <path d="M 21.875 56.25 
Q 16.796875 51.171875 8.984375 46.484375 
L 8.984375 53.90625 
Q 18.75 60.546875 25 69.53125 
L 29.6875 69.53125 
L 29.6875 2.34375 
L 21.875 2.34375 
z
" id="SimHei-49"/>
      </defs>
      <g transform="translate(355.889484 321.459)scale(0.1 -0.1)">
       <use xlink:href="#SimHei-49"/>
       <use x="50" xlink:href="#SimHei-48"/>
       <use x="100" xlink:href="#SimHei-48"/>
      </g>
     </g>
    </g>
    <g id="text_7">
     <!-- 从新版本开始的天数 -->
     <defs>
      <path d="M 68.75 78.125 
Q 67.96875 73.828125 67.765625 68.75 
Q 67.578125 63.671875 68.15625 50.390625 
Q 68.75 37.109375 76.5625 22.0625 
Q 84.375 7.03125 95.3125 -0.78125 
Q 91.015625 -4.6875 88.671875 -8.203125 
Q 71.09375 7.8125 64.453125 33.59375 
Q 58.984375 8.59375 39.0625 -9.765625 
Q 36.328125 -6.640625 32.421875 -4.296875 
Q 44.53125 5.078125 50.78125 17.578125 
Q 57.03125 30.078125 58.59375 41.984375 
Q 60.15625 53.90625 59.375 79.296875 
Q 64.0625 78.515625 68.75 78.125 
z
M 33.984375 76.5625 
Q 33.203125 71.484375 32.421875 40.625 
Q 46.09375 26.5625 50.390625 21.09375 
Q 46.484375 18.75 43.75 14.84375 
Q 41.015625 20.3125 30.859375 32.03125 
Q 27.34375 14.0625 10.15625 -5.078125 
Q 9.375 -3.125 3.90625 0.390625 
Q 16.40625 12.890625 20.890625 25 
Q 25.390625 37.109375 25.390625 55.078125 
Q 25.390625 73.046875 25 77.734375 
Q 30.078125 76.5625 33.984375 76.5625 
z
" id="SimHei-20174"/>
      <path d="M 95.703125 72.65625 
Q 89.84375 72.65625 66.796875 70.3125 
L 66.796875 50.390625 
L 87.109375 50.390625 
Q 91.40625 50.390625 96.09375 50.78125 
L 96.09375 43.359375 
Q 90.625 43.75 86.71875 43.75 
L 86.71875 3.515625 
Q 86.71875 -3.125 87.109375 -10.546875 
L 78.90625 -10.546875 
Q 79.296875 -3.125 79.296875 3.125 
L 79.296875 43.75 
L 66.796875 43.75 
Q 66.796875 33.984375 66.015625 25 
Q 65.234375 16.015625 62.6875 7.21875 
Q 60.15625 -1.5625 55.078125 -10.9375 
Q 51.171875 -8.59375 47.265625 -7.03125 
Q 53.515625 1.953125 56.046875 11.90625 
Q 58.59375 21.875 58.984375 29.296875 
Q 59.375 36.71875 59.375 51.5625 
Q 59.375 66.796875 58.984375 75.78125 
Q 76.5625 76.5625 90.625 81.25 
Q 93.75 75 95.703125 72.65625 
z
M 46.484375 59.765625 
Q 43.75 58.203125 40.234375 47.65625 
Q 46.875 47.65625 53.90625 48.046875 
L 53.90625 40.234375 
Q 47.265625 40.625 33.984375 40.625 
L 33.984375 30.859375 
Q 46.09375 30.859375 53.125 31.25 
L 53.125 23.4375 
Q 46.09375 23.828125 33.984375 23.828125 
L 33.984375 0 
Q 33.984375 -5.859375 30.265625 -7.8125 
Q 26.5625 -9.765625 20.703125 -9.765625 
Q 19.140625 -5.078125 16.796875 -1.171875 
Q 22.265625 -1.5625 24.40625 -1.171875 
Q 26.5625 -0.78125 26.5625 2.34375 
L 26.5625 23.828125 
Q 14.0625 23.828125 7.03125 23.4375 
L 7.03125 31.25 
Q 14.453125 30.859375 26.5625 30.859375 
L 26.5625 40.625 
Q 12.109375 40.625 5.078125 40.234375 
L 5.078125 48.046875 
Q 12.109375 47.65625 18.359375 47.65625 
L 33.203125 47.65625 
Q 36.328125 57.03125 37.890625 62.109375 
Q 41.015625 61.328125 46.484375 59.765625 
z
M 33.203125 82.421875 
Q 35.15625 74.21875 35.546875 71.09375 
Q 44.53125 71.09375 52.34375 71.484375 
L 52.34375 63.671875 
Q 44.140625 64.0625 39.0625 64.0625 
L 20.3125 64.0625 
Q 13.671875 64.0625 7.421875 63.671875 
L 7.421875 71.484375 
Q 14.0625 71.09375 20.3125 71.09375 
L 27.34375 71.09375 
Q 26.5625 75.390625 25 80.078125 
Q 28.90625 81.25 33.203125 82.421875 
z
M 23.828125 16.40625 
Q 21.484375 13.671875 18.359375 9.5625 
Q 15.234375 5.46875 9.375 -1.953125 
Q 6.640625 0.78125 3.515625 2.734375 
Q 11.71875 11.71875 16.40625 21.484375 
Q 20.3125 18.359375 23.828125 16.40625 
z
M 42.578125 20.3125 
Q 47.265625 14.0625 51.171875 7.421875 
Q 47.265625 5.46875 44.921875 2.34375 
Q 41.796875 9.375 36.71875 16.015625 
Q 39.453125 18.359375 42.578125 20.3125 
z
M 19.921875 61.71875 
Q 22.65625 56.25 24.609375 50.78125 
Q 21.09375 50 17.96875 48.4375 
Q 16.015625 54.296875 13.671875 58.984375 
Q 16.40625 60.546875 19.921875 61.71875 
z
" id="SimHei-26032"/>
      <path d="M 88.28125 78.90625 
Q 90.234375 73.828125 92.578125 71.09375 
Q 84.765625 70.3125 76.359375 69.328125 
Q 67.96875 68.359375 55.859375 67.578125 
L 55.859375 53.125 
L 89.0625 53.125 
Q 87.5 40.234375 84.953125 28.515625 
Q 82.421875 16.796875 77.34375 7.8125 
Q 80.859375 4.296875 85.734375 1.359375 
Q 90.625 -1.5625 95.3125 -3.125 
Q 92.1875 -5.46875 89.0625 -10.15625 
Q 84.765625 -7.421875 80.46875 -4.09375 
Q 76.171875 -0.78125 73.046875 2.34375 
Q 66.796875 -4.296875 56.640625 -10.546875 
Q 53.90625 -7.421875 50.390625 -4.296875 
Q 60.546875 -0.390625 68.359375 8.59375 
Q 64.84375 15.234375 62.109375 23.828125 
Q 59.765625 32.03125 58.203125 47.265625 
L 55.859375 47.265625 
Q 55.46875 27.34375 53.125 16.015625 
Q 50.78125 4.6875 45.3125 -5.078125 
Q 41.40625 -1.953125 38.28125 -1.171875 
Q 42.1875 3.515625 44.921875 12.109375 
Q 47.65625 20.703125 48.4375 30.46875 
Q 49.21875 40.625 49.21875 53.125 
Q 49.21875 66.015625 48.4375 73.828125 
Q 59.375 73.4375 70.5 75 
Q 81.640625 76.5625 88.28125 78.90625 
z
M 19.921875 76.5625 
Q 19.140625 70.3125 19.140625 64.84375 
L 19.140625 51.171875 
L 28.90625 51.171875 
L 28.90625 69.53125 
Q 28.90625 73.828125 28.515625 78.90625 
L 35.9375 78.90625 
Q 35.546875 74.609375 35.546875 69.53125 
L 35.546875 51.171875 
Q 40.234375 51.171875 43.75 51.5625 
L 43.75 44.921875 
Q 39.453125 45.3125 34.765625 45.3125 
L 19.140625 45.3125 
L 19.140625 32.421875 
L 37.890625 32.421875 
Q 37.5 26.953125 37.5 17.1875 
L 37.5 -7.03125 
L 30.46875 -7.03125 
Q 30.859375 6.640625 30.859375 26.5625 
L 19.140625 26.5625 
Q 18.75 17.578125 17.1875 9.171875 
Q 15.625 0.78125 12.109375 -8.203125 
Q 9.375 -6.25 4.6875 -4.6875 
Q 12.5 8.984375 12.5 37.109375 
Q 12.5 65.625 12.109375 77.734375 
Q 16.015625 76.953125 19.921875 76.5625 
z
M 64.84375 47.265625 
Q 66.015625 36.71875 67.96875 28.125 
Q 70.3125 19.140625 73.046875 14.453125 
Q 78.515625 26.5625 80.859375 47.265625 
L 64.84375 47.265625 
z
" id="SimHei-29256"/>
      <path d="M 46.09375 61.328125 
L 46.09375 69.140625 
Q 46.09375 75.390625 45.703125 80.859375 
L 54.296875 80.859375 
Q 53.90625 76.5625 53.90625 69.53125 
L 53.90625 61.328125 
L 75.78125 61.328125 
Q 82.421875 61.328125 91.40625 61.71875 
L 91.40625 54.296875 
Q 82.8125 54.6875 76.171875 54.6875 
L 60.15625 54.6875 
Q 65.625 36.71875 75.96875 26.359375 
Q 86.328125 16.015625 94.921875 12.5 
Q 91.40625 9.765625 88.28125 5.078125 
Q 75 14.0625 66.59375 25.578125 
Q 58.203125 37.109375 53.90625 52.34375 
L 53.90625 15.625 
L 58.984375 15.625 
Q 65.234375 15.625 71.875 16.015625 
L 71.875 8.59375 
Q 65.234375 8.984375 58.59375 8.984375 
L 53.90625 8.984375 
Q 53.90625 0 54.296875 -9.375 
L 45.703125 -9.375 
Q 46.09375 0 46.09375 8.984375 
L 41.015625 8.984375 
Q 34.765625 8.984375 28.515625 8.59375 
L 28.515625 16.015625 
Q 34.765625 15.625 41.015625 15.625 
L 46.09375 15.625 
L 46.09375 51.5625 
Q 39.84375 35.546875 32.21875 24.609375 
Q 24.609375 13.671875 11.71875 2.734375 
Q 8.59375 7.03125 4.296875 8.984375 
Q 17.1875 16.796875 25.78125 28.515625 
Q 34.375 40.234375 39.453125 54.6875 
L 22.265625 54.6875 
Q 16.015625 54.6875 8.984375 54.296875 
L 8.984375 61.71875 
Q 16.015625 61.328125 21.875 61.328125 
z
" id="SimHei-26412"/>
      <path d="M 34.375 69.53125 
Q 22.65625 69.53125 12.5 69.140625 
L 12.5 76.953125 
Q 22.265625 76.5625 30.46875 76.5625 
L 72.65625 76.5625 
Q 80.46875 76.5625 89.453125 76.953125 
L 89.453125 69.140625 
Q 80.859375 69.53125 70.3125 69.53125 
L 70.3125 40.625 
L 77.734375 40.625 
Q 85.546875 40.625 94.53125 41.015625 
L 94.53125 33.203125 
Q 85.546875 33.984375 77.734375 33.984375 
L 70.3125 33.984375 
L 70.3125 12.890625 
Q 70.3125 3.125 70.703125 -8.984375 
L 61.71875 -8.984375 
Q 62.109375 3.125 62.109375 12.890625 
L 62.109375 33.984375 
L 42.578125 33.984375 
Q 41.40625 26.5625 39.453125 20.109375 
Q 37.5 13.671875 33.203125 7.03125 
Q 28.90625 0.390625 17.1875 -8.984375 
Q 14.0625 -5.46875 7.8125 -2.34375 
Q 15.625 0.78125 21.28125 6.4375 
Q 26.953125 12.109375 30.265625 19.71875 
Q 33.59375 27.34375 33.984375 33.984375 
L 25 33.984375 
Q 14.84375 33.984375 5.46875 32.8125 
L 5.46875 41.015625 
Q 15.234375 40.625 25 40.625 
L 34.375 40.625 
L 34.375 69.53125 
z
M 62.109375 40.625 
L 62.109375 69.53125 
L 42.578125 69.53125 
L 42.578125 40.625 
z
" id="SimHei-24320"/>
      <path d="M 27.34375 79.296875 
Q 25.78125 76.5625 24.796875 71.671875 
Q 23.828125 66.796875 23.046875 60.546875 
L 39.84375 60.546875 
Q 37.5 33.59375 30.46875 17.1875 
Q 35.546875 13.28125 42.578125 6.640625 
Q 39.84375 4.296875 37.109375 0.78125 
Q 31.25 7.8125 27.34375 10.546875 
Q 23.828125 4.296875 19.53125 -0.96875 
Q 15.234375 -6.25 10.9375 -10.546875 
Q 9.375 -8.203125 3.90625 -5.46875 
Q 8.984375 -1.953125 13.46875 3.125 
Q 17.96875 8.203125 21.484375 15.234375 
Q 12.5 21.875 7.8125 24.21875 
Q 13.671875 45.703125 14.84375 53.515625 
Q 10.15625 53.515625 5.078125 53.125 
L 5.078125 60.9375 
Q 10.546875 60.546875 16.015625 60.546875 
Q 18.359375 75.390625 18.359375 81.640625 
Q 24.21875 80.078125 27.34375 79.296875 
z
M 89.453125 32.03125 
Q 89.0625 25.78125 89.0625 10.15625 
Q 89.0625 -5.078125 89.453125 -10.15625 
L 81.25 -10.15625 
L 81.25 -1.5625 
L 53.90625 -1.5625 
L 53.90625 -10.546875 
L 46.09375 -10.546875 
Q 46.484375 -4.6875 46.484375 10.546875 
Q 46.484375 25.78125 46.09375 32.03125 
L 89.453125 32.03125 
z
M 68.75 77.34375 
Q 58.59375 60.546875 50.78125 49.21875 
Q 60.546875 49.21875 66.40625 49.609375 
Q 72.265625 50 81.25 50.390625 
Q 76.171875 57.421875 72.265625 60.9375 
Q 75.390625 62.5 78.515625 66.015625 
Q 89.84375 51.5625 95.703125 44.53125 
Q 93.75 43.359375 89.453125 39.84375 
Q 87.109375 43.359375 85.15625 44.921875 
Q 71.484375 44.140625 61.515625 43.15625 
Q 51.5625 42.1875 44.140625 40.234375 
Q 43.359375 43.75 40.625 48.4375 
Q 44.921875 50.390625 50.578125 60.15625 
Q 56.25 69.921875 59.765625 81.25 
Q 62.890625 78.90625 68.75 77.34375 
z
M 81.25 5.078125 
L 81.25 25 
L 53.90625 25 
L 53.90625 5.078125 
z
M 16.015625 27.734375 
Q 20.3125 24.21875 24.609375 21.875 
Q 26.953125 26.953125 29.296875 36.515625 
Q 31.640625 46.09375 32.03125 53.515625 
L 21.875 53.515625 
Q 20.3125 46.09375 16.015625 27.734375 
z
" id="SimHei-22987"/>
      <path d="M 32.8125 77.734375 
Q 30.859375 74.21875 27.34375 61.71875 
L 44.921875 61.71875 
Q 44.53125 55.078125 44.53125 44.921875 
L 44.53125 10.546875 
Q 44.53125 4.6875 44.921875 -6.25 
L 37.109375 -6.25 
L 37.109375 1.5625 
L 17.1875 1.5625 
L 17.1875 -7.03125 
L 9.375 -7.03125 
Q 9.765625 5.46875 9.765625 8.59375 
L 9.765625 44.53125 
Q 9.765625 55.078125 9.375 61.71875 
L 20.703125 61.71875 
Q 22.65625 70.703125 23.828125 80.46875 
Q 29.296875 78.515625 32.8125 77.734375 
z
M 91.015625 48.046875 
Q 90.625 24.21875 89.0625 2.734375 
Q 88.28125 -4.296875 81.640625 -6.640625 
Q 75 -8.984375 66.796875 -9.765625 
Q 66.40625 -5.46875 63.28125 -0.78125 
Q 71.09375 -1.171875 75.578125 -0.390625 
Q 80.078125 0.390625 81.25 3.125 
Q 82.421875 5.859375 83 19.140625 
Q 83.59375 32.421875 83.984375 56.25 
L 61.328125 56.25 
Q 58.203125 48.828125 52.34375 38.671875 
Q 49.609375 41.40625 45.703125 42.96875 
Q 49.21875 47.65625 52.34375 54.296875 
Q 55.46875 60.9375 57.8125 68.75 
Q 60.15625 76.5625 60.546875 80.859375 
Q 66.015625 78.515625 69.921875 77.34375 
Q 67.96875 74.21875 66.59375 70.5 
Q 65.234375 66.796875 63.671875 63.28125 
L 91.40625 63.28125 
Q 91.015625 55.078125 91.015625 48.046875 
z
M 37.109375 8.203125 
L 37.109375 28.90625 
L 17.1875 28.90625 
L 17.1875 8.203125 
z
M 37.109375 35.546875 
L 37.109375 55.078125 
L 17.1875 55.078125 
L 17.1875 35.546875 
z
M 67.96875 32.03125 
Q 70.3125 27.34375 73.4375 19.921875 
Q 70.703125 18.75 66.015625 16.015625 
Q 63.28125 23.4375 60.9375 28.703125 
Q 58.59375 33.984375 56.25 37.5 
Q 58.984375 39.0625 63.28125 41.40625 
z
" id="SimHei-30340"/>
      <path d="M 69.921875 76.5625 
Q 76.953125 76.5625 83.984375 76.953125 
L 83.984375 68.75 
Q 76.953125 69.140625 69.921875 69.140625 
L 53.90625 69.140625 
L 53.90625 48.046875 
L 78.90625 48.046875 
Q 86.328125 48.046875 92.1875 48.4375 
L 92.1875 40.234375 
Q 86.71875 40.625 79.296875 40.625 
L 55.078125 40.625 
Q 60.546875 25.78125 70.703125 15.234375 
Q 80.859375 4.6875 96.875 0.78125 
Q 91.40625 -3.515625 90.234375 -7.03125 
Q 78.125 -2.734375 67.96875 6.4375 
Q 57.8125 15.625 50.390625 32.8125 
Q 45.703125 16.796875 35.546875 7.21875 
Q 25.390625 -2.34375 10.15625 -8.984375 
Q 8.59375 -5.078125 3.515625 -1.5625 
Q 14.84375 1.5625 27.34375 11.515625 
Q 39.84375 21.484375 44.921875 40.625 
L 23.4375 40.625 
Q 14.84375 40.625 8.984375 40.234375 
L 8.984375 48.4375 
Q 15.234375 48.046875 23.4375 48.046875 
L 46.09375 48.046875 
L 46.09375 69.140625 
L 29.6875 69.140625 
Q 21.484375 69.140625 15.625 68.75 
L 15.625 76.953125 
Q 21.875 76.5625 29.6875 76.5625 
z
" id="SimHei-22825"/>
      <path d="M 70.703125 76.953125 
Q 69.921875 75 68.75 71.671875 
Q 67.578125 68.359375 65.234375 59.765625 
L 83.203125 59.765625 
Q 87.109375 59.765625 92.578125 60.15625 
L 92.578125 53.125 
Q 88.28125 53.515625 85.9375 53.515625 
Q 85.9375 47.265625 83.78125 33.78125 
Q 81.640625 20.3125 76.171875 10.546875 
Q 80.078125 5.859375 84.953125 2.140625 
Q 89.84375 -1.5625 94.140625 -3.125 
Q 89.453125 -6.640625 87.890625 -9.765625 
Q 83.203125 -7.03125 79.296875 -3.515625 
Q 75.390625 0 71.484375 5.078125 
Q 67.1875 0.390625 62.296875 -2.921875 
Q 57.421875 -6.25 50 -10.15625 
Q 48.046875 -6.640625 44.53125 -4.6875 
Q 50.390625 -2.34375 57.03125 1.953125 
Q 63.671875 6.25 67.1875 10.546875 
Q 64.453125 16.015625 61.90625 22.265625 
Q 59.375 28.515625 57.421875 38.671875 
Q 56.25 35.546875 53.515625 30.46875 
Q 50.78125 32.03125 46.875 33.59375 
Q 53.125 44.53125 57.03125 57.421875 
Q 60.9375 70.3125 62.109375 79.6875 
Q 66.796875 77.734375 70.703125 76.953125 
z
M 32.8125 35.15625 
Q 31.25 33.59375 29.296875 30.078125 
L 50.78125 30.078125 
Q 48.4375 20.3125 42.578125 10.546875 
Q 48.828125 8.203125 52.34375 6.25 
Q 50.390625 3.515625 48.828125 0.390625 
Q 45.3125 2.734375 38.28125 5.078125 
Q 30.46875 -3.515625 11.328125 -10.15625 
Q 9.375 -5.859375 6.25 -4.296875 
Q 24.609375 0 31.25 7.421875 
Q 20.3125 10.15625 13.28125 12.109375 
Q 15.625 15.625 19.53125 23.828125 
Q 15.625 23.828125 6.640625 23.4375 
L 6.640625 30.46875 
Q 14.0625 30.078125 21.875 30.078125 
Q 23.4375 33.59375 24.21875 37.890625 
Q 28.515625 36.328125 32.8125 35.15625 
z
M 27.734375 61.71875 
Q 27.734375 71.09375 27.34375 79.6875 
L 35.15625 79.6875 
Q 34.765625 71.484375 34.765625 61.71875 
Q 48.046875 61.71875 53.515625 62.109375 
L 53.515625 55.078125 
Q 48.046875 55.46875 34.765625 55.46875 
Q 34.765625 44.140625 35.15625 37.890625 
L 27.34375 37.890625 
Q 27.734375 43.359375 27.734375 51.5625 
Q 25.78125 48.4375 20.3125 43.546875 
Q 14.84375 38.671875 10.15625 35.9375 
Q 8.203125 39.453125 4.296875 41.015625 
Q 7.8125 42.1875 13.671875 46.484375 
Q 19.53125 50.78125 22.65625 55.46875 
Q 14.84375 55.46875 7.8125 55.078125 
L 7.8125 62.109375 
Q 14.453125 61.71875 27.734375 61.71875 
z
M 62.109375 49.609375 
Q 65.625 26.5625 71.875 17.578125 
Q 75.78125 26.5625 77.140625 35.734375 
Q 78.515625 44.921875 78.90625 53.515625 
L 63.671875 53.515625 
L 62.109375 49.609375 
z
M 22.65625 15.625 
Q 27.34375 14.453125 35.546875 12.5 
Q 38.671875 16.40625 41.40625 23.828125 
L 26.953125 23.828125 
Q 25 19.921875 22.65625 15.625 
z
M 51.953125 75.390625 
Q 50 72.265625 48.828125 69.53125 
Q 47.65625 66.796875 45.703125 62.890625 
Q 42.578125 64.453125 39.453125 65.234375 
Q 42.578125 70.3125 45.3125 78.125 
Q 49.21875 76.171875 51.953125 75.390625 
z
M 40.234375 52.734375 
Q 45.3125 47.65625 50 42.578125 
Q 47.65625 40.625 44.921875 37.890625 
Q 39.453125 44.53125 35.9375 48.4375 
Q 38.28125 50.390625 40.234375 52.734375 
z
M 14.453125 78.125 
Q 19.921875 72.65625 23.4375 67.1875 
L 17.578125 63.671875 
Q 14.84375 69.140625 9.375 73.828125 
Q 12.890625 76.171875 14.453125 78.125 
z
" id="SimHei-25968"/>
     </defs>
     <g transform="translate(191.16 334.794937)scale(0.1 -0.1)">
      <use xlink:href="#SimHei-20174"/>
      <use x="100" xlink:href="#SimHei-26032"/>
      <use x="200" xlink:href="#SimHei-29256"/>
      <use x="300" xlink:href="#SimHei-26412"/>
      <use x="400" xlink:href="#SimHei-24320"/>
      <use x="500" xlink:href="#SimHei-22987"/>
      <use x="600" xlink:href="#SimHei-30340"/>
      <use x="700" xlink:href="#SimHei-22825"/>
      <use x="800" xlink:href="#SimHei-25968"/>
     </g>
    </g>
   </g>
   <g id="matplotlib.axis_2">
    <g id="ytick_1">
     <g id="line2d_7">
      <defs>
       <path d="M 0 0 
L -3.5 0 
" id="m0a70aeba16" style="stroke:#000000;stroke-width:0.8;"/>
      </defs>
      <g>
       <use style="stroke:#000000;stroke-width:0.8;" x="57.6" xlink:href="#m0a70aeba16" y="296.391361"/>
      </g>
     </g>
     <g id="text_8">
      <!-- 0 -->
      <g transform="translate(45.6 299.828861)scale(0.1 -0.1)">
       <use xlink:href="#SimHei-48"/>
      </g>
     </g>
    </g>
    <g id="ytick_2">
     <g id="line2d_8">
      <g>
       <use style="stroke:#000000;stroke-width:0.8;" x="57.6" xlink:href="#m0a70aeba16" y="262.515334"/>
      </g>
     </g>
     <g id="text_9">
      <!-- 2500 -->
      <defs>
       <path d="M 8.59375 20.703125 
Q 11.328125 10.15625 17.96875 8.984375 
Q 24.609375 7.8125 28.703125 10.34375 
Q 32.8125 12.890625 34.5625 16.984375 
Q 36.328125 21.09375 36.125 26.171875 
Q 35.9375 31.25 33.390625 34.765625 
Q 30.859375 38.28125 26.953125 39.453125 
Q 23.046875 40.625 18.15625 39.453125 
Q 13.28125 38.28125 10.15625 33.984375 
L 3.515625 34.765625 
Q 4.296875 37.109375 10.9375 68.359375 
L 41.796875 68.359375 
L 41.796875 61.328125 
L 16.796875 61.328125 
Q 14.84375 50.78125 12.890625 44.53125 
Q 18.75 47.265625 23.828125 47.0625 
Q 28.90625 46.875 33.59375 44.71875 
Q 38.28125 42.578125 40.421875 38.859375 
Q 42.578125 35.15625 43.546875 31.4375 
Q 44.53125 27.734375 44.328125 23.4375 
Q 44.140625 19.140625 42.578125 14.640625 
Q 41.015625 10.15625 37.890625 7.21875 
Q 34.765625 4.296875 30.265625 2.53125 
Q 25.78125 0.78125 19.921875 1.171875 
Q 14.0625 1.5625 8.78125 5.46875 
Q 3.515625 9.375 1.5625 18.75 
z
" id="SimHei-53"/>
      </defs>
      <g transform="translate(30.6 265.952834)scale(0.1 -0.1)">
       <use xlink:href="#SimHei-50"/>
       <use x="50" xlink:href="#SimHei-53"/>
       <use x="100" xlink:href="#SimHei-48"/>
       <use x="150" xlink:href="#SimHei-48"/>
      </g>
     </g>
    </g>
    <g id="ytick_3">
     <g id="line2d_9">
      <g>
       <use style="stroke:#000000;stroke-width:0.8;" x="57.6" xlink:href="#m0a70aeba16" y="228.639307"/>
      </g>
     </g>
     <g id="text_10">
      <!-- 5000 -->
      <g transform="translate(30.6 232.076807)scale(0.1 -0.1)">
       <use xlink:href="#SimHei-53"/>
       <use x="50" xlink:href="#SimHei-48"/>
       <use x="100" xlink:href="#SimHei-48"/>
       <use x="150" xlink:href="#SimHei-48"/>
      </g>
     </g>
    </g>
    <g id="ytick_4">
     <g id="line2d_10">
      <g>
       <use style="stroke:#000000;stroke-width:0.8;" x="57.6" xlink:href="#m0a70aeba16" y="194.76328"/>
      </g>
     </g>
     <g id="text_11">
      <!-- 7500 -->
      <defs>
       <path d="M 13.28125 2.34375 
Q 20.3125 32.03125 37.890625 61.328125 
L 4.296875 61.328125 
L 4.296875 68.359375 
L 46.09375 68.359375 
L 46.09375 61.71875 
Q 27.734375 32.03125 21.875 2.34375 
L 13.28125 2.34375 
z
" id="SimHei-55"/>
      </defs>
      <g transform="translate(30.6 198.20078)scale(0.1 -0.1)">
       <use xlink:href="#SimHei-55"/>
       <use x="50" xlink:href="#SimHei-53"/>
       <use x="100" xlink:href="#SimHei-48"/>
       <use x="150" xlink:href="#SimHei-48"/>
      </g>
     </g>
    </g>
    <g id="ytick_5">
     <g id="line2d_11">
      <g>
       <use style="stroke:#000000;stroke-width:0.8;" x="57.6" xlink:href="#m0a70aeba16" y="160.887253"/>
      </g>
     </g>
     <g id="text_12">
      <!-- 10000 -->
      <g transform="translate(25.6 164.324753)scale(0.1 -0.1)">
       <use xlink:href="#SimHei-49"/>
       <use x="50" xlink:href="#SimHei-48"/>
       <use x="100" xlink:href="#SimHei-48"/>
       <use x="150" xlink:href="#SimHei-48"/>
       <use x="200" xlink:href="#SimHei-48"/>
      </g>
     </g>
    </g>
    <g id="ytick_6">
     <g id="line2d_12">
      <g>
       <use style="stroke:#000000;stroke-width:0.8;" x="57.6" xlink:href="#m0a70aeba16" y="127.011226"/>
      </g>
     </g>
     <g id="text_13">
      <!-- 12500 -->
      <g transform="translate(25.6 130.448726)scale(0.1 -0.1)">
       <use xlink:href="#SimHei-49"/>
       <use x="50" xlink:href="#SimHei-50"/>
       <use x="100" xlink:href="#SimHei-53"/>
       <use x="150" xlink:href="#SimHei-48"/>
       <use x="200" xlink:href="#SimHei-48"/>
      </g>
     </g>
    </g>
    <g id="ytick_7">
     <g id="line2d_13">
      <g>
       <use style="stroke:#000000;stroke-width:0.8;" x="57.6" xlink:href="#m0a70aeba16" y="93.135199"/>
      </g>
     </g>
     <g id="text_14">
      <!-- 15000 -->
      <g transform="translate(25.6 96.572699)scale(0.1 -0.1)">
       <use xlink:href="#SimHei-49"/>
       <use x="50" xlink:href="#SimHei-53"/>
       <use x="100" xlink:href="#SimHei-48"/>
       <use x="150" xlink:href="#SimHei-48"/>
       <use x="200" xlink:href="#SimHei-48"/>
      </g>
     </g>
    </g>
    <g id="ytick_8">
     <g id="line2d_14">
      <g>
       <use style="stroke:#000000;stroke-width:0.8;" x="57.6" xlink:href="#m0a70aeba16" y="59.259173"/>
      </g>
     </g>
     <g id="text_15">
      <!-- 17500 -->
      <g transform="translate(25.6 62.696673)scale(0.1 -0.1)">
       <use xlink:href="#SimHei-49"/>
       <use x="50" xlink:href="#SimHei-55"/>
       <use x="100" xlink:href="#SimHei-53"/>
       <use x="150" xlink:href="#SimHei-48"/>
       <use x="200" xlink:href="#SimHei-48"/>
      </g>
     </g>
    </g>
    <g id="text_16">
     <!-- 金币值 -->
     <defs>
      <path d="M 28.125 19.53125 
Q 34.375 10.9375 39.0625 3.515625 
Q 36.328125 1.953125 33.59375 -0.78125 
L 45.703125 -0.78125 
L 45.703125 21.875 
L 32.421875 21.875 
Q 26.953125 21.875 17.1875 21.484375 
L 17.1875 28.90625 
Q 26.953125 28.515625 32.03125 28.515625 
L 45.703125 28.515625 
L 45.703125 40.625 
Q 32.8125 40.625 25.390625 40.234375 
L 25.390625 46.484375 
Q 19.140625 41.796875 10.15625 36.71875 
Q 7.8125 40.234375 4.296875 43.359375 
Q 11.71875 46.09375 19.53125 51.5625 
Q 27.34375 57.03125 34.765625 65.03125 
Q 42.1875 73.046875 46.875 82.03125 
Q 47.65625 81.25 55.078125 77.734375 
L 52.734375 75.390625 
Q 57.03125 70.703125 63.28125 64.84375 
Q 69.53125 58.984375 78.125 54.484375 
Q 86.71875 50 96.09375 47.265625 
Q 92.96875 44.140625 91.015625 39.84375 
Q 83.203125 42.578125 75 46.875 
L 75 40.234375 
Q 67.1875 40.625 62.5 40.625 
L 53.125 40.625 
L 53.125 28.515625 
L 66.796875 28.515625 
Q 73.4375 28.515625 83.203125 28.90625 
L 83.203125 21.484375 
Q 73.828125 21.875 66.796875 21.875 
L 53.125 21.875 
L 53.125 -0.78125 
L 60.546875 -0.78125 
Q 69.53125 14.84375 70.3125 20.3125 
Q 73.828125 17.96875 78.90625 15.625 
Q 76.171875 12.109375 68.359375 -0.78125 
Q 80.46875 -0.78125 91.796875 -0.390625 
L 91.796875 -7.8125 
Q 80.46875 -7.421875 73.4375 -7.421875 
L 26.953125 -7.421875 
Q 18.75 -7.421875 10.9375 -7.8125 
L 10.9375 -0.390625 
Q 19.140625 -0.78125 26.953125 -0.78125 
L 31.640625 -0.78125 
Q 28.90625 5.46875 21.875 14.84375 
Q 25.390625 17.1875 28.125 19.53125 
z
M 26.5625 47.65625 
Q 32.421875 47.265625 37.5 47.265625 
L 60.9375 47.265625 
Q 66.796875 47.65625 73.4375 47.65625 
Q 66.796875 52.34375 59.953125 58.78125 
Q 53.125 65.234375 48.828125 70.703125 
Q 44.53125 64.84375 38.46875 58.78125 
Q 32.421875 52.734375 26.5625 47.65625 
z
" id="SimHei-37329"/>
      <path d="M 90.234375 70.3125 
Q 84.765625 69.53125 53.515625 67.578125 
L 53.515625 49.609375 
L 87.109375 49.609375 
Q 86.71875 41.796875 86.71875 33.984375 
L 86.71875 12.890625 
Q 86.71875 4.6875 82.21875 2.921875 
Q 77.734375 1.171875 69.53125 -0.390625 
Q 68.359375 4.296875 65.625 8.59375 
Q 73.4375 8.59375 75.96875 9.375 
Q 78.515625 10.15625 78.515625 15.625 
L 78.515625 42.96875 
L 53.515625 42.96875 
L 53.515625 7.8125 
Q 53.515625 -0.78125 53.90625 -9.375 
L 45.3125 -9.375 
Q 45.703125 -0.78125 45.703125 7.8125 
L 45.703125 42.96875 
L 21.09375 42.96875 
L 21.09375 2.34375 
L 12.5 2.34375 
Q 12.890625 10.9375 12.890625 18.359375 
L 12.890625 33.203125 
Q 12.890625 41.015625 12.5 49.609375 
L 45.703125 49.609375 
L 45.703125 66.796875 
Q 21.484375 66.015625 10.15625 65.234375 
Q 9.375 69.140625 7.421875 72.65625 
Q 21.484375 72.265625 46.484375 73.625 
Q 71.484375 75 85.546875 78.515625 
Q 87.890625 73.828125 90.234375 70.3125 
z
" id="SimHei-24065"/>
      <path d="M 57.421875 69.53125 
L 57.421875 79.6875 
Q 62.109375 79.296875 67.96875 78.90625 
Q 66.015625 76.171875 65.625 69.53125 
L 80.078125 69.53125 
Q 86.71875 69.53125 91.796875 69.921875 
L 91.796875 62.890625 
Q 86.328125 63.28125 80.078125 63.28125 
L 65.234375 63.28125 
L 64.453125 54.6875 
L 84.375 54.6875 
Q 83.984375 50 83.984375 42.1875 
L 83.984375 2.34375 
Q 91.796875 2.34375 95.3125 2.734375 
L 95.3125 -4.296875 
Q 90.234375 -3.90625 81.25 -3.90625 
L 44.53125 -3.90625 
Q 35.546875 -3.90625 29.6875 -4.296875 
L 29.6875 2.734375 
Q 33.203125 2.34375 40.625 2.34375 
L 40.625 42.1875 
Q 40.625 49.609375 40.234375 54.6875 
L 56.25 54.6875 
L 57.03125 63.28125 
L 50 63.28125 
Q 40.234375 63.28125 34.765625 62.890625 
L 34.765625 69.921875 
Q 39.84375 69.53125 50 69.53125 
z
M 34.765625 76.5625 
Q 31.640625 73.046875 25.78125 58.59375 
L 25.78125 7.03125 
Q 25.78125 -1.171875 26.171875 -8.59375 
L 17.96875 -8.59375 
Q 18.359375 -1.953125 18.359375 5.859375 
L 18.359375 46.09375 
Q 13.671875 38.28125 9.765625 33.59375 
Q 6.640625 37.890625 3.90625 40.234375 
Q 7.8125 44.140625 14.640625 55.265625 
Q 21.484375 66.40625 25.390625 80.46875 
Q 30.859375 77.734375 34.765625 76.5625 
z
M 76.953125 41.40625 
L 76.953125 49.21875 
L 48.046875 49.21875 
L 48.046875 41.40625 
z
M 76.953125 2.34375 
L 76.953125 9.765625 
L 48.046875 9.765625 
L 48.046875 2.34375 
z
M 76.953125 15.625 
L 76.953125 22.65625 
L 48.046875 22.65625 
L 48.046875 15.625 
z
M 76.953125 28.515625 
L 76.953125 35.546875 
L 48.046875 35.546875 
L 48.046875 28.515625 
z
" id="SimHei-20540"/>
     </defs>
     <g transform="translate(20.35 189.528)rotate(-90)scale(0.1 -0.1)">
      <use xlink:href="#SimHei-37329"/>
      <use x="100" xlink:href="#SimHei-24065"/>
      <use x="200" xlink:href="#SimHei-20540"/>
     </g>
    </g>
   </g>
   <g id="line2d_15">
    <path clip-path="url(#p743c44e41a)" d="M 73.832727 293.654012 
L 76.757543 292.252625 
L 79.682359 290.821156 
L 82.607174 290.115285 
L 85.53199 288.387915 
L 88.456806 286.219656 
L 91.381622 284.857647 
L 94.306437 284.851944 
L 97.231253 283.507931 
L 100.156069 282.199256 
L 103.080885 282.200185 
L 106.0057 281.326341 
L 108.930516 279.867285 
L 111.855332 279.460092 
L 114.780147 279.25063 
L 117.704963 278.112638 
L 120.629779 278.206452 
L 123.554595 277.181813 
L 126.47941 275.929489 
L 129.404226 276.0957 
L 132.329042 275.21279 
L 135.253857 273.466408 
L 138.178673 272.146937 
L 141.103489 271.974867 
L 144.028305 271.938374 
L 146.95312 270.853431 
L 149.877936 269.32659 
L 152.802752 268.149783 
L 155.727568 267.8886 
L 158.652383 267.996508 
L 161.577199 267.323955 
L 164.502015 266.100689 
L 167.42683 265.093277 
L 170.351646 264.12046 
L 173.276462 262.733159 
L 176.201278 261.423885 
L 179.126093 261.020163 
L 182.050909 261.203546 
L 184.975725 260.921746 
L 187.900541 259.799225 
L 190.825356 258.28812 
L 193.750172 256.85875 
L 196.674988 255.891439 
L 199.599803 255.688141 
L 202.524619 255.872765 
L 205.449435 255.652004 
L 208.374251 254.62692 
L 211.299066 253.437459 
L 214.223882 252.859681 
L 217.148698 252.959389 
L 220.073514 253.082531 
L 222.998329 252.614104 
L 225.923145 251.606738 
L 228.847961 250.478616 
L 231.772776 249.578548 
L 234.697592 248.786623 
L 237.622408 247.797912 
L 240.547224 246.389231 
L 243.472039 244.861018 
L 246.396855 243.719183 
L 249.321671 243.393789 
L 252.246486 243.613141 
L 255.171302 243.727719 
L 258.096118 243.112247 
L 261.020934 241.767792 
L 263.945749 240.313405 
L 266.870565 239.393475 
L 269.795381 239.324738 
L 272.720197 239.608355 
L 275.645012 239.620718 
L 278.569828 238.812647 
L 281.494644 237.397648 
L 284.419459 236.036588 
L 287.344275 235.395109 
L 290.269091 235.515424 
L 293.193907 234.845528 
L 296.118722 233.331564 
L 299.043538 232.007367 
L 301.968354 230.778008 
L 304.89317 229.493131 
L 307.817985 228.223822 
L 310.742801 226.974339 
L 313.667617 225.729227 
L 316.592432 224.492211 
L 319.517248 223.265273 
L 322.442064 222.047145 
L 325.36688 220.835238 
L 328.291695 219.631678 
L 331.216511 218.446371 
L 334.141327 217.274238 
L 337.066143 216.10041 
L 339.990958 214.924251 
L 342.915774 213.749007 
L 345.84059 212.574064 
L 348.765405 211.398853 
L 351.690221 210.223635 
L 354.615037 209.048477 
L 357.539853 207.873307 
L 360.464668 206.698126 
L 363.389484 205.522951 
L 366.3143 204.347776 
L 369.239115 203.172601 
L 372.163931 201.997425 
L 375.088747 200.822249 
L 378.013563 199.647074 
L 380.938378 198.471898 
L 383.863194 197.296723 
L 386.78801 196.121547 
L 389.712826 194.946372 
L 392.637641 193.771196 
L 395.562457 192.596021 
L 398.487273 191.420845 
" style="fill:none;stroke:#1f77b4;stroke-linecap:square;stroke-width:1.5;"/>
   </g>
   <g id="line2d_16">
    <path clip-path="url(#p743c44e41a)" d="M 73.832727 293.635349 
L 76.757543 292.331736 
L 79.682359 290.953294 
L 82.607174 289.300068 
L 85.53199 287.367709 
L 88.456806 285.174401 
L 91.381622 284.91462 
L 94.306437 283.84858 
L 97.231253 282.268064 
L 100.156069 282.200185 
L 103.080885 281.176572 
L 106.0057 279.660012 
L 108.930516 279.524056 
L 111.855332 278.751101 
L 114.780147 278.083814 
L 117.704963 277.834269 
L 120.629779 276.099259 
L 123.554595 276.073133 
L 126.47941 275.364759 
L 129.404226 273.466408 
L 132.329042 272.074683 
L 135.253857 272.015536 
L 138.178673 271.713147 
L 141.103489 270.245646 
L 144.028305 268.653267 
L 146.95312 267.878387 
L 149.877936 268.003266 
L 152.802752 267.531188 
L 155.727568 266.221988 
L 158.652383 265.093277 
L 161.577199 264.003014 
L 164.502015 262.435608 
L 167.42683 261.184321 
L 170.351646 261.082326 
L 173.276462 261.180799 
L 176.201278 260.322921 
L 179.126093 258.752454 
L 182.050909 257.119305 
L 184.975725 255.957005 
L 187.900541 255.688141 
L 190.825356 255.882089 
L 193.750172 255.498835 
L 196.674988 254.250659 
L 199.599803 253.096238 
L 202.524619 252.863724 
L 205.449435 253.074373 
L 208.374251 252.829689 
L 211.299066 251.831373 
L 214.223882 250.584838 
L 217.148698 249.578548 
L 220.073514 248.701646 
L 222.998329 247.549696 
L 225.923145 245.920328 
L 228.847961 244.329561 
L 231.772776 243.448939 
L 234.697592 243.501396 
L 237.622408 243.74321 
L 240.547224 243.311162 
L 243.472039 241.917831 
L 246.396855 240.313405 
L 249.321671 239.352973 
L 252.246486 239.373229 
L 255.171302 239.66892 
L 258.096118 239.410253 
L 261.020934 238.140065 
L 263.945749 236.531879 
L 266.870565 235.472878 
L 269.795381 235.501143 
L 272.720197 234.971437 
L 275.645012 233.331564 
L 278.569828 231.885824 
L 281.494644 230.523373 
L 284.419459 229.108774 
L 287.344275 227.723054 
L 290.269091 226.351127 
L 293.193907 224.985769 
L 296.118722 223.632351 
L 299.043538 222.290181 
L 301.968354 220.9562 
L 304.89317 219.631678 
L 307.817985 218.328842 
L 310.742801 217.03988 
L 313.667617 215.747594 
L 316.592432 214.454038 
L 319.517248 213.16157 
L 322.442064 211.868955 
L 325.36688 210.576191 
L 328.291695 209.283508 
L 331.216511 207.990825 
L 334.141327 206.698126 
L 337.066143 205.405433 
L 339.990958 204.112741 
L 342.915774 202.820048 
L 345.84059 201.527355 
L 348.765405 200.234662 
L 351.690221 198.941969 
L 354.615037 197.649276 
L 357.539853 196.356583 
L 360.464668 195.063889 
L 363.389484 193.771196 
L 366.3143 192.478503 
L 369.239115 191.18581 
L 372.163931 189.893117 
L 375.088747 188.600424 
L 378.013563 187.307731 
L 380.938378 186.015038 
L 383.863194 184.722345 
L 386.78801 183.429652 
L 389.712826 182.136959 
L 392.637641 180.844266 
L 395.562457 179.551573 
L 398.487273 178.25888 
" style="fill:none;stroke:#ff7f0e;stroke-linecap:square;stroke-width:1.5;"/>
   </g>
   <g id="line2d_17">
    <path clip-path="url(#p743c44e41a)" d="M 73.832727 295.488 
L 76.757543 294.584639 
L 79.682359 293.681279 
L 82.607174 292.777918 
L 85.53199 291.874557 
L 88.456806 290.971196 
L 91.381622 290.067836 
L 94.306437 289.164475 
L 97.231253 288.261114 
L 100.156069 287.357754 
L 103.080885 286.454393 
L 106.0057 285.551032 
L 108.930516 284.647671 
L 111.855332 283.744311 
L 114.780147 282.84095 
L 117.704963 281.937589 
L 120.629779 281.034229 
L 123.554595 280.130868 
L 126.47941 279.227507 
L 129.404226 278.324146 
L 132.329042 277.420786 
L 135.253857 276.517425 
L 138.178673 275.614064 
L 141.103489 274.710704 
L 144.028305 273.807343 
L 146.95312 272.903982 
L 149.877936 272.000621 
L 152.802752 271.097261 
L 155.727568 270.1939 
L 158.652383 269.290539 
L 161.577199 268.387178 
L 164.502015 267.483818 
L 167.42683 266.580457 
L 170.351646 265.677096 
L 173.276462 264.773736 
L 176.201278 263.870375 
L 179.126093 262.967014 
L 182.050909 262.063653 
L 184.975725 261.160293 
L 187.900541 260.256932 
L 190.825356 259.353571 
L 193.750172 258.450211 
L 196.674988 257.54685 
L 199.599803 256.643489 
L 202.524619 255.740128 
L 205.449435 254.836768 
L 208.374251 253.933407 
L 211.299066 253.030046 
L 214.223882 252.126686 
L 217.148698 251.223325 
L 220.073514 250.319964 
L 222.998329 249.416603 
L 225.923145 248.513243 
L 228.847961 247.609882 
L 231.772776 246.706521 
L 234.697592 245.803161 
L 237.622408 244.8998 
L 240.547224 243.996439 
L 243.472039 243.093078 
L 246.396855 242.189718 
L 249.321671 241.286357 
L 252.246486 240.382996 
L 255.171302 239.479636 
L 258.096118 238.576275 
L 261.020934 237.672914 
L 263.945749 236.769553 
L 266.870565 235.866193 
L 269.795381 234.962832 
L 272.720197 234.059471 
L 275.645012 233.156111 
L 278.569828 232.25275 
L 281.494644 231.349389 
L 284.419459 230.446028 
L 287.344275 229.542668 
L 290.269091 228.639307 
L 293.193907 227.735946 
L 296.118722 226.832586 
L 299.043538 225.929225 
L 301.968354 225.025864 
L 304.89317 224.122503 
L 307.817985 223.219143 
L 310.742801 222.315782 
L 313.667617 221.412421 
L 316.592432 220.50906 
L 319.517248 219.6057 
L 322.442064 218.702339 
L 325.36688 217.798978 
L 328.291695 216.895618 
L 331.216511 215.992257 
L 334.141327 215.088896 
L 337.066143 214.185535 
L 339.990958 213.282175 
L 342.915774 212.378814 
L 345.84059 211.475453 
L 348.765405 210.572093 
L 351.690221 209.668732 
L 354.615037 208.765371 
L 357.539853 207.86201 
L 360.464668 206.95865 
L 363.389484 206.055289 
L 366.3143 205.151928 
L 369.239115 204.248568 
L 372.163931 203.345207 
L 375.088747 202.441846 
L 378.013563 201.538485 
L 380.938378 200.635125 
L 383.863194 199.731764 
L 386.78801 198.828403 
L 389.712826 197.925043 
L 392.637641 197.021682 
L 395.562457 196.118321 
L 398.487273 195.21496 
" style="fill:none;stroke:#2ca02c;stroke-linecap:square;stroke-width:1.5;"/>
   </g>
   <g id="line2d_18">
    <path clip-path="url(#p743c44e41a)" d="M 73.832727 294.223295 
L 76.757543 292.055229 
L 79.682359 289.887164 
L 82.607174 287.719098 
L 85.53199 285.551032 
L 88.456806 283.382966 
L 91.381622 281.214901 
L 94.306437 279.046835 
L 97.231253 276.878769 
L 100.156069 274.710704 
L 103.080885 272.542638 
L 106.0057 270.374572 
L 108.930516 268.206506 
L 111.855332 266.038441 
L 114.780147 263.870375 
L 117.704963 261.702309 
L 120.629779 259.534243 
L 123.554595 257.366178 
L 126.47941 255.198112 
L 129.404226 253.030046 
L 132.329042 250.861981 
L 135.253857 248.693915 
L 138.178673 246.525849 
L 141.103489 244.357783 
L 144.028305 242.189718 
L 146.95312 240.021652 
L 149.877936 237.853586 
L 152.802752 235.685521 
L 155.727568 233.517455 
L 158.652383 231.349389 
L 161.577199 229.181323 
L 164.502015 227.013258 
L 167.42683 224.845192 
L 170.351646 222.677126 
L 173.276462 220.50906 
L 176.201278 218.340995 
L 179.126093 216.172929 
L 182.050909 214.004863 
L 184.975725 211.836798 
L 187.900541 209.668732 
L 190.825356 207.500666 
L 193.750172 205.3326 
L 196.674988 203.164535 
L 199.599803 200.996469 
L 202.524619 198.828403 
L 205.449435 196.660338 
L 208.374251 194.492272 
L 211.299066 192.324206 
L 214.223882 190.15614 
L 217.148698 187.988075 
L 220.073514 185.820009 
L 222.998329 183.651943 
L 225.923145 181.483878 
L 228.847961 179.315812 
L 231.772776 177.147746 
L 234.697592 174.97968 
L 237.622408 172.811615 
L 240.547224 170.643549 
L 243.472039 168.475483 
L 246.396855 166.307417 
L 249.321671 164.139352 
L 252.246486 161.971286 
L 255.171302 159.80322 
L 258.096118 157.635155 
L 261.020934 155.467089 
L 263.945749 153.299023 
L 266.870565 151.130957 
L 269.795381 148.962892 
L 272.720197 146.794826 
L 275.645012 144.62676 
L 278.569828 142.458695 
L 281.494644 140.290629 
L 284.419459 138.122563 
L 287.344275 135.954497 
L 290.269091 133.786432 
L 293.193907 131.618366 
L 296.118722 129.4503 
L 299.043538 127.282235 
L 301.968354 125.114169 
L 304.89317 122.946103 
L 307.817985 120.778037 
L 310.742801 118.609972 
L 313.667617 116.441906 
L 316.592432 114.27384 
L 319.517248 112.105774 
L 322.442064 109.937709 
L 325.36688 107.769643 
L 328.291695 105.601577 
L 331.216511 103.433512 
L 334.141327 101.265446 
L 337.066143 99.09738 
L 339.990958 96.929314 
L 342.915774 94.761249 
L 345.84059 92.593183 
L 348.765405 90.425117 
L 351.690221 88.257052 
L 354.615037 86.088986 
L 357.539853 83.92092 
L 360.464668 81.752854 
L 363.389484 79.584789 
L 366.3143 77.416723 
L 369.239115 75.248657 
L 372.163931 73.080591 
L 375.088747 70.912526 
L 378.013563 68.74446 
L 380.938378 66.576394 
L 383.863194 64.408329 
L 386.78801 62.240263 
L 389.712826 60.072197 
L 392.637641 57.904131 
L 395.562457 55.736066 
L 398.487273 53.568 
" style="fill:none;stroke:#d62728;stroke-linecap:square;stroke-width:1.5;"/>
   </g>
   <g id="patch_3">
    <path d="M 57.6 307.584 
L 57.6 41.472 
" style="fill:none;stroke:#000000;stroke-linecap:square;stroke-linejoin:miter;stroke-width:0.8;"/>
   </g>
   <g id="patch_4">
    <path d="M 414.72 307.584 
L 414.72 41.472 
" style="fill:none;stroke:#000000;stroke-linecap:square;stroke-linejoin:miter;stroke-width:0.8;"/>
   </g>
   <g id="patch_5">
    <path d="M 57.6 307.584 
L 414.72 307.584 
" style="fill:none;stroke:#000000;stroke-linecap:square;stroke-linejoin:miter;stroke-width:0.8;"/>
   </g>
   <g id="patch_6">
    <path d="M 57.6 41.472 
L 414.72 41.472 
" style="fill:none;stroke:#000000;stroke-linecap:square;stroke-linejoin:miter;stroke-width:0.8;"/>
   </g>
   <g id="text_17">
    <!-- 7746 -->
    <g style="fill:#0000ff;" transform="translate(398.487273 191.420845)scale(0.1 -0.1)">
     <use xlink:href="#SimHei-55"/>
     <use x="50" xlink:href="#SimHei-55"/>
     <use x="100" xlink:href="#SimHei-52"/>
     <use x="150" xlink:href="#SimHei-54"/>
    </g>
   </g>
   <g id="text_18">
    <!-- 8718 -->
    <g style="fill:#ffa500;" transform="translate(398.487273 178.25888)scale(0.1 -0.1)">
     <use xlink:href="#SimHei-56"/>
     <use x="50" xlink:href="#SimHei-55"/>
     <use x="100" xlink:href="#SimHei-49"/>
     <use x="150" xlink:href="#SimHei-56"/>
    </g>
   </g>
   <g id="text_19">
    <!-- 7466 -->
    <g style="fill:#008000;" transform="translate(398.487273 195.21496)scale(0.1 -0.1)">
     <use xlink:href="#SimHei-55"/>
     <use x="50" xlink:href="#SimHei-52"/>
     <use x="100" xlink:href="#SimHei-54"/>
     <use x="150" xlink:href="#SimHei-54"/>
    </g>
   </g>
   <g id="text_20">
    <!-- 17920 -->
    <defs>
     <path d="M 12.5 1.171875 
Q 21.09375 15.625 26.5625 27.34375 
Q 16.796875 25.78125 10.34375 29.875 
Q 3.90625 33.984375 2.53125 41.015625 
Q 1.171875 48.046875 2.734375 53.703125 
Q 4.296875 59.375 7.609375 63.078125 
Q 10.9375 66.796875 15.625 68.359375 
Q 20.3125 69.921875 24.015625 69.921875 
Q 27.734375 69.921875 31.640625 68.359375 
Q 35.546875 66.796875 38.671875 63.671875 
Q 41.796875 60.546875 42.96875 57.21875 
Q 44.140625 53.90625 44.140625 48.625 
Q 44.140625 43.359375 40.234375 35.15625 
Q 36.328125 26.953125 21.09375 1.171875 
z
M 9.765625 50 
Q 10.9375 39.84375 14.640625 36.515625 
Q 18.359375 33.203125 22.65625 33.59375 
Q 26.953125 33.984375 29.484375 35.9375 
Q 32.03125 37.890625 34.375 42.578125 
Q 35.9375 48.4375 35.15625 52.53125 
Q 34.375 56.640625 31.046875 59.375 
Q 27.734375 62.109375 23.828125 62.109375 
Q 21.484375 62.5 17.765625 60.9375 
Q 14.0625 59.375 11.90625 54.6875 
Q 9.765625 50 10.9375 39.84375 
z
" id="SimHei-57"/>
    </defs>
    <g style="fill:#ff0000;" transform="translate(398.487273 53.568)scale(0.1 -0.1)">
     <use xlink:href="#SimHei-49"/>
     <use x="50" xlink:href="#SimHei-55"/>
     <use x="100" xlink:href="#SimHei-57"/>
     <use x="150" xlink:href="#SimHei-50"/>
     <use x="200" xlink:href="#SimHei-48"/>
    </g>
   </g>
   <g id="text_21">
    <!-- 收益比较-每天2小时 -->
    <defs>
     <path d="M 66.40625 78.90625 
Q 64.453125 75.78125 58.59375 63.28125 
L 80.46875 63.28125 
Q 88.671875 63.28125 95.703125 63.671875 
L 95.703125 56.25 
Q 88.671875 56.640625 82.8125 56.640625 
Q 81.640625 41.015625 78.515625 30.859375 
Q 75.390625 20.703125 71.484375 14.0625 
Q 76.5625 7.8125 82.609375 4.296875 
Q 88.671875 0.78125 96.875 -1.171875 
Q 92.1875 -4.296875 90.625 -8.59375 
Q 82.8125 -5.46875 77.34375 -1.5625 
Q 71.875 2.34375 66.796875 8.203125 
Q 59.375 0 43.359375 -9.765625 
Q 41.40625 -6.640625 35.9375 -3.515625 
Q 51.171875 2.34375 61.71875 14.453125 
Q 58.984375 20.703125 56.4375 27.921875 
Q 53.90625 35.15625 50.78125 46.875 
Q 46.484375 38.28125 44.140625 35.546875 
Q 41.40625 37.5 37.890625 39.453125 
Q 43.359375 47.265625 49.015625 59.953125 
Q 54.6875 72.65625 56.640625 82.03125 
Q 61.328125 80.078125 66.40625 78.90625 
z
M 15.234375 66.796875 
Q 14.453125 61.71875 14.453125 53.90625 
L 14.453125 24.609375 
L 27.734375 26.953125 
L 27.734375 69.140625 
Q 27.734375 74.609375 27.34375 80.46875 
L 35.15625 80.46875 
Q 34.765625 75.78125 34.765625 69.53125 
L 34.765625 4.6875 
Q 34.765625 -0.78125 35.15625 -8.59375 
L 27.34375 -8.59375 
Q 27.734375 -0.390625 27.734375 5.46875 
L 27.734375 21.09375 
Q 9.765625 16.40625 7.8125 14.453125 
Q 5.859375 17.578125 3.515625 21.09375 
Q 7.03125 23.046875 7.03125 28.125 
L 7.03125 55.859375 
Q 7.03125 61.328125 6.640625 66.796875 
L 15.234375 66.796875 
z
M 58.203125 49.21875 
Q 59.375 42.1875 61.90625 34.5625 
Q 64.453125 26.953125 67.1875 21.484375 
Q 73.828125 33.59375 75.390625 56.640625 
L 55.859375 56.640625 
Q 53.125 51.171875 51.5625 48.4375 
z
" id="SimHei-25910"/>
     <path d="M 44.140625 45.703125 
Q 37.890625 43.359375 31.4375 38.859375 
Q 25 34.375 19.140625 30.859375 
L 82.421875 30.859375 
Q 82.03125 24.609375 82.03125 15.625 
L 82.03125 -0.78125 
Q 90.625 -0.78125 96.484375 -0.390625 
L 96.484375 -8.203125 
Q 89.453125 -7.8125 82.03125 -7.8125 
L 20.703125 -7.8125 
Q 10.9375 -7.8125 3.90625 -8.203125 
L 3.90625 -0.390625 
Q 9.375 -0.78125 18.359375 -0.78125 
L 18.359375 16.40625 
Q 18.359375 24.609375 17.96875 30.078125 
Q 15.625 28.125 12.5 26.5625 
Q 10.15625 30.46875 6.640625 33.203125 
Q 12.5 35.546875 20.5 40.625 
Q 28.515625 45.703125 36.328125 53.125 
Q 39.84375 49.21875 44.140625 45.703125 
z
M 73.828125 78.90625 
Q 71.484375 76.5625 69.71875 72.453125 
Q 67.96875 68.359375 65.234375 63.671875 
L 72.265625 63.671875 
Q 83.59375 63.671875 92.1875 64.0625 
L 92.1875 56.640625 
Q 83.59375 57.03125 72.265625 57.03125 
L 30.859375 57.03125 
Q 21.09375 57.03125 8.59375 56.640625 
L 8.59375 64.0625 
Q 18.359375 63.671875 30.859375 63.671875 
L 57.421875 63.671875 
Q 58.984375 67.1875 60.734375 72.265625 
Q 62.5 77.34375 64.453125 82.03125 
L 73.828125 78.90625 
z
M 56.25 -0.78125 
L 56.25 24.609375 
L 43.75 24.609375 
L 43.75 -0.78125 
z
M 75 -0.78125 
L 75 24.609375 
L 62.890625 24.609375 
L 62.890625 -0.78125 
z
M 37.109375 -0.78125 
L 37.109375 24.609375 
L 25.390625 24.609375 
L 25.390625 -0.78125 
z
M 60.9375 52.34375 
Q 68.359375 49.21875 76.5625 45.703125 
Q 84.765625 42.1875 92.1875 39.0625 
Q 89.0625 35.9375 86.71875 31.25 
Q 78.515625 35.9375 70.5 39.640625 
Q 62.5 43.359375 56.640625 45.3125 
Q 58.59375 48.046875 60.9375 52.34375 
z
M 33.59375 82.03125 
Q 37.109375 76.953125 41.40625 67.96875 
Q 37.890625 66.796875 33.59375 64.453125 
Q 30.46875 72.65625 26.171875 78.515625 
Q 29.296875 79.6875 33.59375 82.03125 
z
" id="SimHei-30410"/>
     <path d="M 58.984375 79.6875 
Q 58.59375 71.484375 58.59375 64.0625 
L 58.59375 47.65625 
Q 76.953125 56.25 85.546875 65.234375 
Q 88.671875 60.9375 92.1875 57.421875 
Q 87.5 54.6875 78.703125 49.796875 
Q 69.921875 44.921875 58.59375 39.84375 
L 58.59375 7.03125 
Q 58.59375 1.5625 63.28125 1.5625 
L 78.125 1.5625 
Q 80.859375 1.5625 82.21875 3.90625 
Q 83.59375 6.25 85.15625 14.0625 
Q 88.28125 12.109375 94.140625 10.546875 
Q 91.40625 0 88.28125 -2.734375 
Q 85.15625 -5.46875 81.640625 -5.46875 
L 60.9375 -5.46875 
Q 50.78125 -5.46875 50.78125 4.296875 
L 50.78125 62.5 
Q 50.78125 71.09375 50.390625 79.6875 
L 58.984375 79.6875 
z
M 19.921875 77.734375 
Q 19.53125 71.484375 19.53125 62.5 
L 19.53125 49.21875 
L 28.90625 49.21875 
Q 36.328125 49.21875 44.921875 49.609375 
L 44.921875 41.40625 
Q 36.328125 41.796875 28.90625 41.796875 
L 19.53125 41.796875 
L 19.53125 7.421875 
Q 25.78125 10.15625 30.65625 12.6875 
Q 35.546875 15.234375 44.53125 19.921875 
Q 45.3125 14.84375 46.09375 11.71875 
Q 37.109375 7.421875 27.53125 2.734375 
Q 17.96875 -1.953125 14.453125 -5.078125 
Q 11.71875 -1.5625 8.984375 3.125 
Q 10.9375 4.6875 11.71875 9.375 
L 11.71875 61.71875 
Q 11.71875 71.09375 11.328125 77.734375 
L 19.921875 77.734375 
z
" id="SimHei-27604"/>
     <path d="M 46.09375 22.265625 
Q 45.703125 19.140625 45.703125 15.625 
Q 42.578125 15.234375 31.640625 13.28125 
Q 31.640625 3.515625 32.03125 -9.765625 
L 23.828125 -9.765625 
Q 24.21875 3.515625 24.21875 11.71875 
Q 13.671875 9.375 6.640625 7.03125 
Q 5.46875 11.71875 3.125 15.625 
Q 9.765625 16.40625 24.21875 18.359375 
L 24.21875 32.8125 
Q 19.53125 32.8125 14.640625 32.609375 
Q 9.765625 32.421875 6.640625 31.25 
L 4.296875 38.28125 
Q 7.8125 41.796875 10.34375 48.046875 
Q 12.890625 54.296875 14.84375 61.71875 
Q 12.109375 61.71875 5.46875 61.328125 
L 5.46875 68.75 
Q 11.328125 67.96875 16.40625 67.96875 
Q 19.140625 75 19.921875 82.03125 
Q 24.21875 80.46875 28.90625 79.296875 
Q 26.953125 74.609375 24.609375 67.96875 
Q 34.375 67.96875 41.40625 68.359375 
L 41.40625 61.328125 
Q 34.375 61.71875 22.65625 61.71875 
Q 20.3125 54.296875 14.0625 39.0625 
L 24.21875 39.0625 
Q 24.21875 48.4375 23.828125 53.125 
L 32.03125 53.125 
Q 31.640625 47.65625 31.640625 39.0625 
L 41.796875 39.0625 
L 41.796875 32.8125 
L 31.640625 32.8125 
L 31.640625 19.53125 
Q 42.1875 21.484375 46.09375 22.265625 
z
M 85.15625 36.328125 
Q 82.8125 30.078125 79.6875 22.453125 
Q 76.5625 14.84375 73.046875 8.984375 
Q 76.5625 5.859375 82.8125 3.515625 
Q 89.0625 1.171875 96.875 -0.390625 
Q 93.75 -4.296875 92.96875 -8.984375 
Q 82.8125 -5.859375 76.953125 -2.53125 
Q 71.09375 0.78125 67.578125 3.90625 
Q 62.890625 -0.390625 57.609375 -3.3125 
Q 52.34375 -6.25 44.140625 -9.765625 
Q 42.578125 -5.859375 38.28125 -1.953125 
Q 47.265625 0 53.515625 3.3125 
Q 59.765625 6.640625 62.890625 9.765625 
Q 59.375 15.625 57.03125 22.265625 
L 52.34375 35.546875 
Q 55.46875 37.109375 60.15625 38.671875 
Q 62.5 29.296875 64.0625 25 
Q 65.625 20.703125 67.96875 16.015625 
Q 70.703125 19.921875 72.65625 25.96875 
Q 74.609375 32.03125 75.78125 39.453125 
Q 80.078125 37.890625 85.15625 36.328125 
z
M 80.859375 68.75 
Q 89.453125 69.140625 94.140625 69.140625 
L 94.140625 62.109375 
Q 89.453125 62.5 81.25 62.5 
L 59.375 62.5 
Q 50.78125 62.5 45.703125 62.109375 
L 45.703125 69.140625 
Q 52.34375 68.75 59.375 68.75 
z
M 64.84375 53.515625 
Q 60.546875 48.4375 49.609375 35.546875 
Q 47.265625 38.671875 43.359375 41.015625 
Q 53.515625 51.5625 57.421875 58.59375 
Q 60.546875 56.25 64.84375 53.515625 
z
M 81.25 58.59375 
Q 85.15625 54.6875 95.703125 42.96875 
Q 91.015625 39.84375 88.28125 37.5 
Q 84.765625 43.359375 74.609375 53.515625 
Q 77.734375 56.25 81.25 58.59375 
z
M 66.796875 82.8125 
Q 72.265625 76.953125 74.609375 73.046875 
Q 70.703125 71.09375 67.1875 69.140625 
Q 66.015625 72.265625 60.15625 78.90625 
Q 63.671875 80.859375 66.796875 82.8125 
z
" id="SimHei-36739"/>
     <path d="M 46.484375 33.203125 
L 1.953125 33.203125 
L 1.953125 39.453125 
L 46.484375 39.453125 
z
" id="SimHei-45"/>
     <path d="M 81.640625 57.03125 
Q 80.859375 49.21875 80.46875 41.796875 
L 80.078125 34.375 
Q 86.328125 34.375 93.75 34.765625 
L 93.75 27.734375 
Q 87.890625 28.125 79.6875 28.125 
L 78.90625 10.15625 
Q 83.203125 10.15625 89.0625 10.546875 
L 89.0625 3.515625 
Q 84.375 3.90625 78.515625 3.90625 
Q 78.125 -4.296875 74.609375 -6.640625 
Q 71.09375 -8.984375 62.5 -10.15625 
Q 61.71875 -6.25 58.984375 -1.953125 
Q 68.359375 -1.953125 69.921875 -0.78125 
Q 71.484375 0.390625 71.484375 3.90625 
L 21.875 3.90625 
L 23.4375 17.1875 
L 24.21875 28.125 
L 19.921875 28.125 
Q 12.890625 28.125 8.59375 27.734375 
L 8.59375 34.765625 
Q 15.234375 34.375 19.921875 34.375 
L 24.609375 34.375 
L 25.390625 44.140625 
L 26.171875 57.03125 
z
M 36.71875 78.125 
Q 33.984375 75.390625 32.03125 71.875 
L 76.171875 71.875 
Q 82.421875 71.875 90.234375 72.265625 
L 90.234375 65.234375 
Q 82.421875 65.625 76.171875 65.625 
L 28.515625 65.625 
L 21.484375 56.640625 
Q 17.578125 51.953125 12.109375 46.484375 
Q 9.375 49.609375 5.46875 51.5625 
Q 11.328125 55.859375 17.96875 64.25 
Q 24.609375 72.65625 28.515625 82.03125 
Q 33.203125 79.296875 36.71875 78.125 
z
M 30.859375 28.125 
L 29.296875 10.15625 
L 72.265625 10.15625 
L 73.046875 28.125 
L 46.09375 28.125 
Q 55.859375 19.921875 59.765625 17.578125 
Q 56.640625 14.453125 54.296875 11.328125 
Q 48.4375 17.1875 41.40625 23.046875 
Q 43.359375 26.171875 44.921875 28.125 
z
M 46.484375 50.78125 
Q 48.828125 49.21875 51.359375 47.0625 
Q 53.90625 44.921875 59.375 39.84375 
Q 57.03125 36.71875 55.078125 34.375 
L 73.4375 34.375 
L 74.21875 50.78125 
L 46.484375 50.78125 
z
M 32.421875 50.78125 
L 31.25 34.375 
L 53.515625 34.375 
Q 49.21875 39.0625 47.0625 41.015625 
Q 44.921875 42.96875 42.1875 45.3125 
Q 43.75 47.65625 45.703125 50.78125 
z
" id="SimHei-27599"/>
     <path d="M 54.6875 80.46875 
Q 54.296875 75 54.296875 65.625 
L 54.296875 2.734375 
Q 54.296875 -4.6875 50.390625 -6.640625 
Q 46.484375 -8.59375 37.109375 -9.375 
Q 36.328125 -4.6875 33.59375 -0.390625 
Q 42.1875 -0.390625 44.328125 0 
Q 46.484375 0.390625 46.484375 4.6875 
L 46.484375 65.625 
Q 46.484375 72.65625 46.09375 80.46875 
L 54.6875 80.46875 
z
M 32.421875 53.125 
Q 28.90625 43.359375 24.21875 30.65625 
Q 19.53125 17.96875 16.015625 11.71875 
Q 12.109375 14.84375 7.8125 15.625 
Q 14.453125 27.34375 18.359375 38.859375 
Q 22.265625 50.390625 23.4375 55.859375 
Q 28.125 53.515625 32.421875 53.125 
z
M 73.046875 56.25 
Q 88.671875 28.125 91.796875 17.96875 
Q 87.890625 17.1875 83.984375 14.453125 
Q 78.125 31.25 66.015625 51.953125 
Q 69.140625 53.515625 73.046875 56.25 
z
" id="SimHei-23567"/>
     <path d="M 39.453125 71.484375 
Q 39.0625 57.421875 39.0625 37.5 
Q 39.0625 17.578125 39.453125 6.25 
L 31.25 6.25 
L 31.25 13.671875 
L 15.625 13.671875 
L 15.625 0.78125 
L 7.421875 0.78125 
Q 7.8125 18.75 7.8125 36.71875 
Q 7.8125 55.078125 7.421875 71.484375 
L 39.453125 71.484375 
z
M 76.171875 59.765625 
Q 76.171875 71.484375 75.78125 81.640625 
L 84.375 81.640625 
Q 83.984375 71.484375 83.984375 59.765625 
Q 89.84375 59.765625 96.484375 60.15625 
L 96.484375 52.734375 
Q 89.84375 53.125 83.984375 53.125 
L 83.984375 0.78125 
Q 83.984375 -5.078125 79.296875 -6.640625 
Q 74.609375 -8.203125 67.1875 -8.984375 
Q 67.1875 -4.296875 62.890625 0 
Q 70.3125 -0.78125 73.234375 -0.390625 
Q 76.171875 0 76.171875 4.6875 
L 76.171875 53.125 
Q 56.640625 53.125 43.359375 52.734375 
L 43.359375 60.15625 
Q 55.859375 59.765625 76.171875 59.765625 
z
M 31.25 20.3125 
L 31.25 39.84375 
L 15.625 39.84375 
L 15.625 20.3125 
z
M 31.25 46.484375 
L 31.25 64.84375 
L 15.625 64.84375 
L 15.625 46.484375 
z
M 55.46875 42.578125 
Q 60.546875 34.375 65.234375 25 
Q 61.328125 23.828125 57.03125 21.484375 
Q 53.90625 30.859375 48.046875 39.0625 
Q 51.5625 40.625 55.46875 42.578125 
z
" id="SimHei-26102"/>
    </defs>
    <g transform="translate(182.16 35.472)scale(0.12 -0.12)">
     <use xlink:href="#SimHei-25910"/>
     <use x="100" xlink:href="#SimHei-30410"/>
     <use x="200" xlink:href="#SimHei-27604"/>
     <use x="300" xlink:href="#SimHei-36739"/>
     <use x="400" xlink:href="#SimHei-45"/>
     <use x="450" xlink:href="#SimHei-27599"/>
     <use x="550" xlink:href="#SimHei-22825"/>
     <use x="650" xlink:href="#SimHei-50"/>
     <use x="700" xlink:href="#SimHei-23567"/>
     <use x="800" xlink:href="#SimHei-26102"/>
    </g>
   </g>
   <g id="legend_1">
    <g id="patch_7">
     <path d="M 64.6 106.737625 
L 206.6 106.737625 
Q 208.6 106.737625 208.6 104.737625 
L 208.6 48.472 
Q 208.6 46.472 206.6 46.472 
L 64.6 46.472 
Q 62.6 46.472 62.6 48.472 
L 62.6 104.737625 
Q 62.6 106.737625 64.6 106.737625 
z
" style="fill:#ffffff;opacity:0.8;stroke:#cccccc;stroke-linejoin:miter;"/>
    </g>
    <g id="line2d_19">
     <path d="M 66.6 55.214188 
L 86.6 55.214188 
" style="fill:none;stroke:#1f77b4;stroke-linecap:square;stroke-width:1.5;"/>
    </g>
    <g id="line2d_20"/>
    <g id="text_22">
     <!-- 战令收益（没有通行证） -->
     <defs>
      <path d="M 25.390625 80.859375 
Q 25 71.875 25 61.71875 
Q 39.0625 61.71875 45.703125 62.5 
L 45.703125 55.078125 
Q 39.0625 55.46875 25.390625 55.46875 
L 25.390625 39.453125 
L 41.40625 39.453125 
Q 41.015625 30.859375 41.015625 21.09375 
Q 41.015625 11.71875 41.40625 0.390625 
L 33.59375 0.390625 
L 33.59375 6.640625 
L 13.671875 6.640625 
L 13.671875 -0.78125 
L 5.859375 -0.78125 
Q 6.25 9.375 6.25 19.53125 
Q 6.25 30.078125 5.859375 39.453125 
L 17.578125 39.453125 
Q 17.578125 71.484375 17.1875 80.859375 
L 25.390625 80.859375 
z
M 86.328125 39.0625 
Q 84.375 35.9375 80.65625 28.703125 
Q 76.953125 21.484375 71.484375 13.671875 
Q 78.125 2.34375 82.421875 0.78125 
Q 86.71875 -0.78125 89.453125 11.328125 
Q 92.578125 7.8125 96.875 5.078125 
Q 91.40625 -7.03125 84.5625 -8 
Q 77.734375 -8.984375 66.40625 8.203125 
Q 61.71875 3.125 56.828125 -0.78125 
Q 51.953125 -4.6875 44.53125 -9.765625 
Q 42.1875 -6.640625 38.671875 -3.515625 
Q 43.359375 -1.5625 50.78125 3.90625 
Q 58.203125 9.375 62.890625 15.234375 
Q 60.9375 19.140625 58.59375 28.3125 
Q 56.25 37.5 55.46875 44.921875 
Q 48.4375 43.75 41.796875 42.1875 
Q 41.015625 46.09375 40.234375 49.21875 
Q 46.09375 50 54.6875 51.5625 
Q 53.90625 68.359375 53.125 81.640625 
Q 57.8125 81.25 61.71875 81.25 
Q 60.9375 69.921875 61.71875 52.734375 
Q 70.3125 53.90625 90.625 58.203125 
Q 90.625 54.6875 91.40625 51.171875 
Q 82.421875 49.609375 62.5 46.09375 
Q 64.453125 30.46875 67.96875 21.484375 
Q 71.875 26.953125 73.828125 32.03125 
Q 75.78125 37.109375 77.734375 42.96875 
Q 82.421875 40.234375 86.328125 39.0625 
z
M 33.984375 13.28125 
L 33.984375 33.203125 
L 13.671875 33.203125 
L 13.671875 13.28125 
z
M 75 76.953125 
Q 82.421875 68.359375 84.765625 66.015625 
Q 81.25 63.671875 78.125 60.546875 
Q 75.78125 64.453125 68.75 72.65625 
Q 71.875 74.609375 75 76.953125 
z
" id="SimHei-25112"/>
      <path d="M 83.984375 32.421875 
L 83.984375 24.21875 
Q 76.953125 20.703125 69.53125 14.640625 
Q 62.109375 8.59375 55.859375 1.953125 
L 66.40625 -5.078125 
Q 63.28125 -8.59375 60.546875 -12.109375 
Q 48.4375 -1.953125 28.90625 6.640625 
L 33.59375 13.671875 
Q 37.5 12.109375 48.828125 5.46875 
Q 59.375 16.015625 69.53125 25.390625 
L 31.640625 25.390625 
Q 23.4375 25.390625 15.234375 25 
L 15.234375 32.8125 
Q 23.828125 32.421875 31.640625 32.421875 
z
M 52.734375 75.78125 
Q 69.53125 55.46875 96.875 45.3125 
Q 92.96875 41.015625 90.625 36.71875 
Q 64.84375 49.21875 48.4375 69.921875 
Q 32.421875 48.828125 9.765625 34.765625 
Q 6.25 39.453125 3.125 42.1875 
Q 13.671875 46.484375 26.171875 57.421875 
Q 38.671875 68.359375 46.09375 82.8125 
Q 51.171875 80.859375 55.46875 78.90625 
Q 54.296875 78.125 52.734375 75.78125 
z
M 45.703125 56.25 
Q 49.609375 52.34375 58.59375 42.578125 
L 51.5625 36.328125 
Q 47.65625 42.1875 39.84375 50.390625 
Q 42.96875 52.734375 45.703125 56.25 
z
" id="SimHei-20196"/>
      <path d="M 84.765625 79.6875 
L 89.0625 74.609375 
Q 66.796875 58.203125 67.578125 36.71875 
Q 67.96875 16.015625 88.671875 0.78125 
L 84.375 -4.296875 
Q 60.546875 12.890625 61.328125 39.0625 
Q 61.328125 60.546875 84.765625 79.6875 
z
" id="SimHei-65288"/>
      <path d="M 85.15625 37.109375 
Q 82.8125 30.46875 78.703125 23.046875 
Q 74.609375 15.625 68.359375 8.984375 
Q 72.65625 5.859375 81.046875 2.53125 
Q 89.453125 -0.78125 94.140625 -1.5625 
Q 91.40625 -4.6875 89.0625 -9.375 
Q 80.859375 -6.25 74.796875 -3.125 
Q 68.75 0 62.890625 4.296875 
Q 51.953125 -3.90625 34.375 -9.375 
Q 33.203125 -5.46875 29.6875 -1.5625 
Q 45.703125 0.78125 57.421875 8.59375 
Q 47.65625 17.578125 42.96875 30.859375 
Q 40.625 30.859375 37.890625 30.859375 
L 37.890625 37.5 
Q 44.921875 37.109375 51.171875 37.109375 
z
M 78.515625 75.78125 
Q 78.125 69.921875 78.125 64.0625 
L 78.125 53.90625 
Q 78.125 50.390625 83.59375 50.390625 
L 94.53125 50.78125 
Q 92.1875 46.484375 92.578125 43.75 
L 78.90625 43.75 
Q 71.484375 43.75 70.703125 51.171875 
L 70.703125 69.53125 
L 51.171875 69.53125 
Q 51.171875 58.59375 48.4375 52.140625 
Q 45.703125 45.703125 37.109375 38.671875 
Q 35.546875 41.40625 31.25 44.53125 
Q 41.40625 49.609375 42.96875 58.203125 
Q 44.53125 66.796875 43.75 75.78125 
L 78.515625 75.78125 
z
M 6.640625 -2.34375 
Q 12.5 5.078125 17.375 14.453125 
Q 22.265625 23.828125 25 31.640625 
Q 28.515625 28.90625 32.03125 26.5625 
Q 29.296875 22.65625 24.21875 12.109375 
Q 19.140625 1.5625 14.84375 -7.8125 
Q 10.15625 -3.90625 6.640625 -2.34375 
z
M 50.78125 31.25 
Q 54.296875 20.703125 62.890625 12.890625 
Q 69.921875 19.53125 74.609375 31.25 
L 51.171875 31.25 
z
M 17.96875 80.078125 
Q 26.5625 74.21875 36.328125 66.015625 
Q 32.421875 63.28125 30.46875 60.15625 
Q 21.875 68.359375 12.890625 74.21875 
Q 15.625 76.953125 17.96875 80.078125 
z
M 11.328125 58.59375 
Q 19.921875 52.34375 28.515625 44.921875 
Q 25.78125 42.578125 22.65625 39.0625 
Q 15.625 46.484375 6.25 52.34375 
Q 9.375 55.859375 11.328125 58.59375 
z
" id="SimHei-27809"/>
      <path d="M 4.296875 25.390625 
Q 13.28125 30.859375 21.875 39.640625 
Q 30.46875 48.4375 37.5 61.328125 
L 23.4375 61.328125 
Q 17.96875 61.328125 9.765625 60.9375 
L 9.765625 68.359375 
Q 19.921875 67.96875 25 67.96875 
L 39.84375 67.96875 
Q 42.96875 77.34375 43.359375 81.640625 
Q 49.21875 80.078125 52.734375 79.296875 
Q 51.5625 78.125 48.828125 67.96875 
L 80.46875 67.96875 
Q 87.109375 67.96875 94.140625 68.359375 
L 94.140625 60.9375 
Q 87.109375 61.328125 81.640625 61.328125 
L 46.484375 61.328125 
Q 43.75 56.25 40.625 51.171875 
L 85.546875 51.171875 
Q 85.15625 41.40625 85.15625 33.59375 
L 85.15625 1.953125 
Q 85.15625 -3.515625 82.03125 -6.046875 
Q 78.90625 -8.59375 68.75 -9.375 
Q 68.359375 -5.078125 66.015625 0 
Q 71.875 -0.78125 74.609375 -0.390625 
Q 77.34375 0 77.34375 3.90625 
L 77.34375 11.71875 
L 36.71875 11.71875 
L 36.71875 -8.984375 
L 28.125 -8.984375 
Q 28.515625 0.78125 28.515625 7.8125 
L 28.515625 35.546875 
Q 20.3125 26.171875 11.328125 19.140625 
Q 9.765625 21.875 4.296875 25.390625 
z
M 77.34375 33.984375 
L 77.34375 44.921875 
L 36.71875 44.921875 
L 36.71875 33.984375 
z
M 77.34375 17.96875 
L 77.34375 27.734375 
L 36.71875 27.734375 
L 36.71875 17.96875 
z
" id="SimHei-26377"/>
      <path d="M 88.671875 78.90625 
Q 83.203125 72.65625 77.140625 67.1875 
Q 71.09375 61.71875 66.40625 57.03125 
L 89.0625 57.03125 
Q 88.671875 48.4375 88.671875 40.234375 
L 88.671875 13.28125 
Q 89.0625 8.203125 85.9375 6.640625 
Q 82.8125 5.078125 76.5625 3.90625 
Q 75.78125 7.421875 72.65625 12.109375 
Q 78.515625 12.5 80.46875 13.28125 
Q 82.421875 14.0625 82.03125 20.703125 
L 64.453125 20.703125 
L 64.453125 4.6875 
L 57.421875 4.6875 
L 57.421875 20.703125 
L 40.234375 20.703125 
L 40.234375 4.6875 
L 33.203125 4.6875 
Q 33.59375 17.578125 33.59375 30.46875 
Q 33.59375 43.359375 33.203125 57.03125 
L 56.25 57.03125 
Q 54.296875 60.15625 47.65625 65.625 
Q 50.390625 67.96875 52.734375 70.703125 
Q 59.765625 65.234375 62.5 62.5 
Q 68.75 69.140625 72.265625 72.65625 
L 47.265625 72.65625 
Q 39.453125 72.65625 33.59375 72.265625 
L 33.59375 79.296875 
Q 39.453125 78.90625 46.484375 78.90625 
z
M 22.265625 46.875 
Q 21.875 39.0625 21.875 32.8125 
L 21.875 9.375 
Q 31.640625 -0.390625 57.8125 -0.390625 
Q 83.984375 -0.390625 96.09375 1.953125 
Q 93.75 -2.734375 93.359375 -7.8125 
Q 62.109375 -8.203125 49.015625 -7.03125 
Q 35.9375 -5.859375 27.734375 -1.75 
Q 19.53125 2.34375 16.796875 -0.578125 
Q 14.0625 -3.515625 10.15625 -10.15625 
Q 6.640625 -6.25 3.125 -3.515625 
Q 9.375 1.953125 15.234375 6.640625 
L 15.234375 40.234375 
Q 12.109375 40.234375 5.46875 39.84375 
L 5.46875 47.265625 
Q 11.71875 46.875 22.265625 46.875 
z
M 82.03125 26.953125 
L 82.03125 36.328125 
L 64.453125 36.328125 
L 64.453125 26.953125 
z
M 57.421875 26.953125 
L 57.421875 36.328125 
L 40.234375 36.328125 
L 40.234375 26.953125 
z
M 82.03125 42.578125 
L 82.03125 51.171875 
L 64.453125 51.171875 
L 64.453125 42.578125 
z
M 57.421875 42.578125 
L 57.421875 51.171875 
L 40.234375 51.171875 
L 40.234375 42.578125 
z
M 16.015625 78.515625 
Q 22.65625 69.140625 26.5625 63.671875 
Q 22.265625 61.328125 19.53125 58.203125 
Q 16.796875 64.0625 9.375 73.828125 
Q 12.5 76.171875 16.015625 78.515625 
z
" id="SimHei-36890"/>
      <path d="M 82.8125 48.4375 
Q 90.234375 48.4375 96.484375 48.828125 
L 96.484375 41.015625 
Q 90.234375 41.40625 83.203125 41.40625 
L 77.734375 41.40625 
L 77.734375 -1.171875 
Q 78.125 -5.859375 74.796875 -7.609375 
Q 71.484375 -9.375 61.71875 -10.546875 
Q 60.9375 -5.859375 57.421875 -1.171875 
Q 64.0625 -1.953125 66.796875 -1.75 
Q 69.53125 -1.5625 69.921875 2.34375 
L 69.921875 41.40625 
L 54.296875 41.40625 
Q 46.875 41.40625 40.234375 41.015625 
L 40.234375 48.828125 
Q 47.265625 48.4375 54.296875 48.4375 
z
M 35.9375 53.125 
Q 32.421875 51.171875 30.65625 48.046875 
Q 28.90625 44.921875 25.78125 40.234375 
L 25.78125 5.078125 
Q 25.78125 0 26.171875 -10.546875 
L 17.96875 -10.546875 
Q 18.359375 1.171875 18.359375 7.03125 
L 18.359375 32.03125 
Q 14.84375 26.171875 8.984375 20.3125 
Q 6.25 24.21875 3.90625 26.953125 
Q 12.890625 35.546875 17.96875 43.359375 
Q 23.046875 51.171875 26.953125 58.203125 
Q 30.859375 55.859375 35.9375 53.125 
z
M 76.171875 75 
Q 82.8125 75 89.84375 75.390625 
L 89.84375 67.96875 
Q 82.8125 68.359375 75.390625 68.359375 
L 60.9375 68.359375 
Q 52.34375 68.359375 46.09375 67.96875 
L 46.09375 75.390625 
Q 52.34375 75 60.9375 75 
z
M 32.421875 76.953125 
Q 29.296875 76.5625 24.21875 68.546875 
Q 19.140625 60.546875 10.15625 50.78125 
Q 7.8125 53.90625 5.078125 56.640625 
Q 11.328125 62.890625 16.40625 70.109375 
Q 21.484375 77.34375 23.828125 82.8125 
Q 27.734375 80.46875 32.421875 76.953125 
z
" id="SimHei-34892"/>
      <path d="M 80.078125 73.046875 
Q 87.890625 73.046875 94.53125 73.4375 
L 94.53125 66.015625 
Q 87.890625 66.40625 80.078125 66.40625 
L 70.3125 66.40625 
L 70.3125 41.015625 
L 79.296875 41.015625 
Q 85.9375 41.015625 92.1875 41.40625 
L 92.1875 33.984375 
Q 86.328125 34.375 79.296875 34.375 
L 70.3125 34.375 
L 70.3125 1.953125 
L 81.25 1.953125 
Q 87.890625 1.953125 96.484375 2.34375 
L 96.484375 -5.078125 
Q 87.890625 -4.6875 81.25 -4.6875 
L 46.875 -4.6875 
Q 37.5 -4.6875 31.25 -5.078125 
L 31.25 2.34375 
Q 37.5 1.953125 43.359375 1.953125 
L 43.359375 32.421875 
Q 43.359375 40.625 42.96875 46.09375 
L 51.171875 46.09375 
Q 50.78125 41.015625 50.78125 32.421875 
L 50.78125 1.953125 
L 62.5 1.953125 
L 62.5 66.40625 
L 55.46875 66.40625 
Q 46.484375 66.40625 38.28125 66.015625 
L 38.28125 73.4375 
Q 46.484375 73.046875 55.46875 73.046875 
z
M 13.28125 -1.953125 
Q 17.96875 2.734375 17.96875 7.8125 
L 17.96875 42.96875 
L 14.453125 42.96875 
Q 8.984375 42.96875 3.515625 42.578125 
L 3.515625 50 
Q 8.59375 49.609375 14.453125 49.609375 
L 25.78125 49.609375 
Q 25.390625 42.1875 25.390625 33.984375 
L 25.390625 12.5 
Q 28.90625 16.796875 31.640625 20.703125 
Q 33.59375 16.40625 36.328125 12.890625 
Q 32.03125 7.8125 28.3125 3.3125 
Q 24.609375 -1.171875 19.140625 -8.203125 
Q 16.40625 -4.6875 13.28125 -1.953125 
z
M 23.828125 60.9375 
Q 17.1875 70.3125 12.5 75.390625 
Q 15.625 77.734375 18.359375 80.859375 
L 30.078125 66.796875 
Q 26.171875 64.0625 23.828125 60.9375 
z
" id="SimHei-35777"/>
      <path d="M 15.625 79.6875 
Q 39.0625 60.546875 39.0625 39.0625 
Q 39.84375 12.890625 16.015625 -4.296875 
L 11.71875 0.78125 
Q 32.421875 16.015625 32.8125 36.71875 
Q 33.59375 58.203125 11.328125 74.609375 
L 15.625 79.6875 
z
" id="SimHei-65289"/>
     </defs>
     <g transform="translate(94.6 58.714188)scale(0.1 -0.1)">
      <use xlink:href="#SimHei-25112"/>
      <use x="100" xlink:href="#SimHei-20196"/>
      <use x="200" xlink:href="#SimHei-25910"/>
      <use x="300" xlink:href="#SimHei-30410"/>
      <use x="400" xlink:href="#SimHei-65288"/>
      <use x="500" xlink:href="#SimHei-27809"/>
      <use x="600" xlink:href="#SimHei-26377"/>
      <use x="700" xlink:href="#SimHei-36890"/>
      <use x="800" xlink:href="#SimHei-34892"/>
      <use x="900" xlink:href="#SimHei-35777"/>
      <use x="1000" xlink:href="#SimHei-65289"/>
     </g>
    </g>
    <g id="line2d_21">
     <path d="M 66.6 69.706375 
L 86.6 69.706375 
" style="fill:none;stroke:#ff7f0e;stroke-linecap:square;stroke-width:1.5;"/>
    </g>
    <g id="line2d_22"/>
    <g id="text_23">
     <!-- 战令收益（有通行证） -->
     <g transform="translate(94.6 73.206375)scale(0.1 -0.1)">
      <use xlink:href="#SimHei-25112"/>
      <use x="100" xlink:href="#SimHei-20196"/>
      <use x="200" xlink:href="#SimHei-25910"/>
      <use x="300" xlink:href="#SimHei-30410"/>
      <use x="400" xlink:href="#SimHei-65288"/>
      <use x="500" xlink:href="#SimHei-26377"/>
      <use x="600" xlink:href="#SimHei-36890"/>
      <use x="700" xlink:href="#SimHei-34892"/>
      <use x="800" xlink:href="#SimHei-35777"/>
      <use x="900" xlink:href="#SimHei-65289"/>
     </g>
    </g>
    <g id="line2d_23">
     <path d="M 66.6 83.847 
L 86.6 83.847 
" style="fill:none;stroke:#2ca02c;stroke-linecap:square;stroke-width:1.5;"/>
    </g>
    <g id="line2d_24"/>
    <g id="text_24">
     <!-- 不互投 -->
     <defs>
      <path d="M 93.359375 69.53125 
Q 86.328125 69.921875 81.25 69.921875 
L 58.203125 69.921875 
Q 55.46875 64.453125 51.5625 57.8125 
L 51.5625 8.984375 
Q 51.5625 1.171875 51.953125 -8.59375 
L 43.359375 -8.59375 
Q 43.75 0.78125 43.75 8.984375 
L 43.75 47.265625 
Q 31.640625 30.46875 10.9375 16.40625 
Q 7.8125 21.09375 5.078125 23.046875 
Q 12.890625 26.5625 25.78125 38.078125 
Q 38.671875 49.609375 49.609375 69.921875 
L 23.828125 69.921875 
Q 16.40625 69.921875 8.203125 69.53125 
L 8.203125 77.34375 
Q 19.921875 76.953125 26.171875 76.953125 
L 80.859375 76.953125 
Q 85.9375 76.953125 93.359375 77.34375 
z
M 85.15625 17.578125 
Q 77.734375 26.953125 58.59375 46.484375 
Q 61.71875 49.21875 63.671875 51.953125 
Q 73.046875 43.359375 79.6875 36.90625 
Q 86.328125 30.46875 92.1875 24.21875 
Q 88.28125 21.09375 85.15625 17.578125 
z
" id="SimHei-19981"/>
      <path d="M 81.640625 2.34375 
Q 89.0625 2.34375 94.140625 2.734375 
L 94.140625 -5.078125 
Q 89.453125 -4.6875 81.640625 -4.6875 
L 19.53125 -4.6875 
Q 10.546875 -4.6875 5.078125 -5.078125 
L 5.078125 2.734375 
Q 10.546875 2.34375 19.140625 2.34375 
L 60.9375 2.34375 
L 63.671875 17.578125 
L 23.4375 17.578125 
Q 28.515625 40.234375 33.59375 65.234375 
L 22.65625 65.234375 
Q 16.40625 65.234375 10.9375 64.84375 
L 10.9375 72.265625 
Q 16.40625 71.875 23.046875 71.875 
L 78.515625 71.875 
Q 85.9375 71.875 91.015625 72.265625 
L 91.015625 64.84375 
Q 85.9375 65.234375 78.515625 65.234375 
L 41.40625 65.234375 
L 38.28125 50 
L 76.5625 50 
Q 72.65625 25.78125 68.75 2.34375 
z
M 37.109375 43.359375 
Q 34.765625 32.421875 33.203125 24.21875 
L 64.84375 24.21875 
L 67.578125 43.359375 
z
" id="SimHei-20114"/>
      <path d="M 41.40625 40.625 
Q 50 40.234375 56.640625 40.234375 
L 85.9375 40.234375 
Q 84.375 32.421875 80.078125 24.015625 
Q 75.78125 15.625 69.53125 8.203125 
Q 74.21875 4.296875 82.03125 2.140625 
Q 89.84375 0 96.875 -0.390625 
Q 93.359375 -4.296875 91.796875 -8.984375 
Q 83.984375 -7.03125 77.140625 -4.09375 
Q 70.3125 -1.171875 63.671875 3.125 
Q 57.8125 -1.171875 52.34375 -4.09375 
Q 46.875 -7.03125 38.28125 -10.15625 
Q 36.71875 -6.640625 32.8125 -2.734375 
Q 37.890625 -1.5625 44.140625 0.390625 
Q 50.390625 2.34375 58.203125 8.203125 
Q 50.390625 18.359375 47.65625 33.59375 
L 41.40625 33.59375 
z
M 18.75 59.765625 
Q 18.75 72.265625 18.359375 81.25 
L 26.171875 81.25 
Q 25.78125 73.046875 25.78125 59.765625 
Q 32.03125 59.765625 37.890625 60.15625 
L 37.890625 52.734375 
Q 32.03125 53.125 25.78125 53.125 
L 25.78125 36.71875 
Q 29.296875 37.5 36.71875 40.625 
Q 36.71875 37.109375 37.5 32.8125 
Q 33.984375 32.03125 25.78125 28.90625 
L 25.78125 -0.78125 
Q 25.390625 -5.859375 22.265625 -7.03125 
Q 19.140625 -8.203125 9.765625 -9.375 
Q 9.765625 -4.6875 7.421875 -0.390625 
Q 14.453125 -0.78125 16.40625 -0.390625 
Q 18.359375 0 18.75 3.515625 
L 18.75 26.953125 
Q 10.546875 23.828125 6.640625 21.09375 
Q 5.46875 26.171875 3.125 30.078125 
Q 9.375 30.859375 18.75 33.984375 
L 18.75 53.125 
Q 10.546875 53.125 5.46875 52.734375 
L 5.46875 60.15625 
Q 10.546875 59.765625 18.75 59.765625 
z
M 83.984375 48.4375 
Q 78.90625 48.4375 75 48.828125 
Q 71.09375 49.21875 71.09375 55.46875 
L 71.09375 71.484375 
L 57.03125 71.484375 
Q 57.03125 60.546875 54.484375 54.296875 
Q 51.953125 48.046875 46.484375 42.578125 
Q 43.359375 45.703125 39.0625 47.265625 
Q 47.265625 53.90625 48.234375 60.9375 
Q 49.21875 67.96875 48.828125 77.734375 
L 78.515625 77.734375 
Q 78.125 73.828125 78.125 67.1875 
L 78.125 57.8125 
Q 78.125 55.078125 80.859375 55.078125 
L 86.71875 55.078125 
Q 90.234375 55.078125 92.1875 55.46875 
Q 91.40625 52.34375 91.40625 48.4375 
z
M 54.296875 33.59375 
Q 57.8125 19.53125 64.0625 12.890625 
Q 67.578125 16.796875 70.5 21.09375 
Q 73.4375 25.390625 76.171875 33.59375 
L 54.296875 33.59375 
z
" id="SimHei-25237"/>
     </defs>
     <g transform="translate(94.6 87.347)scale(0.1 -0.1)">
      <use xlink:href="#SimHei-19981"/>
      <use x="100" xlink:href="#SimHei-20114"/>
      <use x="200" xlink:href="#SimHei-25237"/>
     </g>
    </g>
    <g id="line2d_25">
     <path d="M 66.6 97.987625 
L 86.6 97.987625 
" style="fill:none;stroke:#d62728;stroke-linecap:square;stroke-width:1.5;"/>
    </g>
    <g id="line2d_26"/>
    <g id="text_25">
     <!-- 互投 -->
     <g transform="translate(94.6 101.487625)scale(0.1 -0.1)">
      <use xlink:href="#SimHei-20114"/>
      <use x="100" xlink:href="#SimHei-25237"/>
     </g>
    </g>
   </g>
  </g>
 </g>
 <defs>
  <clipPath id="p743c44e41a">
   <rect height="266.112" width="357.12" x="57.6" y="41.472"/>
  </clipPath>
 </defs>
</svg>
